<?xml version="1.0" encoding="UTF-8"?>
<svg width="706px" height="730px" viewBox="0 0 706 730" version="1.1" xmlns="http://www.w3.org/2000/svg" xmlns:xlink="http://www.w3.org/1999/xlink">
    <!-- Generator: Sketch 43.2 (39069) - http://www.bohemiancoding.com/sketch -->
    <title>Page 1</title>
    <desc>Created with Sketch.</desc>
    <defs>
        <polygon id="path-1" points="0.000202540455 672 705.081 672 705.081 0.954464749 0.000202540455 0.954464749 0.000202540455 672"></polygon>
        <polygon id="path-3" points="0.4854 0.511 11.7474 0.511 11.7474 2.69041952 0.4854 2.69041952 0.4854 0.511"></polygon>
    </defs>
    <g id="Branding-+-Previous" stroke="none" stroke-width="1" fill="none" fill-rule="evenodd">
        <g id="Page-1" transform="translate(0.000000, -1.000000)">
            <g id="Group-3" transform="translate(0.000000, 58.489000)">
                <mask id="mask-2" fill="white">
                    <use xlink:href="#path-1"></use>
                </mask>
                <g id="Clip-2"></g>
                <path d="M72.3668,229.0728 C75.8868,226.4348 75.8638,223.9008 74.9508,220.3518 C72.6668,223.0178 72.6158,225.5248 72.3668,229.0728 L72.3668,229.0728 Z M541.9968,130.4048 C541.5618,130.7178 541.1268,131.0308 540.6928,131.3438 C542.3158,133.9018 543.9198,136.4708 545.5748,139.0078 C546.0408,139.7218 546.7708,140.2878 547.6138,139.6628 C548.3998,139.0788 548.2878,138.2118 547.7178,137.4928 C545.8278,135.1158 543.9068,132.7658 541.9968,130.4048 L541.9968,130.4048 Z M517.1718,539.6758 C520.9038,538.0188 524.1358,535.7458 526.8808,531.0998 C522.1968,533.4608 519.3128,536.1098 517.1718,539.6758 L517.1718,539.6758 Z M562.8768,107.8918 C562.0528,103.9518 559.6008,101.4728 555.1088,99.2588 C556.6188,104.0708 559.4728,106.2118 562.8768,107.8918 L562.8768,107.8918 Z M71.6008,234.3508 L70.2378,233.7428 C67.7478,237.2928 67.0698,241.3848 66.5698,245.5288 C67.0598,245.6838 67.5498,245.8378 68.0388,245.9918 L71.6008,234.3508 Z M24.0668,434.9058 C23.7878,435.0208 23.5098,435.1368 23.2318,435.2518 C24.7268,438.9438 26.1858,442.6518 27.7448,446.3168 C28.0958,447.1408 28.6408,448.4378 29.8458,447.6128 C30.8298,446.9388 30.2698,445.8008 29.7748,444.9248 C27.8858,441.5768 25.9718,438.2438 24.0668,434.9058 L24.0668,434.9058 Z M557.5088,500.3098 C557.0488,499.9448 556.5878,499.5788 556.1278,499.2148 C552.1248,504.3998 548.1218,509.5838 544.1178,514.7688 C550.1478,511.1928 553.1338,505.1978 557.5088,500.3098 L557.5088,500.3098 Z M161.1628,170.4398 C163.1508,165.3008 166.9558,161.1128 168.3618,155.7448 C165.2938,160.3348 160.0998,163.8108 161.1628,170.4398 L161.1628,170.4398 Z M132.7458,379.7078 C132.1288,379.9538 131.5118,380.1998 130.8948,380.4478 C132.9348,385.3288 134.9758,390.2108 137.0168,395.0928 C137.5098,394.8908 138.0038,394.6888 138.4968,394.4878 C138.2798,388.9018 135.4008,384.3478 132.7458,379.7078 L132.7458,379.7078 Z M540.6068,518.2288 C536.7938,521.9308 532.9808,525.6318 528.3428,530.1338 C534.8778,527.5848 538.2988,523.4448 540.6068,518.2288 L540.6068,518.2288 Z M58.8958,192.8458 C57.7248,187.1658 60.0068,183.6548 64.8608,181.0748 C66.3938,180.2598 65.8668,177.7858 64.3578,176.2618 C63.3318,175.2258 62.2148,174.9448 61.6108,176.4268 C59.4998,181.6088 56.6878,186.7038 58.8958,192.8458 L58.8958,192.8458 Z M72.8098,370.5808 C74.9988,364.7778 73.6478,355.6718 69.7118,352.8138 C70.5208,359.0768 68.5848,365.1718 72.8098,370.5808 L72.8098,370.5808 Z M533.3828,125.9258 L534.4758,124.7608 C527.8018,117.1998 521.8608,108.8658 512.5448,104.1138 C519.4908,111.3848 526.4368,118.6558 533.3828,125.9258 L533.3828,125.9258 Z M138.6398,160.3748 C132.4718,169.7188 125.6178,178.5618 122.3618,189.4038 C128.3208,179.9838 135.6288,171.3378 138.6398,160.3748 L138.6398,160.3748 Z M516.6578,515.8668 C511.5358,518.8868 506.7618,521.7098 503.7428,527.4608 C501.1108,532.4748 495.9368,536.1538 491.8848,540.4218 C492.2928,540.7978 492.6998,541.1728 493.1078,541.5478 C502.0108,534.0008 509.5508,525.1328 516.6578,515.8668 L516.6578,515.8668 Z M275.9438,35.1248 C262.3558,36.5588 251.6328,43.8758 241.1898,51.7678 C254.1258,48.9958 263.4938,38.8948 275.9438,35.1248 L275.9438,35.1248 Z M364.7718,19.7588 C365.0608,21.4938 365.6498,21.7848 366.3288,21.8318 C373.6268,22.3318 380.9238,22.8758 388.2288,23.2688 C393.4338,23.5498 398.8408,24.7368 402.7008,27.5658 C407.1468,30.8228 411.4928,32.4858 416.7218,32.7858 C425.6308,33.2978 434.6118,33.1938 443.0518,36.9248 C454.6128,42.0348 467.4798,42.9058 478.7398,49.9288 C486.7138,54.9028 494.6648,60.2878 503.0918,64.8188 C516.0318,71.7758 528.8998,79.6108 540.0738,89.5778 C540.8638,90.2808 541.7518,91.7938 542.9248,90.5628 C544.0678,89.3648 542.5178,88.6638 541.8448,87.7888 C536.0748,80.2848 528.4428,74.8988 521.3418,68.8078 C510.0398,59.1148 498.1498,50.6198 484.7388,44.2388 C482.0888,42.9778 478.6618,41.0218 476.4188,42.3758 C473.4288,44.1798 471.5568,42.9998 469.1538,42.1308 C457.1728,37.8008 446.2178,31.1088 433.9738,27.2888 C426.6238,24.9958 418.8268,25.0438 411.6838,22.4928 C396.2728,16.9898 380.6188,19.4608 364.7718,19.7588 L364.7718,19.7588 Z M99.4358,195.9838 C100.5268,195.8528 101.3478,195.2178 101.7528,194.2848 C105.4568,185.7628 112.2898,178.8618 114.3548,169.4438 C114.9948,166.5228 115.7058,163.2308 118.9348,161.5488 C119.5948,161.2048 120.3148,160.2728 120.3628,159.5678 C120.8528,152.4388 125.2068,146.8968 128.9188,141.5308 C131.7238,137.4738 133.6918,132.7808 137.6728,129.2748 C144.4498,123.3058 150.5258,116.5188 154.5568,108.2268 C154.9208,107.4788 155.4298,106.5558 154.5518,105.9848 C153.4728,105.2828 152.6438,106.2168 152.0568,106.9568 C147.6268,112.5348 141.6278,116.6128 137.2788,122.9648 C136.6068,120.3508 137.9848,118.7418 139.0328,117.7148 C144.9988,111.8678 149.6048,104.9548 154.7338,98.4518 C155.5378,97.4318 156.3458,94.9608 158.1278,98.1258 C159.0088,99.6908 160.4638,97.9088 161.2818,97.0058 C170.9988,86.2778 182.5388,77.5418 193.0468,67.6978 C198.1488,62.9178 204.9298,62.6518 210.1758,58.8678 C218.7728,52.6688 228.7488,49.1278 238.3148,44.9578 C252.3998,38.8178 267.1198,34.1328 281.1828,27.9488 C287.4418,25.1968 293.9808,22.8258 300.7258,19.0468 C297.4778,17.8748 295.0708,20.7008 292.4318,18.9848 C294.2098,17.1518 296.5468,17.0278 298.5958,16.1838 C301.1728,15.1238 305.1698,15.3078 304.7288,10.6098 C304.6108,9.3518 306.1748,8.6138 307.2148,8.5288 C311.5808,8.1728 315.5308,4.6218 320.2228,6.8108 C320.4948,6.9388 320.9968,6.9958 321.1758,6.8398 C328.1728,0.6938 337.2808,4.5348 345.1308,1.8388 C349.4648,0.3498 354.6858,1.1408 359.4858,1.3678 C379.7608,2.3268 399.9248,4.0728 419.5918,9.6498 C432.4508,13.2968 445.7908,15.5468 458.2688,20.1688 C473.2738,25.7278 488.2088,31.8238 502.1388,39.8928 C513.9338,46.7238 525.6228,53.7558 537.1268,61.0628 C542.7098,64.6088 547.4808,69.3228 552.9178,73.1798 C568.0888,83.9428 580.1898,98.0308 592.9478,111.3818 C595.5288,114.0838 597.7948,116.6718 601.3108,118.7588 C605.2398,121.0918 607.0058,127.0358 609.7698,131.3738 C611.0678,133.4088 611.5688,136.0318 614.1488,137.4818 C615.2238,135.0788 613.5138,133.4898 612.6098,132.0418 C602.5418,115.9168 594.0398,98.7838 581.8268,84.0328 C579.6158,81.3608 576.7768,79.3588 574.5508,76.6228 C572.5838,74.2058 568.3718,73.4508 570.0248,68.8698 C570.1498,68.5248 569.0148,67.7018 568.4368,67.1308 C562.9508,61.7018 556.2048,58.0328 551.0988,51.6688 C546.1918,45.5528 538.2118,41.5178 530.7158,37.7908 C524.5158,34.7068 518.3088,31.3438 512.8778,27.1118 C509.5488,24.5178 507.4538,20.3048 502.9348,18.8738 C503.7058,17.8458 504.7758,16.1268 505.5308,17.1368 C507.9428,20.3608 513.1868,19.7028 514.5988,24.0728 C514.7218,24.4518 515.2918,24.9138 515.6858,24.9448 C522.3658,25.4688 527.2488,30.4078 533.4538,32.1228 C537.9898,33.3768 541.1898,37.0568 545.1078,39.4208 C550.5178,42.6848 556.8028,43.4178 562.0598,46.9128 C564.6688,48.6488 565.2028,53.0698 569.5398,52.5188 C571.0088,52.3328 572.3128,53.5858 573.9658,51.8228 C576.4378,49.1858 576.8388,54.3978 579.6518,53.4908 C578.5928,46.0508 571.0568,44.2488 566.8118,39.0918 C570.2448,38.6978 571.5748,42.5968 574.4468,42.4628 C575.6028,40.7738 573.0118,40.2928 573.4948,38.8858 C573.7898,38.7648 574.1118,38.4988 574.3608,38.5538 C575.9888,38.9148 576.9908,40.0168 577.2578,41.5998 C578.3248,47.9318 579.7708,49.4588 586.1218,50.0188 C589.5008,50.3168 590.9288,53.4058 593.5808,54.6968 C594.4408,55.1148 595.5898,56.5058 595.8668,56.3238 C601.9648,52.3248 600.1308,58.3038 601.1518,60.5068 C603.0528,64.6108 607.0458,66.7338 609.9428,69.8908 C620.9148,81.8498 631.7408,93.8718 639.4458,108.3388 C641.7028,112.5778 645.3678,115.8038 647.9368,119.9398 C653.2808,128.5478 657.5838,137.6838 662.4858,146.5068 C666.7938,154.2638 669.4358,162.7808 674.0628,170.5158 C677.7968,176.7588 679.1218,184.4508 681.4558,191.5198 C683.9418,199.0438 686.7358,206.4928 688.7048,214.1528 C691.0948,223.4508 692.7398,232.9398 694.7498,242.3358 C697.4258,254.8398 699.0408,267.5088 700.7288,280.1668 C700.7498,280.3308 700.8388,280.4938 700.8298,280.6548 C699.9478,296.1098 705.4608,311.1578 703.7818,326.6538 C703.3068,331.0328 705.4408,335.0668 705.0288,339.4588 C703.0348,360.6928 699.9028,381.6388 693.2048,402.0418 C690.1168,411.4508 689.1308,421.5318 686.8288,431.2228 C685.5838,436.4648 683.5748,441.5248 682.2218,446.8238 C685.4258,443.8648 685.6908,439.1978 688.6708,435.0928 C689.6308,439.3478 687.6318,442.2688 686.5808,445.0128 C683.0908,454.1318 678.7118,462.8998 675.7458,472.2458 C674.6308,475.7618 672.3428,478.5948 669.5938,481.0438 C667.1408,483.2308 664.0968,485.2438 667.5058,489.0318 C668.2018,489.8068 668.0928,490.9778 667.4938,491.8608 C662.8038,498.7828 658.8658,506.2188 654.9918,513.5378 C648.3108,526.1658 639.5218,537.2518 631.4438,548.8368 C627.2248,554.8878 621.3588,559.7838 616.2798,565.2418 C613.9248,567.7738 611.6738,570.4028 609.3618,573.0028 C610.9498,575.1798 612.1118,572.6378 613.5658,573.0618 C613.4088,573.5468 613.4038,574.0948 613.1268,574.3458 C606.8108,580.0928 600.5488,585.9058 594.0568,591.4498 C592.6908,592.6158 592.1188,593.9408 591.2628,595.3118 C590.0508,597.2518 589.1148,599.0938 585.5428,598.6188 C582.3218,598.1918 576.8958,598.2168 577.7318,604.6498 C577.8798,605.7938 576.9458,606.4478 576.0578,606.9218 C571.6148,609.2898 567.9998,612.7788 564.0148,615.7658 C560.5598,618.3558 555.6558,617.5268 552.3798,620.8008 C551.2268,621.9538 549.2548,622.6708 549.2648,624.4068 C549.2908,629.5098 545.2918,629.9228 541.9538,630.9478 C538.0878,632.1348 534.5238,633.1988 532.8908,637.6718 C531.8458,640.5328 528.7508,641.8228 525.8388,641.4848 C518.8298,640.6718 512.5118,644.1528 507.8548,647.5208 C502.0848,651.6928 495.7768,652.4268 489.8058,654.8958 C484.2508,657.1938 479.1168,660.4848 473.1818,661.8948 C464.3478,663.9938 455.5308,666.1588 446.6868,668.2158 C441.8478,669.3418 436.9858,670.3798 432.1008,671.2798 C430.8828,671.5038 428.7578,673.0468 428.4248,670.7788 C428.1608,668.9778 430.5818,669.2318 431.9238,668.8708 C438.0108,667.2388 444.1888,665.9028 450.1898,664.0018 C455.3918,662.3558 460.4138,660.1308 465.4888,658.0928 C469.0248,656.6718 472.4738,655.3208 476.4328,655.1148 C483.0828,654.7698 488.5498,650.7938 494.3898,648.1458 C508.2678,641.8508 521.5618,634.4188 534.4718,626.3118 C535.0348,625.9578 535.6398,625.6648 536.1888,625.2898 C537.1248,624.6498 538.4968,624.0248 537.5008,622.6288 C536.7148,621.5278 535.6698,622.5208 534.8628,622.9178 C532.3838,624.1348 529.9588,625.4588 527.6318,626.6798 C526.2018,624.9878 529.6448,624.2948 527.8018,623.1058 C526.4768,622.2498 525.7928,623.8628 524.9408,624.5008 C521.8198,626.8398 516.9668,627.2548 516.4838,632.6058 C516.3668,633.8928 514.2308,634.6328 512.6588,634.2318 C508.3938,633.1428 505.3898,635.7828 502.0538,637.5418 C490.4888,643.6428 478.9828,649.8798 466.6148,654.2728 C465.0858,654.8158 463.4648,655.4208 460.7518,654.4488 C466.9708,650.9718 472.4718,647.6208 478.2128,644.7498 C486.2118,640.7498 494.6288,637.5228 500.7698,630.5528 C502.8198,628.2268 506.2488,629.7528 508.6978,628.0608 C513.0668,625.0398 517.5848,622.2368 522.0488,619.3528 C526.6328,616.3908 532.1298,614.2368 535.5938,610.2918 C540.2938,604.9398 546.6008,601.8228 551.3768,596.8228 C554.1238,593.9478 558.0078,592.3808 560.1588,588.8688 C560.7128,587.9658 562.4738,587.3278 561.3478,586.0868 C560.2648,584.8908 559.3058,586.3198 558.4378,586.9778 C553.8568,590.4558 549.2888,593.9518 544.1748,596.8818 C571.3348,572.9188 598.4928,549.0218 617.1108,517.3748 C611.9718,518.9338 610.4248,523.8158 607.7168,527.4858 C603.0068,533.8678 598.7008,540.4878 593.4498,546.5338 C588.8988,551.7768 582.2808,554.1118 577.9038,559.3888 C575.0488,562.8308 572.1128,565.9538 567.3288,567.5248 C563.7918,568.6858 562.1168,573.3658 559.2718,576.2388 C556.4648,579.0718 552.9448,580.3498 550.1618,582.8668 C549.2658,583.6778 547.7258,583.8158 547.0318,582.6838 C546.1768,581.2908 547.6398,580.7218 548.5958,580.1068 C548.8758,579.9258 549.1988,579.7908 549.4358,579.5668 C551.1718,577.9228 554.8188,575.5218 553.6228,574.2878 C551.2138,571.8028 550.2208,576.1648 548.6428,577.2998 C540.3528,583.2578 532.6798,590.0828 524.3238,595.9368 C517.0088,601.0598 508.8018,604.9078 501.4748,610.0158 C489.9268,618.0648 476.8858,623.0208 464.5898,629.6238 C463.5528,627.7998 464.7958,627.2068 465.4238,626.8968 C480.0178,619.6488 494.1448,611.5928 507.8188,602.7308 C511.0528,600.6338 514.1508,598.4178 516.6508,595.4608 C517.2908,594.7028 518.0528,593.7588 517.2198,592.8218 C516.1668,591.6358 515.1468,592.4078 514.2358,593.2488 C508.7808,598.2878 501.9258,600.9288 495.3578,603.9768 C492.4318,605.3338 489.8798,607.1328 487.3738,608.9998 C478.2818,615.7788 466.9208,617.5668 457.1948,622.9288 C454.2058,624.5748 451.0668,625.9478 447.7358,626.9938 C453.3368,623.2058 458.6238,618.9458 465.0758,616.5528 C466.9458,615.8598 468.8058,615.1388 470.6388,614.3578 C471.8238,613.8528 473.6198,613.3618 472.8058,611.6958 C472.1758,610.4058 470.4918,610.6508 469.2128,611.2498 C465.1618,613.1468 461.1998,615.2528 457.0768,616.9738 C445.5028,621.8028 433.8668,626.4818 422.2508,631.2088 C421.6358,631.4598 420.9778,631.5998 420.3448,631.8108 C419.3468,632.1418 418.1338,632.3688 417.7258,631.2558 C417.0888,629.5198 418.7938,629.4858 419.7828,629.2218 C426.4498,627.4448 432.1548,623.5158 438.4458,620.9008 C439.5438,620.4438 441.0838,620.0968 441.3718,618.4658 C439.8728,616.6448 438.3438,618.8998 436.7788,618.4318 C436.7398,616.9168 437.9308,616.6978 438.9428,616.2598 C440.6118,615.5368 442.6338,615.1528 443.8598,613.9588 C455.6998,602.4328 471.6088,597.2458 484.6338,587.5708 C494.7588,580.0498 505.1598,572.9038 515.3488,565.4678 C517.2928,564.0488 520.4128,561.3998 518.9598,559.7228 C516.8648,557.3048 514.6278,560.7568 513.0298,562.2638 C502.2808,572.3908 489.7268,580.0618 476.4928,585.9458 C469.2618,589.1598 461.5258,593.0778 453.8288,593.9318 C449.0358,594.4638 444.2278,595.9198 439.3458,596.1948 C438.9518,594.0528 440.6218,593.6898 441.6398,593.1868 C453.4098,587.3698 465.2128,581.1588 475.0468,572.7088 C485.9848,563.3108 498.3398,556.1208 509.5388,547.2558 C510.7428,546.3028 511.6478,544.9718 512.3108,543.3618 C485.6238,558.5238 460.5998,576.4328 431.8628,589.2838 C432.4328,586.6728 433.7658,586.3168 434.8778,585.6278 C439.8638,582.5408 442.6398,576.1248 449.5378,575.9108 C459.1198,566.3988 471.3488,560.5918 482.0568,552.6588 C484.4508,550.8858 486.6508,548.8288 488.8158,546.7718 C489.5318,546.0908 489.7978,544.8428 489.0478,544.0228 C488.0188,542.8978 487.3078,544.1498 486.6088,544.7078 C485.4388,545.6418 484.2858,546.6108 483.2128,547.6548 C476.6098,554.0808 468.2838,556.2608 459.5708,558.2208 C455.1878,559.2068 450.7588,561.6688 448.0078,566.0868 C445.2178,570.5658 439.2748,571.2598 436.1888,575.6138 C435.5078,571.3388 440.2338,570.9548 441.6428,567.4758 C434.4618,570.4898 428.5828,574.9668 421.1188,576.1018 C444.3678,563.3698 465.7808,548.2048 484.8728,529.8188 C479.5688,531.0898 475.2468,534.1168 470.4918,536.6428 C474.1118,533.7238 477.4308,530.2558 481.4438,528.0518 C484.8768,526.1658 487.6858,523.9478 489.6868,520.7738 C490.9008,518.8468 493.0358,519.0148 494.5938,517.8068 C501.4798,512.4648 507.4118,506.0888 513.2048,499.7468 C525.8448,485.9108 538.2848,471.7728 548.0348,455.6738 C557.9068,439.3758 567.5078,422.9248 573.6858,404.6748 C577.1418,394.4678 580.1198,384.0908 582.3848,373.6728 C587.0798,352.0698 588.6368,330.0358 588.1568,307.8738 C587.8128,292.0508 585.5158,276.4118 584.1718,260.6868 C583.4098,251.7668 579.9148,243.3598 577.6588,234.7198 C572.7558,215.9398 565.7698,197.9008 558.2518,180.0388 C557.1158,177.3388 555.0188,175.4378 553.7718,172.9138 C553.1848,171.7278 551.9388,170.5748 551.9638,169.4268 C552.1178,162.1808 546.8458,157.6778 543.3068,152.4688 C538.3088,145.1118 533.1888,137.6018 526.8628,131.4508 C520.6528,125.4138 515.6018,118.2278 508.5738,113.0228 C506.7048,111.6398 505.0888,109.9068 503.1828,108.5888 C501.8468,107.6658 500.7938,104.8478 498.4398,107.4998 C497.7888,108.2318 496.8848,107.3498 496.3248,106.7678 C489.9388,100.1308 481.7598,95.7768 474.3968,90.5118 C467.9838,85.9268 459.5918,84.1128 452.0868,81.0438 C432.9508,73.2208 412.7948,70.1848 392.3968,68.2188 C374.5788,66.5008 357.0738,68.6628 339.5098,71.5318 C331.0958,72.9058 322.9178,75.0108 315.0038,77.7578 C309.4918,79.6718 303.5568,81.1108 298.6678,84.5718 C295.4248,86.8678 291.5998,87.3958 288.1028,88.8768 C276.9368,93.6058 266.4788,99.7198 255.7978,105.3968 C254.1268,106.2858 252.7458,108.1668 250.4238,106.7598 C249.6588,106.2968 248.5998,106.6438 248.2518,107.4398 C246.0408,112.5028 240.3238,113.1678 236.7788,116.6618 C233.6808,119.7168 233.2398,119.2688 231.5398,115.2028 C230.9218,114.8028 230.4108,115.3118 230.3608,115.6718 C228.7958,126.7618 218.1318,130.6398 211.6268,137.2558 C205.2768,143.7148 198.6828,150.2268 192.3308,156.8228 C189.8748,159.3728 188.4768,162.9408 186.5258,166.1638 C184.5338,166.1798 185.5538,162.7708 183.4178,163.1808 C181.3618,163.5768 181.6528,165.7828 180.8108,167.1238 C178.4318,170.9118 178.4498,175.7518 173.5488,178.6118 C170.7518,180.2438 168.8988,185.0198 168.6078,189.0078 C168.1978,194.6238 166.1818,199.3958 163.2868,204.1478 C160.8638,208.1258 161.2208,213.1788 158.7718,217.5038 C157.3798,219.9628 155.0998,221.7218 154.1428,224.3118 C152.1428,229.7238 150.2268,235.2098 149.7218,240.9878 C149.2828,246.0098 144.5028,249.1008 144.1348,254.2018 C143.7168,251.7378 139.1398,249.0268 144.9908,247.0998 C145.8718,246.8098 146.7428,244.8378 146.7008,243.6768 C146.5148,238.4818 149.4378,233.8448 148.8828,228.5118 C148.3598,223.4968 150.6008,218.9018 152.8188,214.4358 C156.2388,207.5488 157.2308,199.8328 160.6348,192.8338 C168.9828,175.6658 180.3048,160.6258 192.4708,146.1418 C204.0898,132.3098 217.5018,120.4158 232.5668,110.4278 C238.0508,106.7928 243.6448,103.3228 249.3398,99.6798 C249.6658,101.3398 246.7538,102.1768 248.5708,103.6458 C250.3408,105.0768 251.1528,103.1638 252.1768,102.2228 C254.8078,99.8058 258.4588,99.3598 261.3558,97.4128 C268.9158,92.3328 277.2818,88.6838 285.1678,84.1968 C296.0288,78.0178 306.6238,71.4288 318.0468,66.2168 C324.7688,63.1498 332.1888,63.4658 338.8508,60.6308 C342.7338,58.9788 346.9958,59.2138 351.0268,58.2808 C352.0178,58.0518 353.0958,57.7968 353.0128,56.5138 C352.9458,55.4818 351.9618,55.0518 351.1768,55.3698 C346.6258,57.2118 341.8688,56.1208 337.3098,56.5918 C330.4178,57.3018 323.7228,60.0448 316.9858,62.0598 C315.0508,62.6388 313.3838,64.6248 311.1608,62.6868 C310.9188,62.4748 309.9768,62.6028 309.7728,62.8788 C306.9498,66.6928 302.5258,66.7348 298.5218,67.8428 C295.7318,68.6148 292.8088,66.3858 289.9568,68.5088 C289.4358,68.8968 289.0188,66.3618 288.8078,65.1108 C288.6568,64.2078 289.3018,63.6288 289.9568,63.0538 C291.9678,61.2888 294.1548,57.7008 293.4058,56.6278 C291.4948,53.8888 288.0928,56.6448 286.0348,57.3788 C279.2568,59.7968 272.8728,62.9318 265.5238,64.0658 C262.1258,64.5888 259.2678,68.5538 256.1408,70.9268 C254.3528,72.2838 252.7528,74.0898 249.9058,73.4078 C255.6358,68.9458 260.7718,63.6378 267.8008,61.1428 C270.0498,60.3448 271.8798,59.8388 273.2158,57.4218 C275.3238,53.6058 279.8438,53.3228 283.5248,52.2868 C291.1978,50.1278 298.8968,48.1688 305.8708,44.1368 C306.7898,43.6058 308.5478,43.6118 307.9268,41.9938 C307.3888,40.5948 305.9448,41.3908 304.8308,41.4298 C300.2918,41.5878 296.9258,44.7248 292.8628,46.0908 C291.7888,46.4518 290.8978,47.4068 289.4718,46.5538 C289.8018,43.1308 294.7098,44.1948 295.5338,40.2958 C292.4868,41.3168 289.9558,42.1638 286.8408,43.2068 C289.6908,35.6998 298.5518,37.6268 302.5638,31.9328 C298.0888,30.5098 294.5748,32.6638 291.7358,34.1098 C284.2098,37.9408 275.6028,38.4848 268.2968,43.0748 C258.8268,49.0238 248.6038,53.7598 238.9918,59.4978 C233.8528,62.5658 228.2558,64.5988 223.1858,67.8978 C213.9708,73.8948 206.4848,81.3318 199.6568,89.8858 C193.4608,97.6458 186.0758,104.4548 179.2398,111.7078 C173.3488,117.9578 167.5098,124.2898 162.6408,131.3628 C159.7528,135.5578 155.4188,138.2478 152.5068,142.3108 C151.4178,143.8298 149.4318,144.9958 150.2468,147.7508 C153.6998,145.8468 154.9488,141.9228 158.1948,140.0828 C152.3198,150.9628 143.0918,159.7008 137.8788,170.9348 C138.3068,171.2268 138.7348,171.5178 139.1628,171.8098 C143.0188,166.5398 146.7438,161.1688 150.7638,156.0268 C155.9788,149.3558 160.6648,142.4338 163.4828,134.3588 C163.9558,133.0028 164.9628,131.7518 165.9608,130.6728 C173.9438,122.0368 181.9208,113.3948 190.0328,104.8808 C194.1158,100.5948 199.9108,98.1278 202.6818,92.4598 C203.2908,92.9848 203.5968,93.1358 203.7258,93.3798 C204.4638,94.7778 201.5708,96.8908 204.0888,97.5918 C205.9908,98.1208 207.0438,95.9278 208.0278,94.3578 C209.0878,92.6678 208.5008,89.9048 211.7248,89.1318 C210.3248,95.5208 207.3298,100.7118 203.3088,105.3718 C201.7918,107.1298 200.1038,108.7388 198.5418,110.4588 C197.5998,111.4958 195.8338,112.6108 198.0048,113.9868 C199.7508,115.0928 201.0638,113.7978 201.5028,112.3558 C202.8458,107.9508 205.9818,105.9478 210.2208,105.2468 C211.2448,105.0778 212.4438,103.6368 213.3048,105.1288 C214.0748,106.4648 213.1308,107.6818 212.1738,108.6688 C211.5958,109.2638 210.9438,109.7918 210.2978,110.3158 C205.7078,114.0378 201.7798,118.2138 200.5668,124.2898 C200.2218,126.0178 199.6338,127.1268 197.4198,127.4028 C191.4838,128.1428 187.6598,132.1658 186.5868,138.4818 C186.2988,140.1748 186.5138,140.5418 184.1508,140.4038 C178.7418,140.0848 180.9088,144.8778 180.4558,147.7178 C178.9598,148.6168 177.2488,143.9058 176.4818,147.6588 C175.7118,151.4268 172.2548,153.5368 171.5908,157.0678 C170.0568,165.2168 164.1238,171.0088 160.3068,177.8868 C158.4728,181.1908 157.0008,184.6278 155.2478,187.9428 C154.5228,189.3138 154.0338,191.5538 152.2098,191.3628 C150.6718,191.1998 150.5758,189.0948 150.1828,187.6538 C150.0648,187.2198 149.6518,186.8668 148.8028,185.6758 C146.6558,191.0868 141.9338,194.4988 142.8568,200.9508 C143.2098,203.4138 141.3248,206.2788 140.2018,208.8478 C139.0318,211.5288 137.5778,207.6438 137.4738,208.4828 C136.8598,213.4038 131.3708,215.1558 130.3168,219.2348 C128.0438,228.0228 126.6158,237.0328 124.9658,245.9748 C124.5748,248.0938 123.5208,249.5778 122.0218,251.0038 C120.6228,252.3328 119.2158,253.8658 120.5358,256.1058 C122.6838,255.9158 121.3658,253.6518 122.6518,253.0938 C124.5678,253.7758 123.3208,268.6028 120.9038,272.5048 C118.7358,270.0368 121.9118,266.8188 119.0378,263.9118 C118.1438,267.6908 117.1008,271.0008 116.6378,274.3898 C116.2108,277.5058 120.8268,274.8538 120.9788,277.7138 C122.7078,277.6028 122.8148,276.0648 123.3878,274.9518 C123.9958,273.7718 123.0868,271.2588 125.3138,271.6068 C127.5608,271.9578 126.0108,274.0348 126.0988,275.3628 C126.1418,276.0138 126.1268,277.2108 126.2828,277.2358 C132.9208,278.2748 128.8298,283.3458 128.3988,285.3538 C126.5208,294.1128 131.2598,302.0658 130.3528,310.7208 C129.2258,321.4838 131.5798,332.1638 133.3928,342.7888 C133.6808,344.4818 134.1988,345.8938 135.1528,347.3288 C137.6038,351.0228 138.2588,355.0208 136.7348,359.6048 C129.4768,346.0418 130.3748,330.6658 124.2068,316.0488 C122.6578,321.3728 122.7228,326.2138 123.8948,330.2058 C125.8228,336.7758 126.2438,343.4398 127.0998,350.0748 C128.1508,358.2178 130.6548,365.9628 133.7048,373.4258 C140.0408,388.9258 146.5658,404.4168 159.5468,415.9898 C160.5428,416.8778 164.2198,418.6228 160.4428,421.2878 C159.3658,422.0488 160.9318,424.0108 162.0608,424.3688 C166.6078,425.8128 167.9718,429.7878 170.1228,433.7628 C168.1328,434.0188 166.8878,432.7618 166.2988,431.8178 C164.9828,429.7058 164.0078,429.8808 161.4828,429.9508 C158.1298,430.0438 154.3178,427.5628 152.0498,424.0228 C151.0408,422.4478 150.9448,420.1348 148.2938,419.1498 C148.4458,422.7018 150.5258,425.1048 152.1148,427.4858 C159.2548,438.1798 168.4418,447.0608 177.9128,455.6458 C179.2468,456.8538 180.9018,457.7198 182.4498,458.6748 C188.1988,462.2178 194.0438,465.6418 197.8008,472.4728 C194.7148,471.0858 191.7488,470.3318 189.5028,468.6288 C183.8878,464.3718 177.1018,463.4038 170.7268,461.3128 C169.1308,460.7888 167.2238,460.5758 166.2578,459.3468 C161.8628,453.7528 155.5798,450.0098 151.9068,443.6168 C146.9418,434.9788 139.5968,427.9218 134.7898,419.1058 C134.2838,418.1778 133.4608,416.4048 131.7368,417.9038 C130.5578,418.9288 129.4918,420.0228 130.7558,421.7038 C132.6088,424.1688 134.4528,426.6408 136.2458,429.0358 C134.5968,430.8368 133.7558,427.9788 132.0368,429.3678 C136.8178,439.4088 143.7758,447.9978 152.1888,456.4348 C147.8278,455.3438 141.9188,449.4868 138.8708,444.7678 C133.9358,437.1288 128.0608,430.1248 124.1408,421.7828 C123.2178,419.8188 121.5658,417.4038 118.7298,416.9588 C117.4938,416.7648 117.1558,415.8838 117.1758,414.7818 C117.2578,410.3958 114.3118,407.2538 112.9248,403.4718 C112.5008,403.5438 112.0768,403.6158 111.6538,403.6888 C112.3328,407.5138 112.7538,411.4088 113.7538,415.1488 C115.1058,420.2068 118.2548,424.7428 118.1318,430.2588 C118.1188,430.8568 118.4868,431.7508 118.9588,432.0268 C124.9358,435.5218 124.8788,442.6708 128.4918,447.5608 C129.7828,449.3068 130.5558,453.0598 133.0218,451.9148 C135.4168,450.8048 132.4578,447.9898 131.6978,444.8658 C135.8728,447.7188 136.9278,451.3168 138.1638,454.4688 C143.5528,468.2048 152.2128,479.5828 162.6588,489.7628 C163.0058,490.1018 163.3968,490.5408 163.8278,490.6268 C168.7688,491.6048 168.9058,491.5238 171.5108,496.8288 C172.3198,498.4778 172.9678,499.4548 174.7628,498.6928 C179.8738,496.5198 183.9058,499.8758 187.9418,501.6838 C196.8678,505.6788 204.3678,512.3058 213.3798,516.2458 C214.2358,516.6208 215.1018,517.3578 216.5258,516.6088 C214.1408,511.2828 206.9738,510.4998 205.2458,504.4638 C210.0958,509.7018 217.6528,508.6828 223.0328,512.8098 C226.5628,515.5178 229.8988,518.4908 235.5128,517.0978 C239.0548,516.2188 243.1378,518.5518 246.7158,520.3848 C247.8948,520.9888 249.5748,522.3038 250.7328,520.5788 C251.7398,519.0788 250.4258,517.7978 249.4528,516.6458 C249.0468,516.1648 248.6758,515.6558 248.5548,514.7068 C252.8618,516.4408 257.2278,517.8848 261.0368,520.6238 C263.8258,522.6288 263.8498,522.5618 267.3008,520.4718 C267.5998,520.2888 268.1878,520.5248 268.6238,520.6328 C294.3138,527.0598 309.7178,544.9038 320.6648,567.6358 C321.7628,569.9158 322.3568,572.5718 325.1718,568.4588 C326.5448,578.3078 329.1328,587.4498 325.7008,596.9228 C323.1918,603.8508 320.4438,610.4748 314.7178,615.3968 C313.5618,616.3908 312.3178,617.2888 312.0618,618.8818 C310.8678,626.3078 305.1508,629.6888 299.4428,633.0868 C299.1568,633.2568 298.7298,633.3268 298.5828,633.5728 C294.1458,640.9988 285.4858,639.5728 279.0318,642.7648 C277.8108,643.3688 276.0948,643.5398 273.9508,642.0408 C271.3758,640.2408 265.6418,640.1958 263.6858,642.5148 C259.1758,647.8598 253.0018,646.9398 247.7138,647.8068 C243.9268,648.4278 239.5378,648.3308 235.4128,648.3208 C222.1468,648.2858 210.4718,643.7768 199.6198,636.4898 C189.2738,629.5438 178.7528,622.7598 168.7858,615.3808 C159.9668,608.8518 149.0338,604.6268 142.7498,595.0528 C133.2528,580.5788 118.6278,571.4718 106.5248,559.7578 C91.6918,545.4028 76.4898,531.3738 63.9998,514.9508 C49.1218,495.3888 35.9678,474.5218 26.1838,451.9318 C18.6298,434.4888 10.8268,416.9958 7.1888,397.6818 C8.3798,398.6628 9.4648,399.5568 11.0698,400.8788 C11.1238,396.6808 9.6858,393.0918 7.8248,390.8178 C3.0548,384.9898 3.4148,378.0308 2.4208,371.5028 C-0.5742,351.8408 0.1678,331.9648 0.0008,312.1508 C-0.0052,311.5098 0.0188,310.7868 0.8098,310.4788 C3.7818,312.4488 1.3378,315.3468 2.0098,317.5578 C4.5228,325.8258 3.7438,334.3858 4.7878,342.7678 C6.4788,356.3508 7.9278,369.9448 11.1418,383.3308 C12.9528,390.8738 14.8658,398.3848 16.8628,405.8758 C18.3428,411.4278 23.9438,414.9348 24.5138,420.9388 C24.9288,425.3018 26.4538,429.1678 28.9868,432.6918 C30.4298,432.0548 30.3738,431.0308 29.9538,430.0888 C25.0398,419.0708 23.1038,407.2198 20.3038,395.6148 C18.7508,389.1728 15.7628,383.2538 14.1948,376.7558 C11.0518,363.7258 9.0058,350.6988 8.4458,337.2598 C7.6628,318.4528 9.5328,299.7478 9.4958,280.9858 C9.4898,277.3588 10.0498,273.6438 10.9468,270.1218 C12.3078,264.7768 13.4858,259.4088 13.3838,253.9148 C13.3148,250.2118 15.8858,247.8268 17.1338,244.8328 C19.7338,238.5978 19.8208,231.8808 21.7058,225.5528 C22.7858,221.9248 23.5848,218.5558 26.3058,215.1678 C29.7758,210.8478 33.2068,205.2188 30.9498,198.4658 C30.3658,196.7188 31.3488,194.1928 32.1788,192.2688 C38.4208,177.8088 42.3148,162.4088 49.7618,148.4378 C51.2208,145.6998 50.0428,141.4938 54.4268,140.1758 C55.6178,143.3438 53.9828,146.5828 52.9538,148.6708 C49.8878,154.8928 48.5988,161.9978 43.9548,167.4698 C43.0218,168.5688 42.4648,170.2018 43.1998,171.6808 C43.5108,172.3038 44.4808,172.9748 45.1498,172.9728 C46.9738,172.9688 46.8128,171.1748 47.2588,170.0308 C51.0498,160.3058 54.6628,150.5048 59.9128,141.4258 C60.7158,140.0368 61.5748,138.6808 62.8318,137.4538 C62.9448,142.0918 62.1358,146.5228 60.3968,150.7408 C58.5118,155.3128 56.5088,159.8418 54.3878,164.3078 C52.3598,168.5798 56.7108,172.2568 55.4568,176.6078 C60.0428,170.8188 62.8368,164.1618 65.8708,157.4868 C68.4258,163.1278 62.0378,167.5158 63.7558,173.9768 C67.2188,167.2398 71.7748,162.5148 76.8718,158.3228 C77.2658,158.5938 77.6588,158.8658 78.0528,159.1368 C74.0998,169.5998 69.9328,179.9878 66.2478,190.5428 C61.6128,203.8208 57.0978,217.1548 53.1118,230.6358 C51.7238,235.3258 52.0518,240.5268 51.6318,245.4978 C51.5638,246.3028 51.5278,247.3068 52.6528,247.4148 C53.7008,247.5148 53.9328,246.5678 54.1878,245.7868 C57.2738,236.3188 60.5458,226.9058 63.3818,217.3628 C66.3898,207.2428 69.9068,197.3538 74.4208,186.9688 C76.5608,190.9318 72.4728,193.5178 74.4098,197.4488 C77.1888,191.3978 79.6828,185.9648 82.1778,180.5318 C83.5918,184.3688 84.0008,187.7278 81.9108,191.1298 C77.0048,199.1178 76.9128,208.3618 75.5518,217.3448 C79.1908,207.0678 82.6958,196.8078 89.1368,187.5508 C89.9968,189.6648 86.5638,191.3388 89.6058,193.4178 C94.0348,184.7728 97.9078,175.8598 102.9748,167.6868 C108.5698,158.6608 113.2638,149.0728 119.6568,140.5388 C120.7518,139.0768 121.7938,136.8738 123.8818,138.3308 C126.3738,140.0708 123.7928,141.5058 122.8478,142.7538 C118.0468,149.0928 114.6658,156.3438 110.2088,162.8238 C104.4068,171.2608 100.6428,180.4278 97.3918,189.9338 C96.5558,192.3768 94.5018,195.6468 99.6798,195.9698 C95.3158,201.9868 94.6828,209.3978 92.1728,216.1078 C91.8818,216.8848 91.8928,217.8418 92.9438,218.1318 C93.9168,218.3998 94.3478,217.5928 94.8478,216.9238 C99.0838,211.2618 98.8638,204.2358 100.6898,197.8398 C100.9318,196.9918 100.3338,196.2818 99.4358,195.9838 L99.4358,195.9838 Z" id="Fill-1" fill="#000000" mask="url(#mask-2)"></path>
            </g>
            <path d="M508.1856,548.699 C518.7166,536.444 528.2106,524.508 535.9466,511.384 C547.0566,492.534 558.5946,473.71 563.8106,452.185 C571.3566,421.044 575.1916,389.509 572.1226,357.325 C570.5436,340.762 568.7466,324.289 564.8536,308.092 C564.4656,306.48 564.4016,304.805 565.3916,301.921 C567.4026,310.906 569.2056,318.77 570.8946,326.659 C571.2326,328.237 570.6776,330.244 573.4186,329.837 C575.0136,329.6 576.1786,330.215 576.0026,331.942 C575.8186,333.767 576.6066,336.449 574.1086,336.939 C572.3116,337.291 571.8356,337.636 572.1196,339.332 C573.6026,348.199 575.9966,357.053 576.1786,365.95 C576.3126,372.491 578.1696,378.746 576.8016,385.863 C575.2876,393.736 573.0646,402.356 575.3716,410.974 C576.0186,413.393 573.6176,416.524 572.9816,419.409 C570.5976,430.214 569.5246,441.219 566.5006,451.986 C563.5236,462.592 561.3496,473.458 555.8576,483.039 C552.3296,489.194 549.7346,495.779 546.4236,502.016 C539.1796,515.662 528.9086,527.187 521.3336,540.528 C520.3916,542.187 520.0286,547.308 515.4736,543.945 C515.3306,543.84 514.1426,545.176 513.4226,545.818 C512.1746,546.932 511.5676,549.01 508.1856,548.699" id="Fill-4" fill="#000000"></path>
            <path d="M401.4757,24.5911 C389.5367,25.0611 377.7597,24.1091 365.9887,25.3421 C364.2027,25.5291 362.5017,25.5171 360.6897,26.1991 C358.8077,26.9071 355.5767,27.9321 356.0977,23.5311 C356.1927,22.7261 355.5407,22.3001 354.8477,22.3951 C354.2527,22.4761 353.2047,22.9191 353.2117,23.1771 C353.3557,27.9981 349.5097,26.3981 347.1617,26.8301 C344.7347,27.2771 342.2017,27.0651 339.8927,28.2441 C339.1507,28.6231 338.1767,28.6511 337.8377,27.6351 C337.5057,26.6361 338.3227,26.2591 339.0797,25.8291 C347.7857,20.8841 357.0717,18.1091 366.9177,15.9731 C372.8087,14.6951 378.4407,14.1051 384.3197,13.9571 C388.6387,13.8471 392.4227,15.3991 396.2757,16.9891 C397.6527,17.5571 398.3967,18.2771 397.4847,19.5081 C394.4707,23.5761 397.3187,23.7551 400.2917,23.9941 C400.7007,24.0271 401.0817,24.3841 401.4757,24.5911" id="Fill-6" fill="#000000"></path>
            <path d="M124.3663,147.8762 C125.7903,145.8062 127.2143,143.7372 128.6373,141.6682 C122.5973,144.9822 119.2373,150.9122 114.3473,155.3242 C113.1323,153.7682 114.4453,152.9712 115.0343,152.1412 C119.3143,146.1052 123.4783,140.1172 129.7133,135.6272 C137.8973,129.7352 143.4863,121.0962 150.5493,113.9752 C151.9603,112.5522 153.3013,111.3102 155.0473,110.2442 C158.2243,108.3022 161.4763,106.4572 163.2883,102.6752 C165.5663,97.9192 170.5473,95.9462 174.8583,93.5282 C184.9483,87.8722 194.6333,81.6262 204.0973,74.9802 C206.6113,73.2152 210.0223,72.7292 213.4633,72.5082 C207.6513,76.1382 201.8853,79.8452 196.0163,83.3812 C187.0533,88.7832 177.4153,93.6902 170.6603,101.5892 C165.5773,107.5322 160.3543,113.1412 154.4523,118.1522 C145.0863,126.1062 136.4753,134.7312 129.1963,144.6722 C128.1043,146.1632 126.3073,147.1392 124.8363,148.3542 L124.3663,147.8762 Z" id="Fill-8" fill="#000000"></path>
            <path d="M387.9083,34.4236 C382.2123,39.7056 375.4423,39.0006 368.8413,39.0716 C366.5233,39.0966 364.2063,39.2386 361.8883,39.3166 C361.2373,39.3376 360.0183,39.3726 360.0123,39.3066 C359.2073,31.1456 354.6013,38.9856 351.9943,37.6056 C351.1633,37.1666 350.3353,43.1646 347.0153,40.2636 C344.4823,38.0496 341.8523,38.6876 338.7363,38.6576 C345.1963,34.6086 382.5933,31.4196 387.9083,34.4236" id="Fill-10" fill="#000000"></path>
            <path d="M113.0011,134.7522 C112.3211,132.8192 114.4441,128.7182 109.6491,128.8682 C110.5561,126.4492 111.2321,123.9062 112.4491,121.6542 C113.2911,120.0982 114.7121,118.7072 116.1821,117.6832 C117.5071,116.7592 120.2351,112.3002 120.1661,118.5822 C120.1581,119.2732 120.5611,119.9972 121.3301,119.9222 C122.6121,119.7972 123.4221,118.9732 123.6371,117.6732 C124.3261,113.5082 127.1991,111.2452 131.3651,108.7552 C124.5441,117.7362 124.8061,130.3182 113.0011,134.7522" id="Fill-12" fill="#000000"></path>
            <path d="M297.5738,57.3371 C316.6098,49.5651 336.0698,43.8851 356.9308,45.1261 C336.4798,45.9101 317.2788,52.8661 297.5738,57.3371" id="Fill-14" fill="#000000"></path>
            <path d="M583.3057,339.4656 C585.9627,348.9176 583.5457,358.7146 585.7547,368.1926 C585.8677,368.6726 585.9067,369.1786 585.9097,369.6736 C585.9167,371.1426 586.1847,373.2016 584.2767,373.2346 C582.6077,373.2636 583.0337,371.2386 582.9577,369.9936 C582.3337,359.7556 581.9707,349.4986 580.5897,339.3166 C580.4097,337.9826 579.6917,335.8266 581.9427,335.8666 C583.6447,335.8966 583.7547,337.9126 583.3057,339.4656" id="Fill-16" fill="#000000"></path>
            <path d="M277.4991,42.156 C284.1661,36.533 301.3421,31.833 310.3021,33.19 C298.3871,35.254 288.0611,39.156 277.4991,42.156" id="Fill-18" fill="#000000"></path>
            <path d="M322.1251,28.5754 C322.7471,28.5754 323.5091,28.8084 323.9651,28.5334 C325.5741,27.5644 327.4581,26.9504 328.0591,29.1054 C328.7121,31.4494 326.3641,32.2504 324.6111,32.3744 C321.4941,32.5934 318.3841,32.3174 315.4021,33.7494 C314.6481,34.1124 312.7091,34.1644 312.6681,32.5574 C312.6191,30.6234 313.6571,28.5924 315.7791,28.7854 C317.9751,28.9854 319.9991,28.1214 322.1251,28.5754" id="Fill-20" fill="#000000"></path>
            <path d="M374.3878,8.3625 C370.1868,13.0935 364.4238,10.8095 359.5188,12.2805 C359.2998,12.3465 358.6138,11.7215 358.5778,11.3735 C358.4538,10.1715 359.3918,9.5935 360.3288,9.2875 C364.9088,7.7905 369.6568,8.7425 374.3878,8.3625" id="Fill-22" fill="#000000"></path>
            <path d="M132.4737,162.0588 C137.8637,157.1158 139.9417,149.2388 147.2717,146.0188 C142.2857,151.3338 139.4947,158.5138 132.4737,162.0588" id="Fill-24" fill="#000000"></path>
            <path d="M107.4244,168.0178 C102.6134,173.8088 100.1594,181.1348 94.6774,186.7938 C95.2424,181.7748 101.2044,172.6188 107.4244,168.0178" id="Fill-26" fill="#000000"></path>
            <path d="M511.1485,551.8982 C505.0865,555.8942 501.7365,563.2852 494.2035,565.3452 C500.0575,561.0762 503.7895,554.2152 511.1485,551.8982" id="Fill-28" fill="#000000"></path>
            <path d="M446.3116,611.366 C451.1936,606.366 456.3486,601.701 463.4496,600.053 C458.6236,605.129 452.2086,607.838 446.3116,611.366" id="Fill-30" fill="#000000"></path>
            <path d="M556.2901,277.5891 C560.8111,283.4551 562.9551,289.9751 564.1831,296.7961 C563.7081,296.9571 563.2341,297.1181 562.7601,297.2791 C560.6031,290.7151 558.4461,284.1521 556.2901,277.5891" id="Fill-32" fill="#000000"></path>
            <path d="M483.6202,579.2898 C485.2722,574.6428 488.3872,572.2608 496.9252,569.1168 C495.3342,572.8268 495.0292,573.0598 483.6202,579.2898" id="Fill-34" fill="#000000"></path>
            <path d="M259.2481,144.2297 C257.5041,144.0147 257.8621,142.9617 257.9471,141.9747 C258.0941,140.2617 259.7501,137.7297 260.1541,138.2927 C263.1021,142.4057 264.0481,137.8417 265.7601,137.2277 C266.9301,136.8077 267.6931,135.2627 269.2321,135.8397 C269.5561,135.9617 269.9031,136.6307 269.8631,137.0087 C269.6871,138.6847 268.2291,138.8757 266.9841,139.2827 C264.8921,139.9677 263.2491,141.3587 261.5641,142.6977 C260.7981,143.3067 259.9281,143.7857 259.2481,144.2297" id="Fill-36" fill="#000000"></path>
            <path d="M410.7882,669.8669 C405.3052,672.5179 401.4712,675.1469 396.4912,675.1859 C399.6772,670.4389 404.4522,670.0729 410.7882,669.8669" id="Fill-38" fill="#000000"></path>
            <path d="M179.2984,115.0456 C177.5704,121.2646 171.9084,124.0656 167.4854,127.9366 C170.3414,122.7046 175.3324,119.3566 179.3844,115.1786 L179.2984,115.0456 Z" id="Fill-40" fill="#000000"></path>
            <path d="M353.9474,53.2424 C347.7874,54.2574 341.6114,54.3314 335.5474,55.5684 C341.5284,53.2514 347.7194,52.7214 353.9474,53.2424" id="Fill-42" fill="#000000"></path>
            <path d="M566.2725,96.8362 C560.4295,95.6092 557.5265,92.3822 554.4625,89.4112 C558.8295,90.2972 562.4465,92.3812 566.2725,96.8362" id="Fill-44" fill="#000000"></path>
            <path d="M550.044,260.4587 C547.842,255.9917 545.64,251.5237 542.974,246.1167 C549.025,249.7427 549.015,255.3777 550.044,260.4587" id="Fill-46" fill="#000000"></path>
            <path d="M133.4708,186.1858 C131.4678,188.9468 129.1678,191.3268 127.8778,194.3738 C127.5628,195.1168 126.8348,195.8528 125.9608,195.3108 C125.6278,195.1028 125.4778,193.9398 125.7418,193.5358 C127.6788,190.5648 127.8948,185.7988 133.4708,186.1858" id="Fill-48" fill="#000000"></path>
            <path d="M179.3844,115.1785 C182.2804,113.0785 184.5994,109.9915 188.9534,109.1405 C185.2834,115.8985 183.3854,116.9795 179.3074,115.0595 C179.2984,115.0455 179.3844,115.1785 179.3844,115.1785" id="Fill-50" fill="#000000"></path>
            <path d="M163.0401,472.949 C160.7061,470.046 157.5131,467.648 157.4151,463.469 C159.8421,466.304 163.2421,468.523 163.0401,472.949" id="Fill-52" fill="#000000"></path>
            <path d="M93.6153,237.0408 C94.1233,232.5028 96.5323,228.8858 99.3263,225.4558 C98.9693,230.0668 96.3413,233.5778 93.6153,237.0408" id="Fill-54" fill="#000000"></path>
            <path d="M88.5479,219.3474 C86.6159,223.1724 84.6849,226.9964 82.1269,232.0644 C81.7239,225.5994 85.5799,222.6594 88.5479,219.3474" id="Fill-56" fill="#000000"></path>
            <g id="Group-60" transform="translate(373.000000, 0.489000)">
                <mask id="mask-4" fill="white">
                    <use xlink:href="#path-3"></use>
                </mask>
                <g id="Clip-59"></g>
                <path d="M0.4854,2.313 C4.2094,1.357 7.7964,-0.142 11.7474,0.821 C8.2094,2.666 4.4194,3.107 0.4854,2.313" id="Fill-58" fill="#000000" mask="url(#mask-4)"></path>
            </g>
            <path d="M471.1183,590.0857 C469.0113,592.8657 464.5773,595.8687 460.4413,597.3177 C465.2593,591.8897 466.6773,590.9297 471.1183,590.0857" id="Fill-61" fill="#000000"></path>
            <path d="M178.0406,500.2439 C180.9026,503.8339 183.7646,507.4239 185.8556,510.0459 C183.0826,508.2229 180.0706,504.7909 177.1326,501.2769 C177.4356,500.9329 177.7376,500.5889 178.0406,500.2439" id="Fill-63" fill="#000000"></path>
            <path d="M7.6715,325.2322 C6.1675,322.8732 8.1905,321.0882 8.5775,319.2392 C9.0975,316.7552 6.2285,315.9042 6.3625,313.5562 C10.7505,316.8002 11.0475,319.6352 7.6715,325.2322" id="Fill-65" fill="#000000"></path>
            <path d="M551.1241,264.3235 C554.7311,268.0325 556.4041,270.8985 555.9331,275.2985 C552.8311,272.3335 552.5951,268.8545 551.1241,264.3235" id="Fill-67" fill="#000000"></path>
            <path d="M583.3702,401.1179 C581.9712,398.1599 582.8952,395.3329 583.4742,391.7389 C586.7122,395.4189 584.2062,398.2529 583.3702,401.1179" id="Fill-69" fill="#000000"></path>
            <path d="M219.7672,141.5871 C219.7242,140.8761 219.4992,140.2871 219.7022,140.0021 C220.8492,138.3931 220.6232,135.5701 223.4902,135.4711 C224.3742,135.4411 225.3432,136.2531 224.9392,136.9581 C223.8042,138.9451 222.7732,141.2681 219.7672,141.5871" id="Fill-71" fill="#000000"></path>
        </g>
    </g>
</svg>