<?xml version="1.0" encoding="UTF-8"?>
<svg width="130px" height="129px" viewBox="0 0 130 129" version="1.1" xmlns="http://www.w3.org/2000/svg" xmlns:xlink="http://www.w3.org/1999/xlink">
    <!-- Generator: Sketch 43.2 (39069) - http://www.bohemiancoding.com/sketch -->
    <title>Page 1</title>
    <desc>Created with Sketch.</desc>
    <defs></defs>
    <g id="Flow" stroke="none" stroke-width="1" fill="none" fill-rule="evenodd">
        <g id="Main-desktop-empty" transform="translate(-1123.000000, -94.000000)" stroke="#000000" stroke-width="2">
            <g id="Page-1" transform="translate(1124.000000, 95.000000)">
                <path d="M19.78,59.2290755 C19.78,64.0483284 17.495,67.4677983 13.65,67.4677983 C9.8,67.4677983 6.675,64.0483284 6.675,59.2290755 C6.675,54.4048233 8.805,50.3204565 12.65,50.3204565 C16.5,50.3204565 19.8,54.4048233 19.8,59.2290755 L19.78,59.2290755 Z" id="Stroke-1"></path>
                <path d="M41.42,58.0742545 C41.42,63.3684338 38.94,67.1178525 34.78,67.1178525 C30.6,67.1178525 27.225,63.3684338 27.225,58.0742545 C27.225,52.7800752 29.525,48.3107681 33.69,48.3107681 C37.865,48.3107681 41.42,52.7800752 41.42,58.0742545 Z" id="Stroke-2"></path>
                <path d="M19.995,56.9594273 C22.44,59.1090941 25.525,58.1142483 27.01,57.4493514" id="Stroke-3"></path>
                <path d="M42.01,56.9794242 C42.01,56.9794242 59.625,51.9402054 67.73,47.8408409 C71.715,45.8261532 78.825,40.3420034 78.825,40.3420034 L83.55,37.9973669" id="Stroke-4"></path>
                <path d="M78.51,80.4957786 L75.68,71.5921589 C89.08,64.1883067 98.725,42.6616438 84.175,36.9225335 C80.25,-15.4393491 9.35,-9.72023572 4.625,39.732098 L4.625,52.6250993 C4.625,52.6250993 7.185,57.9392754 7.455,60.8288275 C7.71,63.5834005 6.285,69.0325557 6.285,69.0325557 C8.59,75.7515141 11.715,81.6106058 15.62,87.214737 C16.635,88.6595131 17.69,90.0842922 18.805,91.5140705 C24.705,109.226325 38.805,99.1278902 45.955,90.5742162" id="Stroke-5"></path>
                <path d="M80.19,47.8608378 C87.79,49.9105201 86.13,56.2395389 77.555,58.329215" id="Stroke-6"></path>
                <path d="M0.64,118.134944 C5.465,105.571891 14.725,102.507366 21.285,100.282711 C21.54,112.29085 16.715,119.419744 18.1,127.838439" id="Stroke-7"></path>
                <path d="M59.37,123.814063 C66.305,116.920132 73.295,110.106188 78.06,100.632657" id="Stroke-8"></path>
                <path d="M72.4,108.581425 C72.38,102.877309 73.885,95.8284017 77.4,89.6943526 L77.73,86.7048161 L79.74,85.3800215 L91.42,124.793911" id="Stroke-9"></path>
                <path d="M78.57,76.9413297 C94.605,81.8455694 96.81,96.9432289 103.435,109.246322" id="Stroke-10"></path>
                <path d="M88.59,80.925712 C102.32,80.9657058 120.99,93.1738132 127.65,104.012133" id="Stroke-11"></path>
            </g>
        </g>
    </g>
</svg>