<?xml version="1.0" encoding="UTF-8"?>
<svg width="131px" height="110px" viewBox="0 0 131 110" version="1.1" xmlns="http://www.w3.org/2000/svg" xmlns:xlink="http://www.w3.org/1999/xlink">
    <!-- Generator: Sketch 43.2 (39069) - http://www.bohemiancoding.com/sketch -->
    <title>location-unknown</title>
    <desc>Created with Sketch.</desc>
    <defs></defs>
    <g id="Page-1" stroke="none" stroke-width="1" fill="none" fill-rule="evenodd">
        <g id="location-unknown" transform="translate(1.000000, 1.000000)" fill="#000000">
            <path d="M102.648649,55.6743871 C102.065405,55.6743871 101.626216,55.3790323 101.331081,54.9395161 C100.891892,54.2046452 101.035946,53.1814516 101.77027,52.7419355 C102.648649,52.1582581 103.087838,51.8629032 103.087838,51.8629032 C103.822162,51.4233871 104.844595,51.5675484 105.283784,52.3024194 C105.722973,53.0372903 105.578919,54.0604839 104.844595,54.5 C104.844595,54.5 104.405405,54.7953548 103.527027,55.3790323 C103.231892,55.5231935 102.943784,55.6743871 102.648649,55.6743871 Z" id="Fill-3" fill-rule="nonzero"></path>
            <path d="M66.6351351,69.8830645 C65.7567568,69.8830645 65.0224324,69.1481935 65.0224324,68.2691613 C65.0224324,67.390129 65.7567568,66.6552581 66.6351351,66.6552581 C67.5135135,66.6552581 68.5359459,66.6552581 69.5654054,66.5110968 C70.4437838,66.3669355 71.1781081,66.9506129 71.3221622,67.8296452 C71.4662162,68.7086774 70.882973,69.4435484 70.0045946,69.5877097 C68.8310811,69.8830645 67.6575676,69.8830645 66.6351351,69.8830645 Z M61.9481081,69.5877097 L61.652973,69.5877097 C60.6305405,69.4435484 59.6010811,69.2923548 58.4345946,69.0040323 C57.5562162,68.859871 57.117027,67.9808387 57.2610811,67.1018065 C57.4051351,66.2227742 58.2835135,65.7832581 59.1618919,65.9274194 C60.1843243,66.0715806 61.2137838,66.3669355 62.0921622,66.5110968 C62.9705405,66.6552581 63.5537838,67.390129 63.4097297,68.2691613 C63.4167568,69.0040323 62.6824324,69.5877097 61.9481081,69.5877097 Z M74.3964865,68.859871 C73.6621622,68.859871 73.0789189,68.4203548 72.9348649,67.6854839 C72.7908108,66.8064516 73.23,65.9274194 74.1083784,65.7832581 C75.1308108,65.4879032 76.0091892,65.1995806 77.0386486,64.9042258 C77.917027,64.608871 78.7954054,65.0483871 78.9394595,65.9274194 C79.2345946,66.8064516 78.7954054,67.6854839 77.917027,67.8296452 C76.8945946,68.125 75.8651351,68.4133226 74.8427027,68.7086774 C74.6845946,68.859871 74.5405405,68.859871 74.3964865,68.859871 Z M54.3378378,67.8296452 L53.8986486,67.8296452 C52.8762162,67.5342903 51.8467568,67.2459677 50.8243243,66.9506129 C49.9459459,66.6552581 49.5067568,65.7762258 49.8018919,65.0483871 C50.097027,64.1693548 50.9754054,63.7298387 51.7027027,64.0251935 C52.7251351,64.3205484 53.6035135,64.608871 54.632973,64.9042258 C55.5113514,65.1995806 55.9505405,66.0786129 55.6554054,66.8064516 C55.6554054,67.390129 54.9210811,67.8296452 54.3378378,67.8296452 Z M81.8627027,66.5110968 C81.2794595,66.5110968 80.6891892,66.0715806 80.4010811,65.4879032 C80.1059459,64.7530323 80.5451351,63.7298387 81.2794595,63.4344839 C82.3018919,62.9949677 83.1802703,62.6996129 84.0586486,62.2600968 C84.792973,61.9647419 85.8154054,62.2600968 86.1105405,63.139129 C86.4056757,63.874 86.1105405,64.8971935 85.2321622,65.1925484 C84.2097297,65.6320645 83.3313514,66.0715806 82.3018919,66.3669355 C82.1508108,66.5110968 82.0067568,66.5110968 81.8627027,66.5110968 Z M46.8716216,65.4879032 C46.7275676,65.4879032 46.5764865,65.4879032 46.2883784,65.3437419 C45.2659459,65.0483871 44.2364865,64.608871 43.3581081,64.3205484 C42.4797297,64.0251935 42.1845946,63.1461613 42.4797297,62.267129 C42.7748649,61.3880968 43.6532432,61.0927419 44.5316216,61.3880968 C45.5540541,61.6834516 46.4324324,62.1229677 47.4618919,62.4112903 C48.3402703,62.7066452 48.6354054,63.5856774 48.3402703,64.4647097 C48.0451351,65.0483871 47.4548649,65.4879032 46.8716216,65.4879032 Z M89.0337838,63.2903226 C88.4505405,63.2903226 87.8602703,62.9949677 87.5721622,62.4112903 C87.132973,61.6764194 87.5721622,60.6532258 88.3064865,60.357871 C89.1848649,59.9183548 90.2072973,59.4788387 91.0856757,58.8951613 C91.82,58.4556452 92.8424324,58.751 93.1375676,59.6300323 C93.5767568,60.3649032 93.2816216,61.3880968 92.4032432,61.6834516 C91.5248649,62.1229677 90.5024324,62.7066452 89.6240541,63.1461613 C89.472973,63.2903226 89.3289189,63.2903226 89.0337838,63.2903226 Z M6.76135135,63.2903226 C6.32216216,63.2903226 5.73891892,62.9949677 5.44378378,62.5554516 C5.00459459,61.8205806 5.14864865,60.7973871 5.88297297,60.357871 C6.76135135,59.7741935 7.78378378,59.1834839 8.66216216,58.5998065 C9.39648649,58.1602903 10.4189189,58.4556452 10.8581081,59.1834839 C11.2972973,59.9183548 11.0021622,60.9415484 10.2748649,61.3810645 C9.39648649,61.8205806 8.51810811,62.4042581 7.78378378,62.9949677 C7.34459459,63.1461613 7.04945946,63.2903226 6.76135135,63.2903226 Z M39.4054054,62.7066452 C39.2613514,62.7066452 39.1102703,62.7066452 38.8221622,62.5624839 C37.7997297,62.1229677 36.9213514,61.8276129 35.8918919,61.5392903 C35.0135135,61.2439355 34.7183784,60.3649032 35.0135135,59.485871 C35.3086486,58.6068387 36.187027,58.3114839 37.0654054,58.6068387 C38.0878378,58.9021935 38.9662162,59.3417097 39.9956757,59.6300323 C40.8740541,59.9253871 41.1691892,60.8044194 40.8740541,61.6834516 C40.722973,62.4112903 40.1397297,62.7066452 39.4054054,62.7066452 Z M32.0832432,60.0695484 C31.9391892,60.0695484 31.7881081,60.0695484 31.6440541,59.9253871 C30.6216216,59.6300323 29.5921622,59.3417097 28.7137838,59.0463548 C27.8354054,58.751 27.3962162,58.0231613 27.6913514,57.144129 C27.9864865,56.2650968 28.7137838,55.8255806 29.5921622,56.1209355 C30.6145946,56.4162903 31.6440541,56.7046129 32.6664865,56.9999677 C33.5448649,57.2953226 33.9840541,58.1743548 33.6889189,58.9021935 C33.2567568,59.7741935 32.6735135,60.0695484 32.0832432,60.0695484 Z M95.9167568,59.6300323 C95.3335135,59.6300323 94.8943243,59.3346774 94.5991892,58.8951613 C94.16,58.1602903 94.4551351,57.1370968 95.1824324,56.6975806 C96.2048649,56.1139032 97.0832432,55.6743871 97.8175676,55.0836774 C98.5518919,54.6441613 99.5743243,54.9395161 100.013514,55.6673548 C100.452703,56.4022258 100.157568,57.4254194 99.4302703,57.8649355 C98.5518919,58.3044516 97.6735135,58.888129 96.6510811,59.4788387 C96.5,59.6300323 96.2048649,59.6300323 95.9167568,59.6300323 Z M13.6372973,59.6300323 C13.0540541,59.6300323 12.4637838,59.1905161 12.1756757,58.6068387 C11.8805405,57.7278065 12.3197297,56.8487742 13.0540541,56.5534194 C14.0764865,56.1139032 15.25,55.8185484 16.2724324,55.5302258 C17.1508108,55.3860645 18.0291892,55.8255806 18.1732432,56.7046129 C18.3172973,57.5836452 17.8781081,58.3185161 16.9997297,58.6068387 C16.1213514,58.9021935 15.0989189,59.1905161 14.2205405,59.485871 C14.0764865,59.4788387 13.9324324,59.6300323 13.6372973,59.6300323 Z M24.472973,58.1602903 L24.1778378,58.1602903 C23.2994595,58.016129 22.4210811,58.016129 21.5427027,58.016129 L21.2475676,58.016129 C20.3691892,58.016129 19.6348649,57.2812581 19.6348649,56.5534194 C19.6348649,55.6743871 20.3691892,54.9395161 21.0964865,54.9395161 L21.3916216,54.9395161 L21.3916216,54.9395161 C22.27,54.9395161 23.2924324,55.0836774 24.4659459,55.234871 C25.3443243,55.3790323 25.9275676,56.1139032 25.7835135,56.9929355 C25.9345946,57.7207742 25.2072973,58.1602903 24.472973,58.1602903 Z" id="Fill-4" fill-rule="nonzero"></path>
            <path d="M1.34,64.0251935 C1.48405405,63.8810323 1.77918919,63.5856774 2.07432432,63.4415161 C2.65756757,62.8578387 3.68702703,63.002 4.27027027,63.5856774 C4.85351351,64.1693548 4.70945946,65.1995806 4.12621622,65.7832581 C3.39189189,66.3669355 3.10378378,66.8064516 3.10378378,66.8064516 C2.80864865,67.1018065 2.36945946,67.2459677 1.93027027,67.2459677 L1.49108108,67.2459677" id="Fill-5" fill-rule="nonzero"></path>
            <path d="M88.2994595,0.14416129 L87.5651351,0 L42.3356757,0 L41.6013514,0.14416129 L0.461621622,12.1622903 L0.461621622,107.393129 L43.3581081,94.9425161 L86.6937838,94.9425161 L128.855946,107.248968 L128.855946,12.018129 L88.2994595,0.14416129 Z M2.07432432,13.4808387 L41.6013514,1.90925806 L41.6013514,93.768129 L2.07432432,105.33971 L2.07432432,13.4808387 Z M43.2140541,93.1774194 L43.2140541,1.61390323 L86.5497297,1.61390323 L86.5497297,93.1774194 L43.2140541,93.1774194 Z M127.099189,105.044355 L88.2994595,93.6169355 L88.2994595,1.90222581 L127.243243,13.1854839 L127.243243,105.044355 L127.099189,105.044355 Z" id="Fill-6" stroke="#000000" stroke-width="2" fill-rule="nonzero"></path>
            <g id="Group" transform="translate(96.000000, 16.000000)">
                <path d="M9.5,33.164 L8.5,31.164 C7.664,29.5 0.164,14.664 0.164,10 C0.164,4.836 4.328,0.664 9.5,0.664 C14.664,0.664 18.836,4.828 18.836,10 C18.836,14.664 11.336,29.5 10.5,31.164 L9.5,33.164 Z M9.5,3 C5.664,3 2.5,6.164 2.5,10 C2.5,13 7,22.836 9.5,28.164 C12.164,22.828 16.5,13.164 16.5,10 C16.5,6.164 13.336,3 9.5,3 Z" id="Fill-1"></path>
                <path d="M12.836,10.336 C12.836,14.782 6.164,14.782 6.164,10.336 C6.164,5.89 12.836,5.89 12.836,10.336" id="Fill-2"></path>
            </g>
        </g>
    </g>
</svg>