<?xml version="1.0" encoding="UTF-8"?>
<svg width="147px" height="147px" viewBox="0 0 147 147" version="1.1" xmlns="http://www.w3.org/2000/svg" xmlns:xlink="http://www.w3.org/1999/xlink">
    <!-- Generator: Sketch 43.2 (39069) - http://www.bohemiancoding.com/sketch -->
    <title>Page 1</title>
    <desc>Created with Sketch.</desc>
    <defs></defs>
    <g id="Flow" stroke="none" stroke-width="1" fill="none" fill-rule="evenodd">
        <path d="M41.376,56.804 C41.376,56.624 41.368,56.454 41.368,56.274 L91.54,106.446 C91.57,106.812 91.782,107.102 91.922,107.438 C92.164,108.04 92.406,108.446 92.468,108.562 C92.726,109.062 92.984,109.86 92.946,111.118 C93.25,111.578 93.718,112.29 94.296,113.148 C96.36,116.218 97.218,117.398 98.102,118.734 C98.594,119.476 99.196,120.43 99.852,121.554 C91.868,126.07 82.89,128.454 73.5,128.454 C53.5,128.454 35.976,117.71 26.36,101.704 C26.868,101.086 27.414,100.422 28.032,99.664 C29.546,97.812 30.906,96.438 32.718,94.516 C34.312,92.82 35.914,90.898 38.21,90.29 C38.46,89.36 41.344,86.938 41.39,86.898 C40.992,86.602 40.446,86.11 39.976,85.368 C39.336,84.344 39.196,83.352 39.124,82.79 C38.632,78.438 39.14,75.266 39.14,75.266 C39.148,75.282 41.282,61.274 41.376,56.804 Z M112.148,89.726 C112.546,88.476 112.344,87.218 112.046,85.968 C111.758,84.734 111.282,83.492 110.414,82.54 C110.422,82.476 109.516,81.696 109.14,81.446 C109.406,81.414 109.696,81.376 109.984,81.32 C110.124,81.304 110.274,81.282 110.414,81.258 C110.688,81.21 110.914,81.102 111.102,80.968 C111.664,80.718 112.14,80.336 112.242,79.688 C112.312,79.234 112.18,78.718 111.75,78.508 C111.696,78.414 111.64,78.32 111.578,78.234 C111.602,78.21 111.618,78.196 111.632,78.172 C111.742,78.094 111.844,78.008 111.938,77.906 C111.976,77.968 112.266,77.672 112.226,77.554 C112.578,77.04 112.782,76.454 112.672,75.828 C112.602,75.406 112.422,75.016 112.25,74.624 C111.688,73.352 111.204,72.086 110.812,70.75 C110.758,70.562 110.696,70.382 110.618,70.204 C111.118,70.61 111.79,70.804 112.758,70.624 C114.11,70.368 115.648,69.39 116.032,67.992 C116.368,66.79 115.868,65.492 115.25,64.46 C113.672,61.82 111.46,59.618 109.898,56.954 C109.796,56.774 109.696,56.594 109.602,56.414 C109.296,55.766 109.624,54.64 109.624,54.554 C109.624,54.468 109.688,54.148 109.704,54.078 C109.742,53.782 109.742,53.438 109.882,53.172 C110.032,52.89 110.234,52.624 110.398,52.352 C110.688,51.844 110.804,51.188 110.984,50.624 C111.132,50.14 111.242,49.688 111.07,49.188 C110.992,48.968 110.882,48.766 110.734,48.594 C110.46,48.258 110.07,48.016 109.648,47.914 C109.54,47.882 108.368,47.79 108.382,47.938 C108.468,49.14 106.04,45.118 106.906,43.734 C107.218,43.226 107.726,43.016 108.046,42.89 C112.046,41.304 114.93,42.242 116.516,40.414 C116.554,40.368 116.734,40.14 116.906,39.844 C116.36,39.14 115.796,38.454 115.218,37.774 C115.218,37.774 115.21,37.774 115.21,37.782 C114.89,37.79 114.578,37.876 114.304,38.046 C114.132,37.82 114.156,37.406 114.148,37.398 C114.102,37.368 114.164,36.54 113.11,36.476 C113.008,36.352 112.906,36.234 112.796,36.124 C112.774,36.102 112.71,35.976 112.718,35.946 C112.75,35.71 111.422,35.664 111.336,35.632 C111.344,35.258 111.282,34.89 111.132,34.562 C111.124,34.36 111.398,33.758 110.726,33.594 C110.204,33.468 108.844,32.906 108.876,32.438 C108.906,31.96 107.516,32.016 107.14,31.226 C107.132,31.14 107.14,31.054 107.188,30.984 C107.446,30.546 104.75,28.804 104.57,28.718 C103.868,28.368 103.14,28.046 102.43,27.71 C101,27.04 99.578,26.368 98.172,25.656 C93.078,22.704 86.89,21.734 81.024,21.578 C78.508,21.508 75.96,21.61 73.46,21.938 C70.71,22.296 68.07,23.312 65.36,23.696 C65.172,23.718 64.992,23.774 64.828,23.852 C64.812,23.86 64.796,23.868 64.79,23.876 C61.882,24.812 58.914,26.062 56.124,27.328 C53.766,28.398 50.976,30.898 48.852,33.18 L109.032,93.36 C110.39,92.508 111.648,91.312 112.148,89.726 Z M147,73.5 C147,93.196 139.36,111.718 125.54,125.54 C111.57,139.36 93.196,147 73.5,147 C53.804,147 35.282,139.36 21.46,125.54 C7.64,111.57 0,93.196 0,73.5 C0,53.804 7.64,35.43 21.46,21.46 C35.43,7.64 53.804,0 73.5,0 C93.196,0 111.57,7.64 125.54,21.46 C139.36,35.43 147,53.804 147,73.5 Z M107.454,119.218 L92.82,104.586 L41.234,52.992 L27.632,39.398 C20.578,48.954 16.312,60.71 16.312,73.5 C16.312,84.492 19.46,94.774 24.882,103.516 C35,119.79 53.032,130.68 73.5,130.68 C83.492,130.68 92.844,128.07 100.946,123.5 C103.218,122.218 105.398,120.796 107.454,119.218 Z M130.68,73.5 C130.68,42.04 104.954,16.32 73.5,16.32 C60.86,16.32 49.242,20.438 39.836,27.344 L119.656,107.164 C126.57,97.758 130.68,85.992 130.68,73.5 Z" id="Page-1" fill="#000000"></path>
    </g>
</svg>