<?xml version="1.0" encoding="UTF-8"?>
<svg width="200px" height="200px" viewBox="0 0 200 200" version="1.1" xmlns="http://www.w3.org/2000/svg" xmlns:xlink="http://www.w3.org/1999/xlink">
    <!-- Generator: Sketch 43.2 (39069) - http://www.bohemiancoding.com/sketch -->
    <title>Combined Shape</title>
    <desc>Created with Sketch.</desc>
    <defs></defs>
    <g id="Branding-+-Previous" stroke="none" stroke-width="1" fill="none" fill-rule="evenodd">
        <g id="Logo-Colour-Copy-2" transform="translate(-90.000000, -90.000000)" fill="#E46300">
            <g id="Group" transform="translate(90.000000, 90.000000)">
                <path d="M100,200 C44.771525,200 0,155.228475 0,100 C0,44.771525 44.771525,0 100,0 C155.228475,0 200,44.771525 200,100 C200,155.228475 155.228475,200 100,200 Z M68.2242991,91.7133956 C69.4704112,100.02081 70.8618822,108.078881 72.3987539,115.88785 C73.9356255,123.69682 75.5347788,130.59187 77.1962617,136.573209 C77.6116324,137.985469 78.0062287,139.14849 78.3800623,140.062305 C78.753896,140.976121 79.1900287,141.744545 79.6884735,142.367601 C80.1869184,142.990657 80.7684287,143.489095 81.4330218,143.862928 C82.097615,144.236762 82.8868075,144.589822 83.8006231,144.922118 C86.2928474,145.75286 89.2003988,146.500516 92.5233645,147.165109 C93.6033283,147.414331 94.4755938,147.518173 95.1401869,147.476636 C95.8047801,147.435098 96.3447539,147.289721 96.7601246,147.040498 C97.1754953,146.791276 97.5285551,146.39668 97.8193146,145.856698 C98.1100741,145.316716 98.463134,144.589828 98.8785047,143.676012 C100.207691,140.768417 101.97299,137.133978 104.174455,132.772586 C106.37592,128.411193 108.785034,123.779879 111.401869,118.878505 C114.018705,113.97713 116.718574,108.992756 119.501558,103.925234 C122.284541,98.8577109 124.922106,94.1640922 127.41433,89.8442368 C126.00207,94.7456112 124.693672,99.8130579 123.489097,105.046729 C122.284521,110.2804 121.183806,115.285542 120.186916,120.062305 C119.190026,124.839069 118.317761,129.200396 117.570093,133.146417 C116.822426,137.092439 116.282452,140.311514 115.950156,142.803738 C115.534785,144.880592 115.638626,146.54205 116.261682,147.788162 C116.884738,149.034274 118.1516,150.114222 120.062305,151.028037 C121.55764,151.858779 123.302171,152.564898 125.29595,153.146417 C127.28973,153.727936 129.241943,154.226374 131.152648,154.641745 C133.312576,155.140189 134.766351,155.057117 135.514019,154.392523 C136.261686,153.72793 136.926269,152.647983 137.507788,151.152648 C138.172381,148.245053 139.086183,144.589845 140.249221,140.186916 C141.412259,135.783986 142.720657,130.965758 144.174455,125.732087 C145.628252,120.498416 147.165101,115.015605 148.785047,109.283489 C150.404993,103.551373 152.024914,97.9024162 153.64486,92.3364486 C155.264806,86.770481 156.863959,81.4538156 158.442368,76.3862928 C160.020776,71.3187701 161.433016,66.8328336 162.679128,62.9283489 C163.592943,60.1869022 163.738321,58.0477751 163.115265,56.5109034 C162.492209,54.9740318 160.976128,53.6240972 158.566978,52.4610592 C154.911716,50.7995763 151.194204,49.3458006 147.41433,48.0996885 C143.634457,46.8535763 140.041554,45.7736287 136.635514,44.8598131 C133.727919,44.0290717 131.339573,43.6967801 129.470405,43.8629283 C127.601237,44.0290766 125.919011,44.7559645 124.423676,46.0436137 C122.928341,47.3312629 121.474566,49.2004031 120.062305,51.6510903 C118.650045,54.1017776 116.988587,57.2377794 115.077882,61.05919 C113.167176,64.3821558 111.194195,67.9127539 109.158879,71.6510903 C107.123562,75.3894268 105.150581,79.1277072 103.239875,82.8660436 C101.32917,86.6043801 99.4807981,90.2595875 97.694704,93.8317757 C95.90861,97.4039639 94.3509931,100.685343 93.0218069,103.676012 C91.6926206,95.1193757 90.6542093,88.390471 89.9065421,83.4890966 C89.1588748,78.5877221 88.5981327,74.8079053 88.2242991,72.1495327 C87.8504654,69.4911601 87.6012467,67.6427882 87.4766355,66.6043614 C87.3520243,65.5659346 87.2897196,64.6729009 87.2897196,63.9252336 C86.9574231,62.3468249 86.6458997,60.9345857 86.3551402,59.6884735 C86.0643807,58.4423614 85.5867115,57.300109 84.9221184,56.2616822 C84.2575252,55.2232555 83.3437234,54.2679171 82.1806854,53.3956386 C81.0176474,52.5233601 79.4392623,51.7133994 77.4454829,50.9657321 C74.2886654,49.8026941 71.1526636,48.8058193 68.0373832,47.9750779 C64.9221028,47.1443364 61.1215178,46.3966804 56.635514,45.7320872 C53.727919,45.3167165 51.5887919,45.4620941 50.2180685,46.1682243 C48.8473452,46.8743545 47.7881657,48.6396536 47.0404984,51.4641745 C46.2928312,55.3686592 45.5244069,59.8753639 44.7352025,64.9844237 C43.9459981,70.0934835 43.1568056,75.51399 42.3676012,81.2461059 C41.5783969,86.9782218 40.851509,92.7933246 40.1869159,98.6915888 C39.5223227,104.589853 38.9200442,110.280346 38.3800623,115.76324 C37.8400804,121.246133 37.4247159,126.334348 37.1339564,131.028037 C36.8431969,135.721726 36.6978193,139.688457 36.6978193,142.928349 C36.531671,145.088277 36.8224262,146.749735 37.5700935,147.912773 C38.3177607,149.075811 39.73,150.155758 41.8068536,151.152648 C43.4683364,151.983389 45.275172,152.710277 47.2274143,153.333333 C49.1796567,153.956389 51.1111016,154.475595 53.0218069,154.890966 C55.0155863,155.306336 56.3862891,155.285568 57.1339564,154.82866 C57.8816237,154.371753 58.4215975,153.395646 58.7538941,151.900312 C59.0861907,148.328123 59.5638598,144.257551 60.1869159,139.688474 C60.809972,135.119396 61.5368598,130.218095 62.3676012,124.984424 C63.1983427,119.750753 64.1121445,114.309478 65.1090343,108.660436 C66.105924,103.011394 67.1443352,97.3624374 68.2242991,91.7133956 Z" id="Combined-Shape"></path>
            </g>
        </g>
    </g>
</svg>