<?xml version="1.0" encoding="UTF-8"?>
<svg width="66px" height="53px" viewBox="0 0 66 53" version="1.1" xmlns="http://www.w3.org/2000/svg" xmlns:xlink="http://www.w3.org/1999/xlink">
    <!-- Generator: Sketch 43.2 (39069) - http://www.bohemiancoding.com/sketch -->
    <title>Page 1</title>
    <desc>Created with Sketch.</desc>
    <defs></defs>
    <g id="Flow" stroke="none" stroke-width="1" fill="none" fill-rule="evenodd">
        <g id="Home-desktop" transform="translate(-211.000000, -594.000000)" fill="#000000">
            <path d="M276.456344,626.211702 L264.409344,636.195702 L252.362344,646.156702 C251.808344,646.621702 250.999344,646.621702 250.441344,646.156702 L238.394344,636.195702 L226.370344,626.211702 C225.894344,625.809702 225.714344,625.152702 225.921344,624.563702 C226.132344,623.973702 226.683344,623.574702 227.308344,623.563702 L240.175344,623.563702 C241.511344,618.195702 241.730344,614.074702 241.089344,611.117702 C240.401344,607.961702 238.901344,606.098702 236.565344,604.930702 C231.898344,602.590702 223.312344,603.555702 212.987344,607.109702 C212.296344,607.344702 211.534344,607.047702 211.187344,606.402702 C210.839344,605.758702 211.007344,604.961702 211.581344,604.508702 C224.855344,594.336702 238.257344,591.801702 248.308344,595.813702 C257.730344,599.574702 263.878344,609.129702 263.941344,622.438702 C263.941344,622.813702 263.925344,623.184702 263.917344,623.563702 L275.499344,623.563702 C275.901344,623.563702 276.292344,623.727702 276.573344,624.020702 C276.858344,624.309702 277.011344,624.703702 276.999344,625.109702 C276.983344,625.535702 276.788344,625.938702 276.456344,626.211702 Z" id="Page-1" transform="translate(244.003429, 620.252726) rotate(-180.000000) translate(-244.003429, -620.252726) "></path>
        </g>
    </g>
</svg>