<?xml version="1.0" encoding="UTF-8"?>
<svg width="314px" height="55px" viewBox="0 0 314 55" version="1.1" xmlns="http://www.w3.org/2000/svg" xmlns:xlink="http://www.w3.org/1999/xlink">
    <!-- Generator: Sketch 40.3 (33839) - http://www.bohemiancoding.com/sketch -->
    <title>Minihero</title>
    <desc>Created with Sketch.</desc>
    <defs></defs>
    <g id="Page-1" stroke="none" stroke-width="1" fill="none" fill-rule="evenodd">
        <g id="Logo-Text" transform="translate(-89.000000, -224.000000)" fill="#E46300">
            <path d="M105.04,247.66 C105.640003,251.66002 106.309996,255.539981 107.05,259.3 C107.790003,263.060019 108.559996,266.379986 109.36,269.26 C109.560001,269.940003 109.749999,270.499998 109.93,270.94 C110.110001,271.380002 110.319998,271.749998 110.56,272.05 C110.800001,272.350001 111.079998,272.589999 111.4,272.77 C111.720001,272.950001 112.099997,273.119999 112.54,273.28 C113.740006,273.680002 115.139992,274.039998 116.74,274.36 C117.260002,274.480001 117.679998,274.53 118,274.51 C118.320001,274.49 118.579999,274.420001 118.78,274.3 C118.980001,274.179999 119.149999,273.990001 119.29,273.73 C119.43,273.469999 119.599999,273.120002 119.8,272.68 C120.440003,271.279993 121.289994,269.53001 122.35,267.43 C123.410005,265.329989 124.569993,263.100012 125.83,260.74 C127.090006,258.379988 128.389993,255.980012 129.73,253.54 C131.070006,251.099988 132.339994,248.84001 133.54,246.76 C132.859996,249.120012 132.230003,251.559987 131.65,254.08 C131.069997,256.600013 130.540002,259.009988 130.06,261.31 C129.579997,263.610011 129.160001,265.70999 128.8,267.61 C128.439998,269.510009 128.18,271.059994 128.02,272.26 C127.819999,273.260005 127.869998,274.059997 128.17,274.66 C128.470001,275.260003 129.079995,275.779998 130,276.22 C130.720003,276.620002 131.559995,276.959999 132.52,277.24 C133.480004,277.520001 134.419995,277.759999 135.34,277.96 C136.380005,278.200001 137.079998,278.160002 137.44,277.84 C137.800001,277.519998 138.119998,277.000004 138.4,276.28 C138.720001,274.879993 139.159997,273.120011 139.72,271 C140.280002,268.879989 140.909996,266.560013 141.61,264.04 C142.310003,261.519987 143.049996,258.880014 143.83,256.12 C144.610004,253.359986 145.389996,250.640013 146.17,247.96 C146.950004,245.279987 147.719996,242.720012 148.48,240.28 C149.240003,237.839988 149.919997,235.680009 150.52,233.8 C150.960002,232.479993 151.030001,231.450004 150.73,230.71 C150.429998,229.969996 149.700005,229.320003 148.54,228.76 C146.779991,227.959996 144.990009,227.260003 143.17,226.66 C141.349991,226.059997 139.620008,225.540002 137.98,225.1 C136.579993,224.699998 135.430004,224.54 134.53,224.62 C133.629995,224.7 132.820003,225.049997 132.1,225.67 C131.379996,226.290003 130.680003,227.189994 130,228.37 C129.319996,229.550006 128.520004,231.059991 127.6,232.9 C126.679995,234.500008 125.730005,236.199991 124.75,238 C123.769995,239.800009 122.820004,241.599991 121.9,243.4 C120.979995,245.200009 120.090004,246.959991 119.23,248.68 C118.369995,250.400009 117.620003,251.979993 116.98,253.42 C116.339996,249.299979 115.840001,246.060012 115.48,243.7 C115.119998,241.339988 114.850001,239.520006 114.67,238.24 C114.489999,236.959994 114.37,236.070002 114.31,235.57 C114.249999,235.069997 114.22,234.640002 114.22,234.28 C114.059999,233.519996 113.91,232.840003 113.77,232.24 C113.629999,231.639997 113.400001,231.090002 113.08,230.59 C112.759998,230.089997 112.320002,229.630002 111.76,229.21 C111.199997,228.789998 110.440004,228.400002 109.48,228.04 C107.959992,227.479997 106.450007,227.000002 104.95,226.6 C103.449992,226.199998 101.62001,225.840002 99.4599997,225.52 C98.0599927,225.319999 97.030003,225.389998 96.3699997,225.73 C95.7099964,226.070002 95.2000015,226.919993 94.8399997,228.28 C94.4799979,230.160009 94.1100016,232.329988 93.7299997,234.79 C93.3499978,237.250012 92.9700016,239.859986 92.5899997,242.62 C92.2099978,245.380014 91.8600013,248.179986 91.5399997,251.02 C91.2199981,253.860014 90.930001,256.599987 90.6699997,259.24 C90.4099984,261.880013 90.2100004,264.329989 90.0699997,266.59 C89.929999,268.850011 89.8599997,270.759992 89.8599997,272.32 C89.7799993,273.360005 89.9199979,274.159997 90.2799997,274.72 C90.6400015,275.280003 91.3199947,275.799998 92.3199997,276.28 C93.1200037,276.680002 93.989995,277.029998 94.9299997,277.33 C95.8700044,277.630001 96.7999951,277.879999 97.7199997,278.08 C98.6800045,278.280001 99.3399979,278.270001 99.6999997,278.05 C100.060001,277.829999 100.319999,277.360004 100.48,276.64 C100.64,274.919991 100.869998,272.960011 101.17,270.76 C101.470001,268.559989 101.819998,266.200013 102.22,263.68 C102.620002,261.159987 103.059997,258.540014 103.54,255.82 C104.020002,253.099986 104.519997,250.380014 105.04,247.66 L105.04,247.66 Z M168.2,229.36 C167.119994,228.639996 165.860007,227.960003 164.42,227.32 C162.979993,226.679997 161.640006,226.200002 160.4,225.88 C159.159994,225.519998 158.230003,225.469999 157.61,225.73 C156.989997,225.990001 156.500002,226.699994 156.14,227.86 C155.699998,229.740009 155.220002,231.929988 154.7,234.43 C154.179997,236.930013 153.670002,239.579986 153.17,242.38 C152.669997,245.180014 152.180002,248.039985 151.7,250.96 C151.219997,253.880015 150.790002,256.659987 150.41,259.3 C150.029998,261.940013 149.710001,264.369989 149.45,266.59 C149.189998,268.810011 149.02,270.619993 148.94,272.02 C148.819999,273.060005 148.909998,273.869997 149.21,274.45 C149.510001,275.030003 150.119995,275.539998 151.04,275.98 C151.880004,276.420002 152.769995,276.779999 153.71,277.06 C154.650004,277.340001 155.639995,277.619999 156.68,277.9 C157.720005,278.140001 158.409998,278.160001 158.75,277.96 C159.090001,277.759999 159.359999,277.320003 159.56,276.64 C159.920002,274.839991 160.349997,272.790012 160.85,270.49 C161.350002,268.189989 161.899997,265.750013 162.5,263.17 C163.100003,260.589987 163.719997,257.950014 164.36,255.25 C165.000003,252.549987 165.649996,249.910013 166.31,247.33 C166.970003,244.749987 167.629996,242.300012 168.29,239.98 C168.950003,237.659988 169.559997,235.600009 170.12,233.8 C170.400001,232.719995 170.430001,231.900003 170.21,231.34 C169.989999,230.779997 169.320005,230.120004 168.2,229.36 L168.2,229.36 Z M197.3,257.38 C196.859998,255.33999 196.420002,253.210011 195.98,250.99 C195.539998,248.769989 195.120002,246.61001 194.72,244.51 C194.319998,242.409989 193.960001,240.460009 193.64,238.66 C193.319998,236.859991 193.060001,235.380006 192.86,234.22 C192.619999,232.699992 192.240002,231.550004 191.72,230.77 C191.199997,229.989996 190.320006,229.340003 189.08,228.82 C187.559992,228.099996 186.100007,227.520002 184.7,227.08 C183.299993,226.639998 181.860007,226.200002 180.38,225.76 C179.139994,225.439998 178.160003,225.429998 177.44,225.73 C176.719996,226.030001 176.220001,226.779994 175.94,227.98 C175.499998,230.06001 175.050002,232.439987 174.59,235.12 C174.129998,237.800013 173.680002,240.579986 173.24,243.46 C172.799998,246.340014 172.390002,249.229985 172.01,252.13 C171.629998,255.030014 171.290001,257.749987 170.99,260.29 C170.689998,262.830013 170.450001,265.09999 170.27,267.1 C170.089999,269.10001 169.96,270.639995 169.88,271.72 C169.799999,272.760005 169.909998,273.569997 170.21,274.15 C170.510001,274.730003 171.099995,275.239998 171.98,275.68 C172.900004,276.240003 173.849995,276.649999 174.83,276.91 C175.810005,277.170001 176.779995,277.419999 177.74,277.66 C178.780005,277.940001 179.479998,277.990001 179.84,277.81 C180.200002,277.629999 180.459999,277.200003 180.62,276.52 C180.820001,275.079993 181.089998,273.39001 181.43,271.45 C181.770002,269.50999 182.149998,267.410011 182.57,265.15 C182.990002,262.889989 183.429998,260.520012 183.89,258.04 C184.350002,255.559988 184.799998,253.080012 185.24,250.6 C185.760002,252.68001 186.319997,254.74999 186.92,256.81 C187.520003,258.87001 188.119997,260.84999 188.72,262.75 C189.320003,264.650009 189.909997,266.419992 190.49,268.06 C191.070003,269.700008 191.639997,271.139994 192.2,272.38 C192.920003,274.100009 194.159991,275.299997 195.92,275.98 C197.840009,276.660003 199.719991,277.179998 201.56,277.54 C203.720011,278.020002 204.919999,277.500008 205.16,275.98 C205.800003,273.179986 206.569995,269.930018 207.47,266.23 C208.370004,262.529981 209.309995,258.740019 210.29,254.86 C211.270005,250.979981 212.259995,247.160019 213.26,243.4 C214.260005,239.639981 215.219995,236.280015 216.14,233.32 C216.460001,232.279995 216.550001,231.390004 216.41,230.65 C216.269999,229.909996 215.620006,229.180004 214.46,228.46 C213.779996,228.019998 213.180002,227.660001 212.66,227.38 C212.139997,227.099999 211.650002,226.860001 211.19,226.66 C210.729998,226.459999 210.260002,226.300001 209.78,226.18 C209.299997,226.059999 208.760003,225.920001 208.16,225.76 C206.879993,225.439998 205.910003,225.419999 205.25,225.7 C204.589997,225.980001 204.100001,226.699994 203.78,227.86 C202.619994,232.140021 201.450006,236.819975 200.27,241.9 C199.089994,246.980025 198.100004,252.139974 197.3,257.38 L197.3,257.38 Z M234.84,229.36 C233.759995,228.639996 232.500007,227.960003 231.06,227.32 C229.619993,226.679997 228.280006,226.200002 227.04,225.88 C225.799994,225.519998 224.870003,225.469999 224.25,225.73 C223.629997,225.990001 223.140002,226.699994 222.78,227.86 C222.339998,229.740009 221.860003,231.929988 221.34,234.43 C220.819997,236.930013 220.310002,239.579986 219.81,242.38 C219.309997,245.180014 218.820002,248.039985 218.34,250.96 C217.859998,253.880015 217.430002,256.659987 217.05,259.3 C216.669998,261.940013 216.350001,264.369989 216.09,266.59 C215.829999,268.810011 215.66,270.619993 215.58,272.02 C215.459999,273.060005 215.549998,273.869997 215.85,274.45 C216.150001,275.030003 216.759995,275.539998 217.68,275.98 C218.520004,276.420002 219.409995,276.779999 220.35,277.06 C221.290005,277.340001 222.279995,277.619999 223.32,277.9 C224.360005,278.140001 225.049998,278.160001 225.39,277.96 C225.730002,277.759999 225.999999,277.320003 226.2,276.64 C226.560002,274.839991 226.989997,272.790012 227.49,270.49 C227.990002,268.189989 228.539997,265.750013 229.14,263.17 C229.740003,260.589987 230.359997,257.950014 231,255.25 C231.640003,252.549987 232.289997,249.910013 232.95,247.33 C233.610003,244.749987 234.269997,242.300012 234.93,239.98 C235.590003,237.659988 236.199997,235.600009 236.76,233.8 C237.040001,232.719995 237.070001,231.900003 236.85,231.34 C236.629999,230.779997 235.960006,230.120004 234.84,229.36 L234.84,229.36 Z M281.64,232.66 C281.960002,231.619995 282.010001,230.820003 281.79,230.26 C281.569999,229.699997 280.940005,229.040004 279.9,228.28 C278.779994,227.559996 277.600006,226.910003 276.36,226.33 C275.119994,225.749997 273.920006,225.300002 272.76,224.98 C271.519994,224.619998 270.570003,224.529999 269.91,224.71 C269.249997,224.890001 268.740002,225.619994 268.38,226.9 C267.459995,230.300017 266.530005,234.089979 265.59,238.27 C264.649995,242.450021 263.680005,246.659979 262.68,250.9 C261.159992,251.020001 259.590008,251.139999 257.97,251.26 C256.349992,251.380001 254.700008,251.539999 253.02,251.74 C253.820004,248.219982 254.569997,244.920015 255.27,241.84 C255.970004,238.759985 256.639997,236.080011 257.28,233.8 C257.400001,233.279997 257.48,232.820002 257.52,232.42 C257.56,232.019998 257.510001,231.660002 257.37,231.34 C257.229999,231.019998 256.990002,230.700002 256.65,230.38 C256.309998,230.059998 255.840003,229.720002 255.24,229.36 C254.159995,228.639996 252.890007,227.970003 251.43,227.35 C249.969993,226.729997 248.600006,226.240002 247.32,225.88 C246.159994,225.439998 245.280003,225.339999 244.68,225.58 C244.079997,225.820001 243.620002,226.579994 243.3,227.86 C242.819998,231.220017 242.350002,234.88998 241.89,238.87 C241.429998,242.85002 240.960002,246.83998 240.48,250.84 C239.999998,254.84002 239.500003,258.679982 238.98,262.36 C238.459997,266.040018 237.900003,269.259986 237.3,272.02 C237.059999,273.060005 237.139998,273.869997 237.54,274.45 C237.940002,275.030003 238.599995,275.539998 239.52,275.98 C240.280004,276.420002 241.189995,276.779999 242.25,277.06 C243.310005,277.340001 244.339995,277.619999 245.34,277.9 C246.380005,278.140001 247.069998,278.160001 247.41,277.96 C247.750002,277.759999 247.999999,277.320003 248.16,276.64 C248.480002,274.71999 248.839998,272.550012 249.24,270.13 C249.640002,267.709988 250.159997,265.120014 250.8,262.36 C252.480008,262.079999 254.129992,261.830001 255.75,261.61 C257.370008,261.389999 259.019992,261.160001 260.7,260.92 C260.259998,263.240012 259.880002,265.339991 259.56,267.22 C259.239998,269.100009 259.000001,270.759993 258.84,272.2 C258.479998,273.640007 258.759995,274.709997 259.68,275.41 C260.600005,276.110004 261.879992,276.699998 263.52,277.18 C264.320004,277.380001 265.069997,277.569999 265.77,277.75 C266.470004,277.930001 267.079997,278.03 267.6,278.05 C268.120003,278.07 268.529999,277.990001 268.83,277.81 C269.130002,277.629999 269.28,277.260003 269.28,276.7 C270.080004,273.379983 270.989995,269.780019 272.01,265.9 C273.030005,262.019981 274.089995,258.12002 275.19,254.2 C276.290006,250.27998 277.399994,246.460019 278.52,242.74 C279.640006,239.019981 280.679995,235.660015 281.64,232.66 L281.64,232.66 Z M286.96,229.12 L281.26,269.02 C281.18,270.100005 281.329998,271.019996 281.71,271.78 C282.090002,272.540004 282.619997,273.199997 283.3,273.76 C284.140004,274.480004 284.869997,275.069998 285.49,275.53 C286.110003,275.990002 286.759997,276.439998 287.44,276.88 C288.040003,277.280002 288.749996,277.589999 289.57,277.81 C290.390004,278.030001 291.599992,277.940002 293.2,277.54 C295.600012,277.099998 298.119987,276.620003 300.76,276.1 C303.400013,275.579997 305.999987,275.080002 308.56,274.6 C309.640006,274.399999 310.279999,274.150002 310.48,273.85 C310.680001,273.549999 310.680001,273.000004 310.48,272.2 C310.159999,271.479996 309.870001,270.770004 309.61,270.07 C309.349999,269.369997 308.980003,268.620004 308.5,267.82 C308.059998,267.099996 307.530003,266.620001 306.91,266.38 C306.289997,266.139999 305.420006,266.06 304.3,266.14 C302.29999,266.260001 300.450009,266.419999 298.75,266.62 C297.049992,266.820001 295.26001,267.079998 293.38,267.4 C293.700002,266.279994 293.999999,265.150006 294.28,264.01 C294.560002,262.869994 294.859999,261.660006 295.18,260.38 C297.500012,259.899998 299.909988,259.460002 302.41,259.06 C304.910013,258.659998 307.359988,258.240002 309.76,257.8 C310.880006,257.559999 311.569999,257.280002 311.83,256.96 C312.090001,256.639998 312.060002,256.020005 311.74,255.1 C311.539999,254.299996 311.310001,253.510004 311.05,252.73 C310.789999,251.949996 310.420003,251.160004 309.94,250.36 C309.499998,249.559996 308.960003,249.040001 308.32,248.8 C307.679997,248.559999 306.800006,248.46 305.68,248.5 C304.319993,248.54 303.040006,248.6 301.84,248.68 C300.639994,248.76 299.440006,248.879999 298.24,249.04 C298.880003,246.919989 299.459998,244.89001 299.98,242.95 C300.500003,241.00999 301.059997,239.140009 301.66,237.34 C304.500014,236.939998 307.199987,236.600001 309.76,236.32 C312.320013,236.039999 314.799988,235.760001 317.2,235.48 C318.360006,235.319999 319.099999,235.060002 319.42,234.7 C319.740002,234.339998 319.820001,233.640005 319.66,232.6 C319.459999,231.679995 319.260001,230.830004 319.06,230.05 C318.859999,229.269996 318.500003,228.400005 317.98,227.44 C317.339997,225.639991 315.880012,224.76 313.6,224.8 C311.199988,224.88 308.790012,225.069999 306.37,225.37 C303.949988,225.670002 301.590012,226.019998 299.29,226.42 C296.989989,226.820002 294.790011,227.259998 292.69,227.74 C290.58999,228.220002 288.680009,228.679998 286.96,229.12 L286.96,229.12 Z M330.38,262.96 C331.420005,264.240006 332.579994,265.509994 333.86,266.77 C335.140007,268.030006 336.419994,269.239994 337.7,270.4 C338.980007,271.560006 340.219994,272.619995 341.42,273.58 C342.620006,274.540005 343.679996,275.339997 344.6,275.98 C346.000007,276.820004 347.229995,277.289999 348.29,277.39 C349.350006,277.49 350.319996,277.420001 351.2,277.18 C351.920004,277.059999 352.529998,276.95 353.03,276.85 C353.530003,276.749999 354.139997,276.420003 354.86,275.86 C355.460003,275.419998 355.8,275.000002 355.88,274.6 C355.960001,274.199998 355.600004,273.660003 354.8,272.98 C353.799995,272.179996 352.730006,271.240005 351.59,270.16 C350.449995,269.079995 349.300006,267.960006 348.14,266.8 C346.979994,265.639994 345.850006,264.480006 344.75,263.32 C343.649995,262.159994 342.640005,261.060005 341.72,260.02 C346.200023,258.01999 350.049984,255.860012 353.27,253.54 C356.490016,251.219988 358.799993,248.680014 360.2,245.92 C361.120005,244.199991 361.320003,242.000013 360.8,239.32 C360.159997,236.799987 359.270006,234.670009 358.13,232.93 C356.989995,231.189991 355.720007,229.560008 354.32,228.04 C352.559991,226.319991 350.510012,225.270002 348.17,224.89 C345.829989,224.509998 343.350013,224.549998 340.73,225.01 C338.109987,225.470002 335.450014,226.239995 332.75,227.32 C330.049987,228.400005 327.460013,229.499994 324.98,230.62 C324.459998,230.900001 323.960003,231.609994 323.48,232.75 C322.999998,233.890006 322.560002,235.329991 322.16,237.07 C321.759998,238.810009 321.380002,240.769989 321.02,242.95 C320.659998,245.130011 320.330002,247.379988 320.03,249.7 C319.729999,252.020012 319.450002,254.339988 319.19,256.66 C318.929999,258.980012 318.700001,261.14999 318.5,263.17 C318.299999,265.19001 318.130001,266.999992 317.99,268.6 C317.85,270.200008 317.740001,271.419996 317.66,272.26 C317.58,273.300005 317.679999,274.129997 317.96,274.75 C318.240002,275.370003 318.759996,275.899998 319.52,276.34 C320.280004,276.740002 321.079996,277.019999 321.92,277.18 C322.760004,277.340001 323.719995,277.559999 324.8,277.84 C325.720005,278.040001 326.349999,278.040001 326.69,277.84 C327.030002,277.639999 327.299999,277.220003 327.5,276.58 C327.940002,274.419989 328.389998,272.220011 328.85,269.98 C329.310003,267.739989 329.819997,265.400012 330.38,262.96 L330.38,262.96 Z M336.8,238.6 C338.360008,237.839996 339.839993,237.320001 341.24,237.04 C342.640007,236.759999 343.919994,236.62 345.08,236.62 C347.440012,236.62 348.859998,237.179994 349.34,238.3 C349.580001,238.980003 349.380003,239.939994 348.74,241.18 C348.099997,242.420006 347.060007,243.729993 345.62,245.11 C344.179993,246.490007 342.390011,247.849993 340.25,249.19 C338.10999,250.530007 335.660014,251.659995 332.9,252.58 C333.660004,249.939987 334.339997,247.460012 334.94,245.14 C335.540003,242.819988 336.159997,240.64001 336.8,238.6 L336.8,238.6 Z M397,229.6 C395.639994,228.519995 393.930011,227.600004 391.87,226.84 C389.80999,226.079996 387.640012,225.520002 385.36,225.16 C383.599992,224.879999 381.75001,225.019997 379.81,225.58 C377.869991,226.140003 376.200007,226.959995 374.8,228.04 C372.71999,229.840009 370.890008,231.869989 369.31,234.13 C367.729992,236.390011 366.400006,238.779987 365.32,241.3 C364.239995,243.820013 363.420003,246.409987 362.86,249.07 C362.299998,251.730013 362.000001,254.339987 361.96,256.9 C361.92,259.460013 362.139998,261.899988 362.62,264.22 C363.100003,266.540012 363.819996,268.619991 364.78,270.46 C365.380003,271.580006 366.199995,272.579996 367.24,273.46 C368.280006,274.340004 369.339995,275.059997 370.42,275.62 C371.740007,276.300003 373.199992,276.809998 374.8,277.15 C376.400008,277.490002 377.959993,277.739999 379.48,277.9 C381.760012,278.140001 383.779992,278.050002 385.54,277.63 C387.300009,277.209998 388.979992,276.380006 390.58,275.14 C392.940012,273.05999 394.929992,270.520015 396.55,267.52 C398.170008,264.519985 399.449996,261.330017 400.39,257.95 C401.330005,254.569983 401.919999,251.170017 402.16,247.75 C402.400002,244.329983 402.300003,241.160015 401.86,238.24 C401.539999,236.479991 401.030004,234.910007 400.33,233.53 C399.629997,232.149993 398.520008,230.840006 397,229.6 L397,229.6 Z M387.34,235.6 C388.140004,235.840001 388.729998,236.669993 389.11,238.09 C389.490002,239.510007 389.68,241.21999 389.68,243.22 C389.68,245.18001 389.520002,247.289989 389.2,249.55 C388.879999,251.810011 388.460003,253.879991 387.94,255.76 C387.339997,258.040011 386.630004,260.14999 385.81,262.09 C384.989996,264.03001 384.120005,265.659993 383.2,266.98 C382.279996,268.300007 381.360005,269.279997 380.44,269.92 C379.519996,270.560003 378.640005,270.740001 377.8,270.46 C376.879996,270.179999 376.180003,269.420006 375.7,268.18 C375.219998,266.939994 374.940001,265.450009 374.86,263.71 C374.78,261.969991 374.859999,260.09001 375.1,258.07 C375.340002,256.04999 375.739998,254.100009 376.3,252.22 C376.860003,250.29999 377.589996,248.31001 378.49,246.25 C379.390005,244.18999 380.359995,242.320008 381.4,240.64 C382.440006,238.959992 383.479995,237.630005 384.52,236.65 C385.560006,235.669995 386.499996,235.319999 387.34,235.6 L387.34,235.6 Z" id="Minihero"></path>
        </g>
    </g>
</svg>