<?xml version="1.0" encoding="UTF-8"?>
<svg width="180px" height="73px" viewBox="0 0 180 73" version="1.1" xmlns="http://www.w3.org/2000/svg" xmlns:xlink="http://www.w3.org/1999/xlink">
    <!-- Generator: Sketch 43.2 (39069) - http://www.bohemiancoding.com/sketch -->
    <title>Page 1</title>
    <desc>Created with Sketch.</desc>
    <defs></defs>
    <g id="Page-1" stroke="none" stroke-width="1" fill="none" fill-rule="evenodd">
        <path d="M178.74918,70.6760756 C177.57318,70.6760756 174.103846,70.1640756 173.290513,69.3854089 C170.042513,66.1854089 175.311846,58.4787423 175.874513,52.3107423 C176.698513,43.4467423 173.61318,31.3000756 157.487846,29.5294089 C146.40518,28.3107423 137.146513,26.9374089 137.12518,26.9374089 C135.479846,26.6654089 134.218513,26.4787423 133.594513,26.3827423 C131.594513,26.0920756 129.935846,24.7694089 125.946513,21.5827423 L125.562513,21.2894089 C97.5625131,-8.09459108 40.9998464,-0.0839244142 23.5625131,6.14540892 C22.2185131,6.62274225 21.1865131,7.04940892 20.4158464,7.45740892 C9.23984638,13.2067423 4.98917972,26.0920756 5.74917972,31.6867423 C6.57317972,37.7374089 14.9171797,45.4147423 22.2798464,50.3640756 C20.6025131,50.9454089 19.7385131,52.9987423 18.8318464,55.1560756 C18.1971797,56.6547423 17.4878464,58.3640756 16.4265131,59.8120756 C16.2398464,60.0520756 16.0505131,60.2894089 15.8638464,60.5080756 C12.5731797,64.2174089 7.71717972,66.9774089 6.33317972,66.9160756 C4.58384638,66.8014089 1.01051305,68.4974089 0.135846385,70.3827423 C-0.229486949,71.1560756 0.125179718,72.9987423 1.40517972,72.9374089 C2.15451305,72.9054089 18.9358464,72.4787423 32.5305131,71.9160756 L32.6985131,71.9160756 L32.7385131,71.9160756 C34.0425131,71.9160756 35.4265131,71.8627423 36.9171797,71.7694089 L36.9678464,71.7694089 L36.9785131,71.7694089 L37.3945131,71.7480756 L37.3945131,71.7480756 C60.1758464,71.1240756 89.0718464,72.4040756 99.9465131,72.8947423 C99.9465131,72.8947423 101.530513,72.9560756 101.71718,72.9560756 C104.031846,72.9560756 107.85318,72.3000756 110.322513,70.3640756 C112.967846,68.2707423 113.250513,66.7800756 114.239846,64.4680756 C114.239846,64.4680756 116.551846,59.8947423 116.74918,57.1640756 C116.74918,57.1240756 116.738513,57.0814089 116.727846,57.0414089 C120.218513,55.9880756 124.727846,53.9054089 126.802513,51.8227423 C127.874513,50.7480756 129.175846,49.1240756 129.95718,47.1560756 C130.490513,47.4147423 131.458513,47.9160756 131.562513,48.2787423 C131.583846,48.3827423 131.479846,48.5720756 131.426513,48.6334089 C130.010513,50.6867423 127.946513,54.6654089 130.114513,58.2707423 C131.103846,59.9160756 132.30118,60.9054089 133.26918,61.6974089 C134.22918,62.4894089 134.738513,62.9267423 134.738513,63.4680756 C134.71718,63.5827423 134.54118,63.8947423 134.426513,64.0920756 C134.02118,64.8014089 133.415846,65.8734089 133.978513,66.8307423 C134.594513,68.2894089 136.64518,68.6654089 138.250513,68.7187423 C138.479846,68.7267423 138.802513,68.7187423 139.186513,68.6974089 C139.78118,68.6654089 140.78118,68.6040756 141.175846,68.7587423 C141.895846,69.0600756 142.666513,69.6334089 143.487846,70.2387423 C144.81318,71.2174089 146.19718,72.2387423 147.78118,72.4574089 C149.12518,72.6440756 151.415846,72.9667423 154.40518,72.9667423 C156.031846,72.9667423 170.26918,73.1134089 178.218513,72.7907423 C180.85318,72.6760756 180.135846,70.7187423 178.74918,70.6760756 Z M20.5838464,55.8947423 C21.4158464,53.9054089 22.1358464,52.1854089 23.1571797,52.1027423 C23.8425131,52.0200756 25.0318464,52.5400756 26.7278464,53.6040756 C27.4691797,54.0600756 28.2505131,54.5614089 29.0211797,55.0814089 C31.2798464,56.5720756 33.4158464,57.9880756 35.1251797,58.2787423 C35.5305131,58.3534089 36.3011797,58.2280756 39.9171797,57.5507423 C40.4371797,57.4360756 40.9785131,57.3107423 41.5518464,57.1747423 C46.4051797,56.0600756 53.7491797,54.3534089 61.3438464,54.4894089 L65.7811797,54.6440756 C65.0825131,54.9267423 64.3838464,55.2174089 63.6878464,55.5187423 L61.3225131,55.4360756 C53.8745131,55.3107423 46.8745131,56.9374089 41.7705131,58.1027423 C41.1358464,58.2494089 40.5411797,58.3827423 39.9785131,58.5080756 C39.8025131,60.6227423 39.8638464,63.4147423 39.9998464,64.9987423 C39.7705131,65.0600756 39.5411797,65.1134089 39.3225131,65.1640756 C38.7491797,63.7907423 37.0505131,63.1454089 35.7491797,62.6654089 C35.2611797,62.4787423 34.5305131,62.2067423 34.2798464,62.0200756 C34.2185131,60.3427423 34.0105131,59.0600756 33.1971797,58.3000756 C32.7598464,57.8947423 32.2185131,57.7374089 31.5518464,57.7160756 C30.9998464,57.7374089 30.4985131,58.0200756 30.1465131,58.5187423 C29.4265131,59.5080756 29.3118464,61.3640756 29.7705131,63.3320756 C29.5518464,63.5400756 29.3651797,63.7480756 29.1971797,63.9774089 C28.9891797,61.4040756 27.8851797,58.7480756 26.7918464,57.6040756 C25.9465131,56.7267423 24.9278464,56.7374089 24.3331797,57.4147423 C24.1145131,57.6547423 23.9785131,57.9880756 23.8745131,58.3827423 C23.3011797,57.5294089 22.6131797,56.9160756 21.8851797,56.9160756 C21.3758464,56.9160756 20.9065131,57.1747423 20.6238464,57.6334089 C20.2905131,58.1560756 20.2185131,58.9774089 20.2798464,59.8414089 C20.1358464,59.7160756 19.3118464,59.2494089 19.0611797,59.1747423 C19.6558464,58.0707423 20.1465131,56.9374089 20.5838464,55.8947423 Z M31.7171797,63.4040756 C31.1358464,61.0707423 31.3011797,59.9667423 31.4691797,59.7907423 C31.5838464,59.6760756 31.8851797,59.6440756 31.9998464,59.8120756 C32.2185131,60.1347423 32.3438464,60.7907423 32.3838464,62.2174089 C32.4371797,63.4467423 33.7171797,63.9267423 35.0825131,64.4360756 C35.8958464,64.7374089 36.8425131,65.0920756 37.3225131,65.5507423 C37.2905131,65.5507423 37.2611797,65.5614089 37.2291797,65.5720756 L37.0105131,65.6040756 C35.9171797,65.7480756 33.1971797,65.4787423 30.8025131,64.9880756 C30.9465131,64.8120756 31.1251797,64.6120756 31.3651797,64.4467423 C31.3758464,64.4360756 31.1758464,64.6227423 31.3838464,64.4254089 C31.5838464,64.2280756 31.8318464,63.8734089 31.7171797,63.4040756 Z M27.3011797,64.2280756 C27.3011797,64.2280756 26.3118464,64.0094089 26.0318464,63.9454089 C25.9998464,63.6334089 25.9465131,63.3107423 25.8745131,62.8947423 C25.3838464,60.4254089 25.2291797,59.2707423 25.6345131,59.1960756 C26.0425131,59.1134089 27.1571797,62.1454089 27.3011797,64.2280756 Z M23.6665131,62.9880756 C23.3758464,62.7800756 23.0611797,62.5294089 22.7491797,62.2494089 C22.3651797,61.4040756 21.6558464,59.3107423 22.1465131,59.2174089 C22.6238464,59.1134089 23.3945131,61.4360756 23.6665131,62.9880756 Z M2.16517972,71.1854089 C1.93584638,71.0094089 2.17584638,70.6334089 2.38384638,70.4360756 C3.39451305,69.4680756 5.37584638,68.7800756 6.16517972,68.8014089 C8.32251305,68.9774089 12.9571797,66.1747423 16.3945131,62.6867423 C17.2905131,65.4974089 22.2611797,68.7267423 25.3651797,70.2787423 C14.8131797,70.6760756 2.42651305,71.3934089 2.16517972,71.1854089 Z M148.010513,70.5720756 C147.831846,70.5507423 147.64518,70.4787423 147.46918,70.4147423 C147.57318,70.2787423 147.61318,70.1240756 147.67718,69.9454089 C147.906513,69.3320756 148.530513,68.3214089 149.186513,68.1960756 C149.70918,68.1027423 150.042513,67.6040756 149.946513,67.0814089 C149.85318,66.5614089 149.354513,66.2280756 148.831846,66.3214089 C147.343846,66.5934089 146.050513,68.2280756 145.81318,69.5614089 C145.394513,69.2894089 144.978513,68.9880756 144.57318,68.6867423 C143.698513,68.0414089 142.791846,67.3747423 141.842513,66.9774089 C141.050513,66.6654089 139.935846,66.7267423 139.031846,66.7800756 C138.727846,66.8014089 138.479846,66.8227423 138.290513,66.8014089 C136.594513,66.7374089 135.791846,66.3107423 135.634513,65.9667423 C135.562513,65.8414089 135.927846,65.2174089 136.042513,65.0094089 C136.311846,64.5294089 136.594513,64.0307423 136.594513,63.4787423 C136.594513,62.2494089 135.88518,61.4574089 135.02118,60.7080756 C135.22918,60.3934089 135.67718,59.9160756 136.114513,59.6654089 C136.57318,59.4040756 136.727846,58.8227423 136.46918,58.3640756 C136.207846,57.9054089 135.623846,57.7480756 135.16518,58.0094089 C134.61318,58.3214089 133.999846,58.8840756 133.562513,59.4787423 C132.91718,58.9054089 132.26118,58.2280756 131.687846,57.2787423 C130.071846,54.5934089 131.770513,51.3854089 132.935846,49.7080756 C133.479846,48.9160756 133.458513,48.2280756 133.343846,47.7907423 C133.02118,46.5720756 131.666513,45.8947423 130.67718,45.4147423 C130.602513,45.3854089 130.54118,45.3534089 130.479846,45.3107423 C130.874513,43.6227423 131.09318,41.9267423 131.082513,40.5827423 C131.06118,38.3214089 130.842513,35.0600756 129.946513,32.4040756 C129.78118,31.9054089 129.239846,31.6440756 128.738513,31.8120756 C128.239846,31.9774089 127.967846,32.5187423 128.146513,33.0200756 C128.967846,35.4360756 129.15718,38.4787423 129.175846,40.6040756 C129.19718,41.9774089 128.935846,43.7907423 128.46918,45.5614089 C127.927846,47.6334089 126.498513,49.3747423 125.40518,50.4680756 C123.498513,52.3747423 118.895846,54.4574089 115.530513,55.3854089 L115.30118,55.4467423 C113.46918,55.9454089 111.64518,56.4574089 109.802513,56.9774089 C101.64518,59.2707423 93.2078464,61.6334089 81.1758464,63.9987423 C66.5411797,66.8840756 46.2798464,69.2387423 37.3331797,69.8414089 C37.3225131,69.8414089 33.9891797,69.9454089 32.7091797,70.0200756 C30.3758464,69.9880756 29.2905131,69.7267423 27.8958464,69.3320756 C25.5838464,68.6867423 18.1251797,64.0307423 18.1251797,61.8520756 C18.1251797,61.3534089 18.4985131,61.0494089 18.8531797,61.1454089 C19.0611797,61.1960756 19.4878464,61.7267423 19.8851797,62.1454089 C20.2798464,62.5507423 22.9998464,64.9774089 24.2398464,65.4574089 C25.4798464,65.9374089 29.3331797,66.6334089 29.8238464,66.7374089 C32.1971797,67.2707423 35.6025131,67.7160756 37.2611797,67.4894089 C37.2611797,67.4894089 40.4051797,66.8627423 41.2691797,66.6227423 C46.4158464,65.1854089 52.4158464,62.5187423 58.2078464,59.9454089 C59.2291797,59.4894089 60.2398464,59.0414089 61.2291797,58.6120756 C61.3331797,58.6040756 70.6771797,54.8627423 70.6985131,54.8520756 C81.7385131,51.0707423 96.3945131,45.9667423 100.831846,44.3320756 C100.831846,44.3320756 101.946513,43.9054089 102.09318,43.8414089 C102.831846,43.5187423 103.479846,42.9880756 103.946513,42.3214089 C104.727846,41.2280756 105.050513,39.8120756 104.82118,38.5294089 C104.623846,37.4574089 104.050513,36.5507423 103.19718,35.9880756 C102.759846,35.6974089 102.16518,35.8120756 101.874513,36.2494089 C101.583846,36.6867423 101.698513,37.2787423 102.135846,37.5720756 C102.67718,37.9374089 102.874513,38.4787423 102.946513,38.8734089 C103.09318,39.6440756 102.88518,40.5400756 102.394513,41.2174089 C102.12518,41.6120756 101.26918,42.1134089 101.250513,42.1240756 C101.146513,42.1640756 100.57318,42.3827423 100.490513,42.4147423 C87.3945131,37.2174089 59.3545131,29.6867423 46.1971797,26.9667423 C46.2185131,26.7694089 46.2185131,26.5614089 46.1758464,26.3534089 C45.8531797,24.6760756 43.6558464,23.2387423 40.1971797,21.4574089 C29.0425131,15.6654089 25.8958464,9.81207559 25.0718464,7.61207559 C43.1465131,1.54007559 97.2611797,-5.64659108 124.250513,22.6654089 L124.727846,23.0414089 C129.010513,26.4574089 130.78118,27.8734089 133.290513,28.2387423 C133.91718,28.3320756 135.16518,28.5187423 136.802513,28.7907423 L136.85318,28.7907423 C135.042513,45.9667423 157.447846,42.1640756 154.935846,51.3747423 C152.70918,59.6227423 148.415846,67.3854089 157.43718,70.9160756 C153.082513,71.2787423 149.738513,70.8120756 148.010513,70.5720756 Z" fill="#FF0000"></path>
    </g>
</svg>