<?xml version="1.0" encoding="UTF-8"?>
<svg width="198px" height="198px" viewBox="0 0 198 198" version="1.1" xmlns="http://www.w3.org/2000/svg" xmlns:xlink="http://www.w3.org/1999/xlink">
    <!-- Generator: Sketch 43.2 (39069) - http://www.bohemiancoding.com/sketch -->
    <title>Page 1</title>
    <desc>Created with Sketch.</desc>
    <defs></defs>
    <g id="Page-1" stroke="none" stroke-width="1" fill="none" fill-rule="evenodd">
        <g transform="translate(-1.000000, -1.000000)" fill="#E46300">
            <path d="M31.6463768,157.031884 C28.7594203,153.486957 26.1449275,149.715942 23.8347826,145.753623 L36.0956522,139.130435 C36.0521739,139.266667 36.0173913,139.402899 35.9826087,139.527536 C35.6086957,140.852174 34.4666667,144.849275 34.3536232,145.266667 C33.7855072,147.26087 33.4,148.64058 33.0724638,149.863768 C32.2463768,152.933333 31.826087,154.881159 31.6927536,156.385507 C31.6695652,156.6 31.657971,156.817391 31.6463768,157.031884 Z" id="Fill-1"></path>
            <path d="M19.7681159,137.907246 C15.284058,128.081159 12.5681159,117.289855 11.9913043,105.933333 L44.4289855,104.043478 C44.5884058,106.86087 44.4289855,104.043478 44.8695652,109.330435 C42.7884058,110.043478 41.1913043,111.571014 40.3536232,113.791304 C40.2289855,114.153623 40.115942,114.492754 40.0347826,114.831884 C39.8550725,115.57971 39.7884058,116.281159 39.7884058,117.211594 C39.7884058,117.550725 39.7971014,117.913043 39.8086957,118.466667 C39.8202899,118.513043 39.8550725,119.643478 39.8666667,120.052174 C39.8666667,120.118841 39.9913043,124.524638 39.8550725,125.521739 C39.8318841,125.724638 39.7971014,125.927536 39.7536232,126.133333 C39.7304348,126.246377 39.5710145,126.982609 39.5043478,127.24058 C39.4144928,127.602899 39.1188406,128.646377 38.7333333,129.982609 L19.7681159,137.907246 Z" id="Fill-2"></path>
            <path d="M111.321739,51.5971014 L117.550725,14.9681159 C111.898551,13.826087 106.046377,13.2347826 100.046377,13.2347826 C94.7913043,13.2347826 89.6521739,13.6898551 84.657971,14.5710145 L90.942029,51.515942 C94.1362319,51.0753623 97.4753623,50.8376812 100.93913,50.8376812 C104.53913,50.8492754 108.005797,51.1101449 111.321739,51.5971014 Z" id="Fill-3"></path>
            <path d="M151.562319,75.6898551 L178.272464,60.6782609 C173.426087,51.4028986 166.994203,43.1043478 159.330435,36.1304348 L136.831884,60.8115942 C139.118841,62.2405797 141.269565,63.7565217 143.252174,65.3652174 C146.66087,68.1043478 149.423188,71.6608696 151.562319,75.6898551 Z" id="Fill-4"></path>
            <path d="M116.394203,52.5362319 L126.121739,17.1536232 C135.733333,20.1188406 144.643478,24.6956522 152.547826,30.5594203 L132.043478,58.1304348 C127.333333,55.7391304 122.101449,53.8028986 116.394203,52.5362319 Z" id="Fill-5"></path>
            <path d="M65.1826087,60.5188406 L41.9710145,35.0550725 C34.0347826,42.0057971 27.3565217,50.3623188 22.3275362,59.7246377 L50.1362319,75.3623188 C52.2521739,71.4666667 54.9594203,68.0376812 58.2666667,65.3652174 C60.3942029,63.6550725 62.7043478,62.0231884 65.1826087,60.5188406 Z" id="Fill-6"></path>
            <path d="M70.0289855,57.857971 L48.9710145,29.5304348 C57.0666667,23.7652174 66.1797101,19.3275362 75.9855072,16.5536232 L85.8463768,52.4 C80.0608696,53.6231884 74.7855072,55.5130435 70.0289855,57.857971 Z" id="Fill-7"></path>
            <path d="M188.110145,105.808696 C187.568116,116.915942 184.962319,127.478261 180.672464,137.136232 L162.498551,129.550725 C162.171014,128.42029 161.933333,127.55942 161.855072,127.24058 C161.785507,126.982609 161.730435,126.733333 161.672464,126.46087 C161.64058,126.35942 161.527536,125.724638 161.504348,125.521739 C161.368116,124.524638 161.368116,124.127536 161.481159,120.437681 C161.481159,120.368116 161.536232,118.513043 161.536232,118.466667 C161.55942,117.913043 161.571014,117.550725 161.571014,117.211594 C161.571014,116.281159 161.504348,115.57971 161.321739,114.831884 C161.243478,114.492754 161.130435,114.153623 160.994203,113.791304 C160.223188,111.707246 158.344928,110.17971 156.463768,109.42029 C156.463768,109.42029 156.556522,108.797101 156.817391,103.973913 L188.110145,105.808696 Z" id="Fill-8"></path>
            <path d="M169.576812,155.626087 C172.237681,152.231884 174.637681,148.628986 176.776812,144.86087 L165.092754,138.542029 C165.115942,138.643478 165.150725,138.733333 165.171014,138.814493 C165.24058,139.072464 165.307246,139.310145 165.376812,139.527536 C165.750725,140.852174 166.881159,144.849275 167.005797,145.266667 C167.571014,147.26087 167.956522,148.64058 168.286957,149.863768 C168.976812,152.434783 169.385507,154.223188 169.576812,155.626087 Z" id="Fill-9"></path>
            <path d="M44.3275362,98.3797101 L11.9797101,97.0434783 C12.4898551,86.7304348 14.7652174,76.8782609 18.5130435,67.7884058 L47.7478261,80.5826087 C46.2057971,84.6028986 45.1884058,88.9275362 44.6898551,93.2985507 C44.4985507,94.973913 44.373913,96.6608696 44.3275362,98.3797101 Z" id="Fill-10"></path>
            <path d="M188.110145,97.1362319 C187.634783,87.0927536 185.472464,77.4898551 181.918841,68.6028986 L153.884058,80.8637681 C155.368116,84.8057971 156.342029,89.0289855 156.837681,93.2985507 C156.997101,94.6782609 157.043478,96.4782609 157.02029,98.4144928 L188.110145,97.1362319 Z" id="Fill-11"></path>
            <path d="M100,198.211594 C154.234783,198.211594 198.211594,154.234783 198.211594,100 C198.211594,45.7652174 154.234783,1.7884058 100,1.7884058 C45.7652174,1.7884058 1.7884058,45.7652174 1.7884058,100 C1.7884058,154.234783 45.7652174,198.211594 100,198.211594 Z M100,196.104348 C47.6666667,196.104348 5.25217391,153.681159 5.25217391,101.35942 C5.25217391,49.026087 47.6666667,6.6115942 100,6.6115942 C152.333333,6.6115942 194.747826,49.026087 194.747826,101.35942 C194.747826,153.681159 152.333333,196.104348 100,196.104348 Z" id="Fill-12"></path>
            <path d="M37.5565217,156.124638 C37.7710145,153.689855 38.7014493,149.365217 41.0550725,141.066667 C41.1246377,140.84058 41.1797101,140.602899 41.257971,140.353623 C43.6492754,131.907246 44.1014493,130.275362 44.6782609,127.707246 C44.7246377,127.547826 44.7565217,127.376812 44.7913043,127.22029 C45.2,125.136232 45.0985507,123.402899 45.0057971,120.086957 C44.915942,117.188406 45.2666667,116.17971 45.5855072,115.318841 C45.9130435,114.457971 46.5246377,114.118841 48.0173913,114.255072 C48.3246377,114.278261 48.6521739,114.426087 49.0144928,114.707246 L49.6724638,113.881159 L48.6289855,114.052174 C48.6869565,114.414493 48.7652174,114.652174 48.9246377,115.026087 C49.0492754,115.295652 49.084058,115.388406 49.1043478,115.556522 C49.1275362,115.669565 49.4347826,117.550725 49.5478261,118.173913 C49.5594203,118.182609 49.5797101,118.330435 49.6144928,118.591304 C49.626087,118.66087 49.6724638,118.930435 49.684058,118.988406 C49.7043478,119.168116 49.7275362,119.304348 49.7507246,119.452174 C49.8637681,120.098551 49.9217391,120.504348 49.9536232,120.686957 L50.9971014,120.492754 L50.0115942,120.130435 C50,120.153623 49.9884058,120.188406 49.9652174,120.231884 C49.942029,120.313043 49.9101449,120.402899 49.8753623,120.504348 C49.7623188,120.776812 49.6608696,121.06087 49.5594203,121.318841 C49.5478261,121.353623 49.5362319,121.388406 49.5130435,121.423188 C49.4231884,121.649275 49.342029,121.852174 49.2753623,122.011594 C48.3913043,124.127536 47.542029,126.382609 46.7855072,128.701449 C44.0666667,137.014493 42.7072464,143.182609 42.6869565,148.936232 C42.6637681,154.257971 43.5449275,159.26087 45.3130435,163.382609 L45.5391304,162.217391 C43.8521739,163.857971 42.5043478,164.684058 41.8695652,164.628986 C38.4057971,164.333333 37.0811594,161.571014 37.5565217,156.124638 Z M47.0115942,164.028986 L47.5304348,163.223188 L47.2492754,162.556522 C45.6057971,158.718841 44.7681159,153.985507 44.7913043,148.947826 C44.8144928,143.455072 46.1275362,137.478261 48.7884058,129.35942 C49.5362319,127.095652 50.3507246,124.898551 51.2231884,122.826087 C51.3014493,122.655072 51.3826087,122.44058 51.484058,122.191304 C51.4956522,122.15942 51.5072464,122.113043 51.5275362,122.078261 C51.6289855,121.805797 51.7333333,121.524638 51.8463768,121.24058 C51.8782609,121.13913 51.9130435,121.049275 51.9478261,120.968116 C51.9710145,120.913043 52.084058,120.585507 52.084058,120.585507 L52.0376812,120.301449 C52.0028986,120.142029 51.9362319,119.744928 51.8463768,119.144928 C51.8115942,118.976812 51.7884058,118.828986 51.7652174,118.66087 C51.7536232,118.591304 51.7101449,118.318841 51.6985507,118.263768 C51.6521739,117.944928 51.6289855,117.831884 51.6202899,117.788406 C51.515942,117.2 51.2,115.626087 51.1884058,115.501449 C51.1217391,115.127536 51.0405797,114.889855 50.884058,114.527536 C50.7594203,114.266667 50.7362319,114.176812 50.7014493,114.017391 L50.6463768,113.608696 L50.315942,113.347826 C49.6492754,112.828986 48.9478261,112.521739 48.2115942,112.455072 C45.8231884,112.252174 44.2927536,113.223188 43.6144928,115.026087 C43.1507246,116.257971 43.2521739,116.904348 43.3536232,120.142029 C43.4434783,123.313043 43.5449275,124.921739 43.173913,126.811594 C43.1391304,126.95942 43.115942,127.095652 43.0811594,127.24058 C42.515942,129.756522 41.9043478,131.397101 39.5275362,139.776812 C39.457971,140.034783 39.3913043,140.263768 39.3217391,140.489855 C36.9333333,148.95942 35.3826087,154.052174 35.1565217,156.692754 C34.8956522,159.715942 35.1449275,162.13913 36.0173913,163.947826 C37.0231884,166.043478 38.8347826,167.266667 41.3826087,167.481159 C42.8550725,167.617391 44.8927536,166.089855 47.0115942,164.028986 Z" id="Fill-13"></path>
            <path d="M163.678261,156.124638 C163.472464,153.689855 162.533333,149.365217 160.191304,141.066667 C160.121739,140.84058 160.055072,140.602899 159.985507,140.353623 C157.585507,131.907246 157.133333,130.275362 156.556522,127.707246 C156.521739,127.547826 156.486957,127.376812 156.455072,127.22029 C156.046377,125.136232 156.136232,123.402899 156.237681,120.086957 C156.318841,117.188406 155.976812,116.17971 155.649275,115.318841 C155.333333,114.457971 154.710145,114.118841 153.214493,114.255072 C152.921739,114.278261 152.594203,114.426087 152.22029,114.707246 L151.573913,113.881159 L152.614493,114.052174 C152.55942,114.414493 152.469565,114.652174 152.310145,115.026087 C152.197101,115.295652 152.162319,115.388406 152.127536,115.556522 C152.115942,115.669565 151.8,117.550725 151.686957,118.173913 C151.686957,118.182609 151.663768,118.330435 151.62029,118.591304 C151.608696,118.66087 151.562319,118.930435 151.562319,118.988406 C151.527536,119.168116 151.507246,119.304348 151.484058,119.452174 C151.382609,120.098551 151.313043,120.504348 151.278261,120.686957 L150.249275,120.492754 L151.234783,120.130435 C151.234783,120.153623 151.257971,120.188406 151.269565,120.231884 C151.301449,120.313043 151.336232,120.402899 151.371014,120.504348 C151.472464,120.776812 151.585507,121.06087 151.675362,121.318841 C151.698551,121.353623 151.710145,121.388406 151.721739,121.423188 C151.811594,121.649275 151.889855,121.852174 151.95942,122.011594 C152.852174,124.127536 153.689855,126.382609 154.46087,128.701449 C157.17971,137.014493 158.524638,143.182609 158.547826,148.936232 C158.571014,154.257971 157.686957,159.26087 155.933333,163.382609 L155.695652,162.217391 C157.394203,163.857971 158.730435,164.684058 159.373913,164.628986 C162.84058,164.333333 164.165217,161.571014 163.678261,156.124638 Z M154.234783,164.028986 L153.713043,163.223188 L153.997101,162.556522 C155.637681,158.718841 156.463768,153.985507 156.443478,148.947826 C156.42029,143.455072 155.107246,137.478261 152.457971,129.35942 C151.710145,127.095652 150.884058,124.898551 150.023188,122.826087 C149.942029,122.655072 149.852174,122.44058 149.762319,122.191304 C149.750725,122.15942 149.727536,122.113043 149.715942,122.078261 C149.614493,121.805797 149.501449,121.524638 149.4,121.24058 C149.353623,121.13913 149.321739,121.049275 149.298551,120.968116 C149.275362,120.913043 149.150725,120.585507 149.150725,120.585507 L149.208696,120.301449 C149.24058,120.142029 149.298551,119.744928 149.4,119.144928 C149.423188,118.976812 149.446377,118.828986 149.478261,118.66087 C149.489855,118.591304 149.524638,118.318841 149.536232,118.263768 C149.591304,117.944928 149.602899,117.831884 149.614493,117.788406 C149.727536,117.2 150.034783,115.626087 150.057971,115.501449 C150.124638,115.127536 150.202899,114.889855 150.362319,114.527536 C150.475362,114.266667 150.510145,114.176812 150.533333,114.017391 L150.6,113.608696 L150.927536,113.347826 C151.597101,112.828986 152.298551,112.521739 153.034783,112.455072 C155.411594,112.252174 156.950725,113.223188 157.631884,115.026087 C158.084058,116.257971 157.982609,116.904348 157.892754,120.142029 C157.8,123.313043 157.698551,124.921739 158.072464,126.811594 C158.095652,126.95942 158.130435,127.095652 158.162319,127.24058 C158.730435,129.756522 159.330435,131.397101 161.707246,139.776812 C161.785507,140.034783 161.843478,140.263768 161.910145,140.489855 C164.313043,148.95942 165.852174,154.052174 166.078261,156.692754 C166.350725,159.715942 166.089855,162.13913 165.217391,163.947826 C164.208696,166.043478 162.397101,167.266667 159.86087,167.481159 C158.391304,167.617391 156.350725,166.089855 154.234783,164.028986 Z" id="Fill-14"></path>
            <path d="M60.484058,70.0289855 C53.1710145,75.915942 49.3101449,83.9101449 48.1884058,93.6492754 C47.4057971,100.428986 47.9391304,107.2 49.4463768,115.782609 C49.5710145,116.542029 49.7043478,117.289855 49.8869565,118.24058 C49.9101449,118.353623 50.2028986,120.005797 50.2956522,120.449275 L50.373913,119.849275 C50.226087,120.165217 50.1478261,120.324638 50.057971,120.515942 C49.8086957,121.049275 49.5362319,121.672464 49.2405797,122.373913 C48.4028986,124.376812 47.5652174,126.597101 46.7855072,128.985507 C44.5536232,135.768116 43.2173913,142.550725 43.1826087,148.901449 C43.1623188,155.162319 44.4289855,161.289855 47.2144928,165.852174 C58.1072464,183.617391 78.0695652,194.249275 100.576812,194.350725 C123.437681,194.249275 143.4,183.617391 154.281159,165.852174 C157.075362,161.289855 158.344928,155.162319 158.310145,148.901449 C158.286957,142.550725 156.942029,135.768116 154.721739,128.985507 C153.93913,126.597101 153.101449,124.376812 152.252174,122.373913 C151.95942,121.672464 151.686957,121.049275 151.437681,120.515942 C151.35942,120.324638 151.278261,120.165217 151.211594,120.017391 C151.176812,119.93913 151.211594,120.449275 151.211594,120.449275 C151.289855,120.005797 151.597101,118.353623 151.62029,118.24058 C151.788406,117.289855 151.924638,116.542029 152.06087,115.782609 C153.565217,107.2 154.086957,100.428986 153.307246,93.6492754 C152.197101,83.9101449 148.336232,75.915942 141.02029,70.0289855 C132.394203,63.0666667 119.237681,57.8347826 100.915942,57.7913043 C82.2695652,57.8347826 69.1130435,63.0666667 60.484058,70.0289855 Z M139.797101,71.5478261 C146.672464,77.0956522 150,84.6115942 151.063768,93.8753623 C151.823188,100.428986 151.301449,107.031884 149.828986,115.443478 C149.704348,116.191304 149.571014,116.950725 149.4,117.878261 C149.376812,118.002899 149.072464,119.643478 148.97971,120.098551 L149.072464,120.710145 C149.208696,120.991304 149.275362,121.150725 149.365217,121.330435 C149.602899,121.852174 149.863768,122.452174 150.15942,123.130435 C150.973913,125.089855 151.8,127.263768 152.55942,129.597101 C154.721739,136.197101 156.034783,142.788406 156.057971,148.901449 C156.081159,154.834783 155.197101,160.008696 152.614493,164.22029 C142.086957,181.42029 122.747826,190.489855 100.904348,190.591304 C78.7594203,190.489855 59.4202899,181.42029 48.8898551,164.22029 C46.3101449,160.008696 45.1188406,154.834783 45.142029,148.901449 C45.1652174,142.788406 46.626087,136.197101 48.7884058,129.597101 C49.5594203,127.263768 50.373913,125.089855 51.2,123.130435 C51.484058,122.452174 51.7536232,121.852174 51.9942029,121.330435 C52.0724638,121.150725 52.1391304,120.991304 52.2086957,120.855072 C52.2405797,120.776812 52.4231884,120.414493 52.4231884,120.414493 C52.2869565,119.643478 51.9826087,118.002899 51.9594203,117.878261 C51.7884058,116.950725 51.6521739,116.191304 51.515942,115.443478 C50.0463768,107.031884 49.5362319,100.428986 50.284058,93.8753623 C51.3478261,84.6115942 54.8347826,77.0956522 61.7072464,71.5478261 C69.9507246,64.9014493 82.6753623,59.342029 100.588406,59.2956522 C118.817391,59.342029 131.544928,64.9014493 139.797101,71.5478261 Z" id="Fill-15"></path>
            <path d="M115.295652,106.794203 L115.342029,106.771014 C115.353623,106.771014 115.365217,106.75942 115.397101,106.747826 C115.455072,106.724638 115.521739,106.692754 115.602899,106.669565 C115.828986,106.57971 116.089855,106.475362 116.382609,106.373913 C117.243478,106.057971 118.217391,105.750725 119.292754,105.457971 C122.350725,104.631884 125.553623,104.133333 128.747826,104.133333 C129.426087,104.133333 130.150725,104.176812 130.886957,104.257971 C133.504348,104.527536 136.321739,105.252174 139.188406,106.295652 C140.501449,106.771014 141.724638,107.281159 142.831884,107.791304 C143.217391,107.971014 143.568116,108.130435 143.863768,108.275362 C143.965217,108.333333 144.055072,108.37971 144.136232,108.411594 C144.17971,108.434783 144.202899,108.457971 144.214493,108.457971 L144.249275,108.481159 C144.428986,108.55942 144.576812,108.628986 144.713043,108.672464 C144.814493,108.707246 144.904348,108.730435 145.005797,108.730435 C145.107246,108.742029 145.211594,108.742029 145.324638,108.707246 C145.550725,108.649275 145.753623,108.524638 145.889855,108.298551 C146.026087,108.072464 146.06087,107.834783 146.014493,107.62029 C145.97971,107.495652 145.947826,107.405797 145.889855,107.313043 C145.831884,107.223188 145.776812,107.144928 145.698551,107.075362 C145.605797,106.973913 145.481159,106.872464 145.324638,106.747826 L144.768116,107.46087 L145.347826,106.75942 C145.278261,106.701449 145.142029,106.6 144.962319,106.463768 C144.655072,106.226087 144.304348,105.968116 143.918841,105.684058 C142.8,104.892754 141.553623,104.098551 140.205797,103.362319 C136.333333,101.223188 132.437681,99.9333333 128.747826,99.9333333 C125.078261,99.9333333 121.57971,100.837681 118.353623,102.353623 C117.22029,102.875362 116.214493,103.443478 115.318841,104.02029 C115.014493,104.211594 114.742029,104.405797 114.504348,104.573913 C114.356522,104.675362 114.255072,104.756522 114.197101,104.788406 L114.266667,104.744928 C113.982609,104.924638 113.768116,105.095652 113.608696,105.243478 C113.495652,105.344928 113.405797,105.446377 113.33913,105.55942 C113.168116,105.843478 113.110145,106.171014 113.292754,106.533333 C113.472464,106.884058 113.77971,107.02029 114.095652,107.055072 C114.231884,107.066667 114.368116,107.055072 114.515942,107.02029 C114.730435,106.985507 114.991304,106.907246 115.295652,106.794203 Z" id="Fill-16"></path>
            <path d="M113.168116,168.173913 L113.144928,168.194203 C113.144928,168.205797 113.121739,168.217391 113.101449,168.24058 C113.066667,168.275362 113.008696,168.318841 112.953623,168.376812 C112.794203,168.524638 112.602899,168.681159 112.365217,168.863768 C111.707246,169.373913 110.915942,169.881159 109.997101,170.356522 C107.35942,171.727536 104.211594,172.542029 100.553623,172.542029 C96.9101449,172.542029 93.5130435,171.614493 90.4782609,170.063768 C89.4144928,169.518841 88.4724638,168.942029 87.6695652,168.365217 C87.3855072,168.162319 87.1362319,167.968116 86.9217391,167.8 C86.8550725,167.742029 86.7971014,167.695652 86.742029,167.652174 C86.7072464,167.617391 86.6956522,167.605797 86.684058,167.594203 L86.6608696,167.582609 C86.5275362,167.481159 86.4231884,167.402899 86.3565217,167.356522 C86.3217391,167.324638 86.2898551,167.301449 86.2782609,167.289855 C86.2550725,167.278261 86.2434783,167.266667 86.2318841,167.266667 C86.2086957,167.255072 86.2086957,167.255072 86.173913,167.243478 C86.1188406,167.2 86.1188406,167.2 85.8463768,167.333333 C85.7681159,167.628986 85.7681159,167.628986 85.8115942,167.686957 C85.8347826,167.707246 85.8347826,167.707246 85.8463768,167.730435 C85.857971,167.742029 85.8695652,167.753623 85.8927536,167.765217 C85.9043478,167.788406 85.9275362,167.811594 85.9594203,167.831884 C86.0289855,167.889855 86.1188406,167.968116 86.2550725,168.081159 C86.2550725,168.092754 86.2898551,168.115942 86.3217391,168.150725 C86.3913043,168.205797 86.4695652,168.275362 86.5478261,168.353623 C86.8086957,168.568116 87.0927536,168.817391 87.4202899,169.078261 C88.3594203,169.814493 89.4028986,170.562319 90.5333333,171.252174 C93.9188406,173.336232 97.3391304,174.536232 100.565217,174.423188 C103.669565,174.321739 106.724638,173.246377 109.623188,171.536232 C110.689855,170.913043 111.66087,170.231884 112.510145,169.553623 C112.817391,169.315942 113.078261,169.089855 113.304348,168.898551 C113.382609,168.828986 113.452174,168.762319 113.507246,168.715942 C113.553623,168.681159 113.576812,168.66087 113.588406,168.649275 L113.565217,168.66087 C113.77971,168.489855 113.95942,168.342029 114.072464,168.24058 C114.130435,168.194203 114.176812,168.150725 114.208696,168.127536 C114.22029,168.115942 114.243478,168.104348 114.255072,168.092754 C114.255072,168.081159 114.255072,168.081159 114.278261,168.057971 C114.321739,168.057971 114.321739,168.057971 114.278261,167.675362 C113.904348,167.562319 113.904348,167.562319 113.904348,167.594203 C113.881159,167.617391 113.881159,167.617391 113.869565,167.617391 C113.857971,167.628986 113.834783,167.64058 113.826087,167.652174 C113.791304,167.675362 113.744928,167.707246 113.689855,167.753623 C113.565217,167.855072 113.382609,168.002899 113.168116,168.173913 Z" id="Fill-17"></path>
            <path d="M115.330435,121.672464 L115.365217,121.66087 L115.388406,121.649275 C115.408696,121.637681 115.478261,121.602899 115.568116,121.568116 C115.727536,121.489855 115.918841,121.411594 116.144928,121.318841 C116.768116,121.06087 117.481159,120.8 118.263768,120.562319 C120.504348,119.881159 122.826087,119.463768 125.136232,119.463768 C127.434783,119.463768 129.768116,119.86087 131.985507,120.527536 C132.768116,120.765217 133.481159,121.014493 134.104348,121.263768 C134.330435,121.342029 134.521739,121.423188 134.681159,121.501449 C134.771014,121.536232 134.84058,121.568116 134.86087,121.57971 L134.907246,121.602899 C135.110145,121.681159 135.292754,121.73913 135.449275,121.773913 C135.573913,121.797101 135.686957,121.797101 135.823188,121.785507 C136.095652,121.750725 136.356522,121.626087 136.536232,121.342029 C136.718841,121.06087 136.707246,120.753623 136.617391,120.492754 C136.571014,120.368116 136.504348,120.266667 136.423188,120.165217 C136.333333,120.04058 136.197101,119.904348 136.028986,119.768116 L135.449275,120.449275 L136.072464,119.802899 C136.028986,119.756522 135.947826,119.689855 135.834783,119.588406 C135.666667,119.428986 135.46087,119.26087 135.223188,119.078261 C134.556522,118.556522 133.797101,118.026087 132.947826,117.53913 C130.524638,116.133333 127.886957,115.284058 125.136232,115.284058 C122.385507,115.284058 119.724638,116.113043 117.266667,117.481159 C116.405797,117.956522 115.637681,118.466667 114.956522,118.976812 C114.718841,119.156522 114.515942,119.327536 114.333333,119.486957 C114.22029,119.576812 114.142029,119.643478 114.095652,119.689855 L114.165217,119.631884 C113.892754,119.837681 113.678261,120.017391 113.530435,120.188406 C113.428986,120.301449 113.347826,120.426087 113.281159,120.550725 C113.156522,120.834783 113.121739,121.162319 113.315942,121.478261 C113.507246,121.797101 113.791304,121.930435 114.095652,121.965217 C114.243478,121.976812 114.37971,121.965217 114.53913,121.930435 C114.765217,121.886957 115.026087,121.805797 115.330435,121.672464 Z" id="Fill-18"></path>
            <path d="M87.0144928,106.794203 C87.3304348,106.907246 87.5913043,106.985507 87.7942029,107.02029 C87.942029,107.055072 88.0782609,107.066667 88.2144928,107.055072 C88.5304348,107.02029 88.8347826,106.884058 89.0173913,106.533333 C89.2086957,106.171014 89.142029,105.843478 88.9710145,105.55942 C88.9043478,105.446377 88.8144928,105.344928 88.7014493,105.243478 C88.542029,105.095652 88.3275362,104.924638 88.0550725,104.744928 L88.1101449,104.788406 C88.0550725,104.756522 87.9536232,104.675362 87.8173913,104.573913 C87.5797101,104.405797 87.3072464,104.211594 86.9913043,104.02029 C86.1072464,103.443478 85.0869565,102.875362 83.9681159,102.353623 C80.7391304,100.837681 77.2318841,99.9333333 73.573913,99.9333333 C69.8695652,99.9333333 65.9768116,101.223188 62.1043478,103.362319 C60.7565217,104.098551 59.5101449,104.892754 58.4,105.684058 C58.0057971,105.968116 57.6550725,106.226087 57.3478261,106.463768 C57.1681159,106.6 57.0434783,106.701449 56.973913,106.75942 L57.5507246,107.46087 L56.9971014,106.747826 C56.8376812,106.872464 56.7130435,106.973913 56.6115942,107.075362 C56.5449275,107.144928 56.4753623,107.223188 56.4202899,107.313043 C56.373913,107.405797 56.3304348,107.495652 56.3072464,107.62029 C56.2608696,107.834783 56.284058,108.072464 56.4202899,108.298551 C56.5681159,108.524638 56.7710145,108.649275 56.9855072,108.707246 C57.0985507,108.742029 57.2,108.742029 57.3043478,108.730435 C57.4173913,108.730435 57.5072464,108.707246 57.6086957,108.672464 C57.7333333,108.628986 57.8811594,108.55942 58.0608696,108.481159 L58.0956522,108.457971 C58.1072464,108.457971 58.142029,108.434783 58.1855072,108.411594 C58.2550725,108.37971 58.3449275,108.333333 58.4463768,108.275362 C58.7536232,108.130435 59.0927536,107.971014 59.4782609,107.791304 C60.5855072,107.281159 61.8202899,106.771014 63.1217391,106.295652 C65.9884058,105.252174 68.8057971,104.527536 71.4347826,104.257971 C72.1681159,104.176812 72.884058,104.133333 73.573913,104.133333 C76.7536232,104.133333 79.9594203,104.631884 83.0289855,105.457971 C84.0927536,105.750725 85.0666667,106.057971 85.9275362,106.373913 C86.2318841,106.475362 86.4927536,106.57971 86.7188406,106.669565 C86.7855072,106.692754 86.8550725,106.724638 86.9101449,106.747826 C86.9449275,106.75942 86.9681159,106.771014 86.9797101,106.771014 L86.9913043,106.782609 L87.0144928,106.794203 Z" id="Fill-19"></path>
            <path d="M86.9565217,121.672464 C87.2724638,121.805797 87.5333333,121.886957 87.7594203,121.930435 C87.9072464,121.965217 88.0550725,121.976812 88.2028986,121.965217 C88.5072464,121.930435 88.7913043,121.797101 88.9826087,121.478261 C89.1652174,121.162319 89.142029,120.834783 89.0173913,120.550725 C88.9507246,120.426087 88.8695652,120.301449 88.7681159,120.188406 C88.6086957,120.017391 88.4057971,119.837681 88.1333333,119.631884 L88.2028986,119.689855 C88.1565217,119.643478 88.0782609,119.576812 87.9652174,119.486957 C87.7826087,119.327536 87.5797101,119.156522 87.3304348,118.976812 C86.6608696,118.466667 85.8811594,117.956522 85.0318841,117.481159 C82.5623188,116.113043 79.9130435,115.284058 77.1623188,115.284058 C74.4115942,115.284058 71.773913,116.133333 69.3391304,117.53913 C68.5014493,118.026087 67.742029,118.556522 67.0753623,119.078261 C66.8376812,119.26087 66.6318841,119.428986 66.4521739,119.588406 C66.3507246,119.689855 66.2695652,119.756522 66.226087,119.802899 L66.8463768,120.449275 L66.257971,119.768116 C66.1014493,119.904348 65.9652174,120.04058 65.8637681,120.165217 C65.7826087,120.266667 65.7275362,120.368116 65.6811594,120.492754 C65.5797101,120.753623 65.5797101,121.06087 65.7623188,121.342029 C65.942029,121.626087 66.2028986,121.750725 66.4753623,121.785507 C66.6,121.797101 66.7246377,121.797101 66.8463768,121.773913 C67.0057971,121.73913 67.1884058,121.681159 67.3797101,121.602899 L67.4144928,121.591304 L67.4376812,121.57971 C67.457971,121.568116 67.515942,121.536232 67.6173913,121.501449 C67.7768116,121.423188 67.9681159,121.342029 68.1826087,121.263768 C68.8173913,121.014493 69.5188406,120.765217 70.3014493,120.527536 C72.5304348,119.86087 74.8637681,119.463768 77.1623188,119.463768 C79.4608696,119.463768 81.7942029,119.881159 84.0231884,120.562319 C84.8057971,120.8 85.5188406,121.06087 86.1536232,121.318841 C86.3681159,121.411594 86.5594203,121.489855 86.7304348,121.568116 C86.8202899,121.602899 86.8898551,121.637681 86.9101449,121.649275 L86.9565217,121.672464 Z" id="Fill-20"></path>
            <path d="M101.188406,154.405797 C106.713043,154.405797 107.686957,151.301449 109.373913,151.301449 C111.049275,151.301449 112.455072,152.718841 118.443478,152.524638 C122.101449,152.411594 126.028986,149.150725 127.252174,149.150725 C128.486957,149.150725 129.234783,149.423188 129.234783,150.089855 C129.234783,151.246377 127.626087,151.35942 126.472464,151.901449 C125.315942,152.434783 121.750725,155.026087 120.336232,156.237681 C118.930435,157.449275 110.655072,165.750725 101.188406,165.750725 C91.7246377,165.750725 83.4463768,157.449275 82.0434783,156.237681 C80.626087,155.026087 77.0608696,152.434783 75.9072464,151.901449 C74.7391304,151.35942 73.142029,151.246377 73.142029,150.089855 C73.142029,149.423188 73.8898551,149.150725 75.1130435,149.150725 C76.3478261,149.150725 80.2753623,152.411594 83.9333333,152.524638 C89.9130435,152.718841 91.3275362,151.301449 93.0028986,151.301449 C94.6898551,151.301449 95.6637681,154.405797 101.188406,154.405797 Z" id="Fill-21"></path>
            <path d="M101.585507,142.82029 C95.515942,142.8 94.3507246,138.768116 90.0695652,138.768116 C86.5275362,138.768116 84.6927536,142.414493 80.026087,142.414493 C73.2898551,142.414493 71.0376812,140.942029 71.0376812,140.942029 C71.0376812,140.942029 73.7884058,144.101449 80.8550725,144.101449 C86.4115942,144.101449 85.4724638,141.362319 90.0695652,141.362319 C94.6318841,141.362319 94.1130435,146.727536 101.527536,146.785507 L101.585507,146.785507 L101.64058,146.785507 C109.057971,146.727536 108.536232,141.362319 113.101449,141.362319 C117.695652,141.362319 116.756522,144.101449 122.315942,144.101449 C129.382609,144.101449 132.133333,140.942029 132.133333,140.942029 C132.133333,140.942029 129.881159,142.414493 123.142029,142.414493 C118.478261,142.414493 116.643478,138.768116 113.101449,138.768116 C108.82029,138.768116 107.666667,142.8 101.585507,142.82029 Z" id="Fill-22"></path>
        </g>
    </g>
</svg>