<?xml version="1.0" encoding="UTF-8"?>
<svg width="55px" height="67px" viewBox="0 0 55 67" version="1.1" xmlns="http://www.w3.org/2000/svg" xmlns:xlink="http://www.w3.org/1999/xlink">
    <!-- Generator: Sketch 43.2 (39069) - http://www.bohemiancoding.com/sketch -->
    <title>Page 1</title>
    <desc>Created with Sketch.</desc>
    <defs></defs>
    <g id="Page-1" stroke="none" stroke-width="1" fill="none" fill-rule="evenodd">
        <g fill="#E46300">
            <path d="M46.312,8.008 C41.496,3.191 34.848,0.211 27.5,0.211 C20.152,0.211 13.5,3.188 8.688,8.004 C3.875,12.816 0.898,19.469 0.898,26.816 L0.895,26.816 C0.895,30.281 1.621,33.535 2.867,36.539 C4.258,39.895 6.289,42.93 8.664,45.602 L27.023,66.246 L27.5,66.789 L27.977,66.25 L46.336,45.605 C48.711,42.934 50.742,39.895 52.133,36.543 C53.375,33.539 54.105,30.285 54.105,26.82 C54.105,19.473 51.129,12.82 46.312,8.008 Z M50.953,36.055 C49.625,39.262 47.672,42.176 45.383,44.754 L27.5,64.859 L9.617,44.75 C7.328,42.172 5.375,39.258 4.047,36.051 C2.867,33.199 2.176,30.109 2.176,26.812 L2.172,26.812 C2.172,19.82 5.008,13.488 9.594,8.906 C14.176,4.324 20.508,1.488 27.5,1.488 C34.492,1.488 40.824,4.324 45.406,8.906 C49.988,13.488 52.824,19.82 52.824,26.812 C52.824,30.113 52.133,33.203 50.953,36.055 Z" id="Fill-1"></path>
            <path d="M28.812,19.367 L28.816,19.371 C28.914,19.461 28.992,19.574 29.047,19.695 C29.098,19.812 29.125,19.945 29.125,20.09 C29.125,20.211 29.105,20.32 29.074,20.418 C29.039,20.523 28.984,20.621 28.914,20.707 C28.676,21.004 28.688,21.418 28.918,21.703 C28.988,21.789 29.039,21.887 29.078,21.988 C29.113,22.086 29.129,22.195 29.129,22.316 C29.129,22.441 29.105,22.559 29.066,22.664 C29.023,22.777 28.961,22.879 28.883,22.969 C28.594,23.301 28.625,23.801 28.957,24.09 C29.047,24.168 29.152,24.227 29.266,24.258 L29.266,24.262 C29.395,24.297 29.523,24.344 29.645,24.391 C29.773,24.441 29.895,24.5 30.008,24.562 C30.395,24.77 30.879,24.625 31.086,24.238 C31.148,24.121 31.18,23.996 31.18,23.871 C31.188,23.758 31.219,23.645 31.266,23.535 C31.316,23.426 31.387,23.324 31.477,23.234 C31.562,23.152 31.652,23.09 31.75,23.047 C31.852,23 31.961,22.973 32.066,22.961 C32.445,22.926 32.738,22.633 32.785,22.273 C32.801,22.164 32.832,22.059 32.883,21.957 C32.93,21.859 32.996,21.77 33.078,21.691 C33.18,21.594 33.297,21.52 33.418,21.477 C33.543,21.43 33.684,21.41 33.82,21.418 C34.258,21.441 34.633,21.102 34.656,20.664 L34.656,20.582 C34.656,20.461 34.684,20.332 34.734,20.215 C34.785,20.094 34.859,19.98 34.961,19.883 C35.008,19.836 35.059,19.797 35.105,19.766 C35.16,19.73 35.215,19.699 35.273,19.68 C35.68,19.512 35.875,19.047 35.707,18.641 C35.652,18.504 35.562,18.391 35.453,18.309 C34.652,17.703 33.77,17.195 32.82,16.801 C31.898,16.418 30.918,16.148 29.898,16.008 C29.465,15.945 29.062,16.25 29,16.688 C28.98,16.832 29,16.977 29.055,17.105 C29.078,17.164 29.098,17.227 29.113,17.289 C29.125,17.352 29.133,17.418 29.133,17.484 C29.133,17.629 29.105,17.762 29.055,17.879 C29,18.004 28.922,18.113 28.82,18.207 C28.496,18.508 28.48,19.012 28.777,19.332 C28.785,19.344 28.801,19.355 28.812,19.367 Z M30.508,18.508 C30.609,18.277 30.676,18.031 30.707,17.773 C31.227,17.898 31.73,18.066 32.211,18.266 C32.699,18.469 33.176,18.711 33.625,18.984 C33.473,19.176 33.352,19.383 33.262,19.598 C33.223,19.695 33.188,19.793 33.16,19.891 C33.062,19.914 32.961,19.945 32.863,19.98 C32.539,20.102 32.234,20.289 31.973,20.539 C31.758,20.746 31.586,20.98 31.457,21.234 C31.414,21.32 31.375,21.406 31.344,21.492 C31.258,21.52 31.168,21.555 31.086,21.594 C30.941,21.66 30.805,21.738 30.672,21.832 C30.648,21.707 30.613,21.582 30.57,21.461 C30.539,21.371 30.504,21.285 30.461,21.199 C30.5,21.113 30.539,21.027 30.57,20.938 C30.664,20.668 30.715,20.379 30.715,20.086 C30.715,19.723 30.637,19.375 30.5,19.059 C30.457,18.965 30.41,18.871 30.359,18.781 C30.418,18.695 30.465,18.605 30.508,18.508 Z" id="Fill-2"></path>
            <path d="M17.047,27.195 C17.195,27.215 17.336,27.191 17.465,27.137 L17.465,27.141 C17.527,27.113 17.59,27.094 17.648,27.082 C17.715,27.066 17.781,27.059 17.844,27.059 C17.984,27.059 18.117,27.086 18.238,27.137 C18.363,27.188 18.477,27.27 18.57,27.367 C18.875,27.688 19.379,27.699 19.695,27.395 C19.707,27.383 19.719,27.371 19.73,27.355 C19.824,27.254 19.934,27.172 20.059,27.117 C20.18,27.062 20.312,27.035 20.449,27.031 C20.559,27.031 20.672,27.051 20.777,27.086 C20.883,27.121 20.98,27.176 21.066,27.242 C21.375,27.484 21.809,27.465 22.09,27.211 C22.168,27.152 22.254,27.102 22.348,27.07 C22.449,27.035 22.559,27.012 22.676,27.012 C22.793,27.012 22.914,27.031 23.023,27.074 C23.137,27.117 23.242,27.176 23.328,27.254 C23.66,27.543 24.164,27.508 24.453,27.172 C24.543,27.07 24.598,26.953 24.629,26.828 C24.66,26.723 24.699,26.609 24.746,26.492 C24.793,26.371 24.848,26.25 24.906,26.137 C25.109,25.746 24.953,25.266 24.562,25.062 C24.445,25.004 24.32,24.973 24.195,24.973 C24.082,24.965 23.969,24.938 23.863,24.891 C23.754,24.844 23.648,24.773 23.559,24.68 C23.48,24.602 23.418,24.508 23.371,24.41 C23.32,24.309 23.293,24.199 23.281,24.094 C23.242,23.715 22.941,23.426 22.578,23.387 C22.469,23.375 22.363,23.344 22.262,23.297 C22.16,23.25 22.07,23.184 21.992,23.105 C21.895,23.008 21.82,22.891 21.773,22.773 C21.723,22.645 21.703,22.508 21.707,22.375 C21.723,21.938 21.383,21.566 20.941,21.547 L20.875,21.547 C20.742,21.547 20.609,21.523 20.488,21.477 C20.367,21.43 20.254,21.355 20.156,21.254 C20.109,21.207 20.07,21.16 20.039,21.113 L20.039,21.109 C20.004,21.055 19.973,21 19.949,20.949 C19.777,20.543 19.309,20.355 18.906,20.527 C18.766,20.586 18.652,20.684 18.57,20.797 C17.984,21.598 17.496,22.473 17.121,23.406 C16.754,24.32 16.496,25.289 16.367,26.301 C16.305,26.738 16.609,27.137 17.047,27.195 Z M18.594,24 C18.789,23.516 19.02,23.047 19.281,22.602 C19.473,22.75 19.684,22.867 19.902,22.953 C20,22.992 20.098,23.023 20.195,23.051 C20.223,23.152 20.254,23.25 20.289,23.348 C20.414,23.672 20.605,23.973 20.863,24.23 C21.074,24.445 21.312,24.613 21.562,24.734 L21.562,24.73 L21.566,24.734 C21.648,24.773 21.734,24.812 21.82,24.844 C21.852,24.93 21.887,25.02 21.926,25.105 C21.988,25.238 22.062,25.363 22.152,25.484 C22.035,25.508 21.926,25.543 21.816,25.582 C21.727,25.613 21.641,25.648 21.559,25.691 C21.473,25.652 21.387,25.613 21.293,25.586 C21.027,25.496 20.742,25.449 20.441,25.449 C20.074,25.453 19.727,25.531 19.414,25.672 C19.32,25.715 19.227,25.762 19.141,25.812 C19.051,25.762 18.961,25.715 18.863,25.672 C18.633,25.574 18.387,25.508 18.125,25.48 C18.246,24.973 18.402,24.477 18.594,24 Z" id="Fill-3"></path>
            <path d="M21.234,19.645 L21.234,19.645 C21.293,19.668 21.352,19.699 21.406,19.738 C21.457,19.773 21.508,19.816 21.559,19.863 C21.656,19.965 21.73,20.078 21.777,20.195 C21.828,20.324 21.848,20.461 21.844,20.598 C21.828,21.039 22.172,21.406 22.609,21.422 L22.676,21.422 C22.809,21.418 22.938,21.441 23.062,21.492 C23.184,21.539 23.297,21.613 23.398,21.715 C23.477,21.793 23.539,21.887 23.586,21.984 C23.637,22.086 23.668,22.195 23.676,22.301 C23.715,22.68 24.016,22.965 24.379,23.008 C24.488,23.02 24.594,23.051 24.695,23.098 C24.797,23.145 24.887,23.211 24.965,23.289 C25.051,23.375 25.117,23.473 25.164,23.578 C25.211,23.688 25.242,23.805 25.246,23.922 C25.273,24.363 25.648,24.695 26.09,24.672 C26.211,24.664 26.324,24.629 26.426,24.574 C26.543,24.508 26.652,24.453 26.75,24.414 C26.852,24.367 26.965,24.328 27.086,24.289 C27.504,24.152 27.734,23.707 27.602,23.289 C27.566,23.172 27.504,23.07 27.422,22.988 C27.336,22.895 27.266,22.789 27.223,22.676 C27.18,22.57 27.156,22.445 27.156,22.312 C27.156,22.191 27.176,22.082 27.211,21.984 C27.246,21.883 27.301,21.785 27.371,21.695 C27.609,21.398 27.598,20.98 27.363,20.695 C27.297,20.609 27.242,20.516 27.207,20.414 C27.172,20.316 27.152,20.207 27.152,20.086 C27.152,19.941 27.18,19.809 27.23,19.691 C27.285,19.566 27.363,19.457 27.465,19.363 C27.785,19.062 27.805,18.559 27.504,18.238 C27.492,18.223 27.477,18.211 27.465,18.199 L27.461,18.195 C27.363,18.105 27.285,17.992 27.23,17.871 C27.18,17.754 27.152,17.621 27.152,17.48 C27.152,17.41 27.16,17.348 27.168,17.293 C27.18,17.227 27.199,17.164 27.219,17.113 C27.379,16.707 27.18,16.242 26.773,16.082 C26.637,16.027 26.492,16.016 26.359,16.035 C25.387,16.188 24.453,16.457 23.574,16.828 C22.676,17.207 21.832,17.695 21.059,18.273 C20.707,18.539 20.637,19.035 20.898,19.387 C20.992,19.504 21.109,19.594 21.234,19.645 Z M24.191,18.293 C24.641,18.105 25.102,17.945 25.578,17.82 C25.609,18.059 25.676,18.293 25.77,18.508 C25.812,18.602 25.859,18.695 25.91,18.785 C25.859,18.875 25.809,18.965 25.77,19.062 C25.629,19.383 25.555,19.73 25.555,20.09 C25.555,20.383 25.605,20.668 25.699,20.941 C25.73,21.031 25.766,21.117 25.809,21.203 C25.77,21.289 25.73,21.375 25.699,21.465 C25.664,21.57 25.633,21.68 25.609,21.793 C25.539,21.746 25.465,21.707 25.387,21.672 L25.383,21.672 C25.301,21.633 25.215,21.594 25.129,21.562 C25.098,21.477 25.062,21.387 25.023,21.301 C24.902,21.047 24.738,20.809 24.523,20.594 C24.27,20.336 23.969,20.141 23.648,20.016 C23.555,19.977 23.453,19.945 23.355,19.918 C23.328,19.816 23.297,19.719 23.262,19.625 C23.172,19.391 23.043,19.168 22.883,18.961 C23.301,18.711 23.738,18.484 24.191,18.293 Z" id="Fill-4"></path>
            <path d="M39.359,23.414 C38.988,22.484 38.504,21.617 37.93,20.828 C37.672,20.469 37.172,20.391 36.816,20.648 C36.695,20.734 36.605,20.852 36.551,20.977 C36.523,21.043 36.492,21.098 36.457,21.148 C36.422,21.199 36.379,21.25 36.328,21.297 C36.227,21.398 36.109,21.469 35.988,21.512 C35.859,21.559 35.723,21.578 35.586,21.57 C35.148,21.547 34.773,21.887 34.75,22.324 L34.75,22.406 C34.75,22.531 34.723,22.656 34.672,22.773 C34.621,22.895 34.547,23.008 34.445,23.105 C34.359,23.188 34.27,23.25 34.172,23.293 C34.07,23.34 33.961,23.367 33.852,23.379 C33.473,23.414 33.18,23.707 33.133,24.066 C33.117,24.176 33.086,24.281 33.035,24.383 C32.988,24.48 32.922,24.57 32.84,24.648 C32.754,24.734 32.652,24.797 32.547,24.844 C32.434,24.891 32.316,24.918 32.203,24.926 C31.766,24.945 31.422,25.316 31.441,25.754 C31.449,25.887 31.488,26.012 31.551,26.121 C31.602,26.223 31.652,26.328 31.695,26.438 C31.742,26.547 31.781,26.668 31.82,26.793 C31.945,27.215 32.387,27.457 32.809,27.332 C32.938,27.293 33.051,27.227 33.141,27.137 C33.227,27.066 33.324,27.008 33.434,26.969 C33.551,26.926 33.676,26.902 33.801,26.906 C33.914,26.91 34.023,26.93 34.125,26.969 C34.227,27.008 34.324,27.066 34.41,27.137 C34.711,27.391 35.148,27.379 35.438,27.133 C35.516,27.078 35.602,27.039 35.691,27.008 C35.797,26.973 35.906,26.957 36.02,26.961 C36.156,26.965 36.289,26.996 36.41,27.055 C36.531,27.109 36.641,27.195 36.73,27.297 C37.023,27.625 37.527,27.656 37.855,27.363 C37.875,27.344 37.898,27.324 37.914,27.305 C38.004,27.219 38.109,27.148 38.227,27.102 C38.352,27.051 38.484,27.023 38.621,27.027 C38.68,27.027 38.742,27.035 38.809,27.051 C38.875,27.066 38.934,27.082 38.984,27.105 C39.391,27.277 39.855,27.09 40.031,26.684 C40.094,26.535 40.109,26.375 40.082,26.227 C39.969,25.25 39.715,24.305 39.359,23.414 Z M37.648,25.625 C37.551,25.664 37.457,25.711 37.367,25.762 C37.281,25.707 37.188,25.66 37.094,25.613 C36.785,25.473 36.438,25.387 36.07,25.379 C35.773,25.371 35.484,25.414 35.219,25.5 C35.129,25.527 35.043,25.562 34.957,25.602 C34.875,25.559 34.785,25.52 34.699,25.488 C34.578,25.441 34.445,25.402 34.316,25.379 C34.375,25.293 34.426,25.203 34.473,25.109 C34.516,25.023 34.551,24.938 34.586,24.852 C34.672,24.824 34.762,24.789 34.844,24.75 C35.102,24.633 35.348,24.469 35.559,24.266 C35.824,24.012 36.02,23.715 36.152,23.398 C36.191,23.301 36.227,23.203 36.254,23.105 C36.355,23.082 36.453,23.051 36.547,23.016 C36.781,22.93 37.008,22.805 37.211,22.648 C37.469,23.086 37.691,23.543 37.879,24.016 C38.066,24.48 38.219,24.965 38.336,25.461 C38.098,25.48 37.863,25.539 37.648,25.625 Z" id="Fill-5"></path>
            <path d="M45.797,26.016 L45.797,26.012 C45.328,25.543 44.684,25.254 43.973,25.254 C43.789,25.254 43.605,25.273 43.434,25.312 C43.238,24.125 42.906,22.988 42.453,21.918 C41.992,20.816 41.406,19.777 40.711,18.824 C40.883,18.715 41.035,18.582 41.176,18.434 C41.609,17.973 41.879,17.348 41.879,16.668 C41.879,15.957 41.59,15.312 41.121,14.844 L41.117,14.84 C40.648,14.375 40.004,14.082 39.293,14.082 C38.605,14.082 37.977,14.352 37.512,14.793 C37.359,14.938 37.227,15.098 37.113,15.273 C36.16,14.598 35.129,14.031 34.035,13.586 C32.965,13.152 31.836,12.832 30.664,12.645 C30.699,12.477 30.719,12.301 30.719,12.125 C30.719,11.41 30.43,10.766 29.961,10.297 L29.957,10.301 L29.957,10.297 C29.488,9.832 28.844,9.539 28.133,9.539 C27.418,9.539 26.773,9.828 26.305,10.297 C25.836,10.766 25.547,11.41 25.547,12.125 C25.547,12.312 25.566,12.496 25.609,12.676 C24.445,12.875 23.324,13.203 22.27,13.645 C21.203,14.094 20.195,14.66 19.262,15.324 C19.152,15.148 19.023,14.984 18.875,14.84 C18.406,14.379 17.77,14.098 17.066,14.098 C16.352,14.098 15.707,14.387 15.238,14.855 C14.77,15.324 14.48,15.969 14.48,16.68 C14.48,17.383 14.762,18.02 15.223,18.488 C15.367,18.633 15.531,18.766 15.707,18.875 C15.023,19.824 14.445,20.852 13.992,21.941 C13.551,23 13.227,24.121 13.031,25.285 C12.828,25.234 12.617,25.207 12.402,25.207 C11.691,25.207 11.043,25.496 10.574,25.965 C10.105,26.434 9.816,27.078 9.816,27.793 C9.816,28.508 10.105,29.152 10.574,29.621 C11.043,30.09 11.688,30.379 12.398,30.379 C12.605,30.379 12.809,30.352 13.008,30.305 C13.199,31.5 13.527,32.648 13.977,33.738 C14.434,34.848 15.02,35.891 15.707,36.848 C15.523,36.957 15.352,37.09 15.199,37.242 L15.195,37.246 C14.727,37.711 14.438,38.359 14.438,39.07 C14.438,39.785 14.727,40.43 15.195,40.898 C15.664,41.367 16.309,41.656 17.02,41.656 C17.734,41.656 18.379,41.367 18.848,40.898 C19,40.746 19.133,40.574 19.242,40.387 C20.184,41.062 21.203,41.633 22.289,42.086 C23.352,42.527 24.477,42.855 25.648,43.055 C25.598,43.254 25.57,43.465 25.57,43.676 C25.57,44.391 25.859,45.035 26.328,45.504 C26.797,45.969 27.441,46.262 28.152,46.262 C28.863,46.262 29.512,45.973 29.98,45.504 C30.449,45.035 30.738,44.391 30.738,43.676 C30.738,43.473 30.715,43.27 30.668,43.074 C31.836,42.887 32.957,42.57 34.02,42.137 C35.117,41.691 36.152,41.121 37.105,40.445 C37.215,40.625 37.348,40.789 37.496,40.934 C37.961,41.387 38.598,41.668 39.297,41.668 C39.98,41.668 40.609,41.398 41.07,40.961 C41.086,40.945 41.105,40.93 41.121,40.914 C41.59,40.449 41.879,39.801 41.879,39.086 C41.879,38.395 41.605,37.762 41.156,37.297 C41.016,37.152 40.859,37.02 40.684,36.91 C41.383,35.949 41.973,34.91 42.434,33.801 C42.887,32.715 43.223,31.562 43.418,30.363 C43.59,30.402 43.77,30.418 43.953,30.418 C44.664,30.418 45.309,30.129 45.777,29.66 L45.781,29.656 C46.25,29.188 46.539,28.543 46.539,27.832 C46.539,27.117 46.25,26.473 45.781,26.004 L45.797,26.016 Z M44.668,28.535 C44.492,28.711 44.242,28.824 43.969,28.824 C43.84,28.824 43.723,28.801 43.617,28.762 C43.504,28.719 43.402,28.656 43.312,28.578 C42.984,28.289 42.48,28.316 42.191,28.648 C42.07,28.785 42.004,28.949 41.992,29.121 C41.863,30.547 41.516,31.918 40.98,33.195 C40.43,34.512 39.684,35.723 38.773,36.793 C38.488,37.129 38.531,37.633 38.867,37.918 C39.016,38.043 39.199,38.105 39.383,38.105 C39.633,38.121 39.859,38.234 40.027,38.406 C40.199,38.582 40.301,38.824 40.301,39.09 C40.301,39.363 40.191,39.609 40.012,39.789 L39.984,39.82 C39.809,39.98 39.574,40.078 39.316,40.078 C39.047,40.078 38.805,39.973 38.625,39.801 C38.445,39.629 38.332,39.387 38.328,39.121 C38.316,38.684 37.953,38.336 37.516,38.344 C37.328,38.348 37.16,38.418 37.027,38.527 L37.027,38.523 C35.957,39.41 34.75,40.137 33.441,40.668 C32.172,41.184 30.809,41.52 29.387,41.633 C28.945,41.668 28.621,42.051 28.652,42.492 C28.668,42.699 28.762,42.883 28.906,43.012 C28.984,43.098 29.051,43.199 29.094,43.305 L29.105,43.332 C29.145,43.434 29.164,43.551 29.164,43.68 C29.164,43.953 29.055,44.199 28.875,44.379 C28.695,44.559 28.449,44.668 28.176,44.668 C27.902,44.668 27.656,44.559 27.477,44.379 C27.297,44.199 27.188,43.953 27.188,43.68 C27.188,43.543 27.215,43.414 27.262,43.301 C27.312,43.18 27.387,43.07 27.477,42.98 C27.789,42.672 27.789,42.164 27.48,41.855 C27.336,41.707 27.145,41.629 26.949,41.621 C25.539,41.492 24.184,41.145 22.918,40.617 C21.609,40.07 20.402,39.328 19.336,38.43 C19,38.145 18.496,38.188 18.215,38.523 C18.078,38.684 18.02,38.879 18.027,39.074 L18.023,39.074 C18.023,39.348 17.914,39.594 17.734,39.773 C17.555,39.953 17.309,40.062 17.035,40.062 C16.762,40.062 16.516,39.953 16.336,39.777 L16.336,39.773 C16.156,39.594 16.047,39.348 16.047,39.074 C16.047,38.801 16.156,38.555 16.336,38.375 C16.516,38.199 16.762,38.086 17.035,38.086 C17.062,38.086 17.09,38.086 17.113,38.082 C17.527,38.059 17.855,37.719 17.863,37.297 C17.867,37.098 17.793,36.914 17.676,36.773 C16.758,35.688 16.008,34.461 15.457,33.133 C14.926,31.844 14.582,30.457 14.465,29 C14.43,28.559 14.047,28.234 13.609,28.266 C13.398,28.281 13.215,28.379 13.086,28.523 C13,28.602 12.898,28.668 12.793,28.715 C12.68,28.762 12.555,28.785 12.414,28.785 C12.141,28.785 11.895,28.676 11.715,28.496 C11.535,28.316 11.426,28.07 11.426,27.797 C11.426,27.523 11.535,27.277 11.715,27.098 C11.895,26.918 12.141,26.809 12.41,26.809 C12.551,26.809 12.68,26.836 12.793,26.883 C12.914,26.934 13.023,27.008 13.113,27.098 C13.422,27.41 13.926,27.414 14.238,27.105 C14.387,26.961 14.469,26.766 14.477,26.57 C14.605,25.164 14.949,23.812 15.477,22.551 C16.023,21.242 16.762,20.035 17.652,18.973 C17.934,18.637 17.891,18.137 17.555,17.852 C17.41,17.73 17.23,17.668 17.055,17.664 C16.785,17.66 16.543,17.547 16.367,17.367 C16.195,17.191 16.086,16.945 16.086,16.676 C16.086,16.402 16.195,16.156 16.375,15.977 C16.555,15.797 16.801,15.688 17.07,15.688 C17.344,15.688 17.586,15.797 17.766,15.969 C17.945,16.145 18.059,16.387 18.062,16.656 C18.07,17.094 18.43,17.445 18.871,17.438 C19.062,17.434 19.234,17.363 19.367,17.254 C20.418,16.375 21.605,15.645 22.891,15.105 C24.145,14.578 25.484,14.234 26.883,14.098 C27.32,14.055 27.641,13.668 27.602,13.23 C27.586,13.055 27.512,12.895 27.402,12.773 C27.324,12.684 27.258,12.582 27.215,12.469 C27.207,12.453 27.203,12.438 27.195,12.422 C27.168,12.328 27.148,12.227 27.148,12.113 C27.148,11.84 27.258,11.594 27.438,11.414 C27.617,11.234 27.863,11.125 28.137,11.125 C28.41,11.125 28.656,11.234 28.836,11.414 C29.016,11.594 29.125,11.84 29.125,12.113 C29.125,12.238 29.102,12.355 29.062,12.461 C29.02,12.57 28.957,12.672 28.879,12.762 C28.59,13.094 28.621,13.598 28.949,13.887 C29.082,14.004 29.246,14.07 29.41,14.082 C30.824,14.203 32.176,14.535 33.438,15.047 C34.738,15.578 35.941,16.297 37.004,17.172 C37.344,17.449 37.844,17.402 38.125,17.062 C38.238,16.926 38.297,16.762 38.305,16.594 C38.316,16.332 38.434,16.098 38.609,15.93 C38.785,15.762 39.023,15.66 39.289,15.66 C39.562,15.66 39.809,15.77 39.988,15.949 C40.168,16.129 40.277,16.375 40.277,16.648 C40.277,16.91 40.176,17.148 40.012,17.324 C39.844,17.504 39.613,17.617 39.355,17.633 C38.918,17.66 38.582,18.035 38.605,18.477 C38.617,18.656 38.688,18.816 38.793,18.945 C39.691,20.008 40.43,21.211 40.977,22.512 C41.508,23.781 41.855,25.145 41.988,26.562 C42.027,27 42.414,27.324 42.852,27.285 C43.031,27.27 43.195,27.191 43.32,27.078 C43.402,27.008 43.504,26.945 43.617,26.902 C43.723,26.863 43.844,26.84 43.969,26.84 C44.242,26.84 44.488,26.949 44.668,27.129 C44.848,27.309 44.957,27.555 44.957,27.828 C44.957,28.109 44.848,28.359 44.668,28.535 Z" id="Fill-6"></path>
            <path d="M39.398,28.895 C39.254,28.871 39.109,28.887 38.98,28.938 C38.922,28.961 38.859,28.98 38.793,28.988 C38.723,29 38.656,29.008 38.594,29.004 C38.457,29 38.324,28.969 38.203,28.91 C38.082,28.855 37.973,28.77 37.883,28.668 C37.59,28.34 37.086,28.309 36.758,28.602 C36.734,28.621 36.715,28.641 36.699,28.66 C36.609,28.746 36.504,28.816 36.387,28.863 C36.262,28.914 36.129,28.941 35.992,28.938 C35.879,28.934 35.77,28.914 35.668,28.875 C35.566,28.836 35.469,28.777 35.383,28.707 C35.078,28.453 34.645,28.465 34.352,28.711 C34.273,28.762 34.188,28.805 34.098,28.836 C33.992,28.871 33.883,28.887 33.77,28.883 C33.648,28.879 33.531,28.855 33.422,28.809 C33.309,28.762 33.207,28.699 33.121,28.617 C32.797,28.32 32.293,28.34 31.996,28.664 C31.906,28.762 31.844,28.875 31.812,28.996 C31.781,29.09 31.746,29.188 31.707,29.285 C31.66,29.395 31.613,29.496 31.562,29.598 C31.359,29.988 31.508,30.469 31.895,30.676 C32.012,30.738 32.137,30.766 32.262,30.766 C32.375,30.773 32.488,30.801 32.594,30.848 L32.625,30.859 C32.723,30.906 32.816,30.973 32.898,31.062 C32.98,31.145 33.043,31.234 33.086,31.332 C33.133,31.434 33.164,31.539 33.172,31.648 C33.207,32.027 33.504,32.316 33.867,32.359 L33.867,32.363 C33.977,32.375 34.086,32.41 34.184,32.457 C34.281,32.504 34.371,32.57 34.453,32.652 C34.547,32.75 34.621,32.863 34.668,32.988 C34.719,33.117 34.738,33.254 34.734,33.391 C34.715,33.832 35.055,34.203 35.496,34.219 L35.57,34.219 C35.695,34.219 35.824,34.242 35.945,34.293 C36.066,34.344 36.184,34.418 36.277,34.516 C36.32,34.559 36.359,34.609 36.395,34.66 C36.43,34.711 36.461,34.766 36.48,34.824 C36.648,35.23 37.113,35.426 37.523,35.254 C37.676,35.191 37.793,35.086 37.879,34.961 C38.43,34.215 38.898,33.395 39.27,32.523 C39.637,31.66 39.902,30.746 40.059,29.797 C40.125,29.375 39.832,28.965 39.398,28.895 Z M37.801,31.914 C37.617,32.352 37.402,32.773 37.156,33.18 C36.965,33.031 36.758,32.91 36.539,32.82 C36.441,32.781 36.344,32.75 36.246,32.723 C36.223,32.621 36.191,32.523 36.152,32.426 C36.031,32.105 35.84,31.805 35.582,31.539 C35.375,31.328 35.137,31.156 34.883,31.031 C34.797,30.988 34.711,30.953 34.625,30.922 C34.594,30.836 34.559,30.75 34.52,30.664 C34.477,30.578 34.434,30.492 34.383,30.406 C34.449,30.391 34.512,30.371 34.578,30.352 C34.668,30.324 34.754,30.289 34.84,30.25 C34.922,30.293 35.012,30.332 35.098,30.363 C35.359,30.461 35.645,30.52 35.945,30.527 C36.312,30.535 36.664,30.469 36.977,30.34 C37.074,30.301 37.168,30.258 37.258,30.207 C37.344,30.262 37.438,30.309 37.531,30.355 C37.758,30.461 38,30.531 38.258,30.566 C38.141,31.035 37.984,31.484 37.801,31.914 Z" id="Fill-7"></path>
            <path d="M21.742,33.426 L21.742,33.348 C21.742,33.223 21.77,33.094 21.816,32.973 C21.867,32.852 21.941,32.738 22.043,32.641 C22.125,32.562 22.215,32.5 22.312,32.453 C22.418,32.406 22.523,32.375 22.629,32.367 C23.012,32.332 23.309,32.023 23.344,31.652 C23.359,31.555 23.391,31.453 23.441,31.355 C23.492,31.258 23.555,31.168 23.637,31.09 C23.727,31.004 23.824,30.938 23.93,30.891 C24.039,30.844 24.156,30.816 24.273,30.809 C24.711,30.789 25.051,30.414 25.031,29.977 C25.023,29.855 24.992,29.738 24.938,29.637 C24.879,29.527 24.832,29.43 24.793,29.344 L24.797,29.344 C24.746,29.223 24.703,29.125 24.676,29.039 C24.539,28.621 24.09,28.398 23.672,28.535 C23.555,28.574 23.453,28.637 23.371,28.715 C23.285,28.797 23.18,28.867 23.062,28.914 C22.945,28.961 22.824,28.988 22.699,28.988 C22.59,28.988 22.477,28.969 22.371,28.934 C22.266,28.898 22.168,28.844 22.082,28.777 C21.773,28.535 21.34,28.555 21.059,28.809 C20.98,28.867 20.895,28.914 20.801,28.949 C20.699,28.984 20.59,29.008 20.473,29.008 C20.336,29.008 20.199,28.98 20.078,28.93 C19.953,28.875 19.84,28.797 19.746,28.699 C19.441,28.379 18.938,28.367 18.621,28.672 C18.609,28.684 18.594,28.695 18.586,28.711 C18.492,28.812 18.383,28.895 18.258,28.949 C18.137,29.004 18.004,29.031 17.867,29.035 C17.801,29.035 17.738,29.031 17.676,29.02 C17.617,29.008 17.559,28.992 17.496,28.969 C17.086,28.809 16.625,29.016 16.469,29.426 C16.418,29.562 16.402,29.703 16.426,29.84 C16.582,30.77 16.844,31.668 17.203,32.52 C17.57,33.387 18.031,34.199 18.578,34.945 C18.84,35.301 19.336,35.375 19.691,35.117 C19.812,35.027 19.902,34.91 19.957,34.777 C19.984,34.715 20.016,34.66 20.047,34.613 L20.051,34.613 C20.086,34.559 20.129,34.512 20.176,34.465 C20.277,34.367 20.391,34.297 20.512,34.25 C20.641,34.203 20.777,34.18 20.914,34.188 C21.348,34.203 21.719,33.867 21.742,33.426 Z M20.344,32.371 C20.305,32.469 20.27,32.566 20.242,32.664 C20.141,32.688 20.043,32.719 19.945,32.754 C19.711,32.844 19.488,32.965 19.281,33.125 C19.047,32.73 18.84,32.32 18.66,31.895 C18.484,31.477 18.332,31.043 18.211,30.598 C18.453,30.562 18.684,30.496 18.898,30.402 C18.992,30.359 19.086,30.312 19.172,30.262 C19.262,30.312 19.355,30.359 19.449,30.402 C19.762,30.535 20.113,30.609 20.48,30.605 C20.777,30.602 21.066,30.551 21.332,30.453 C21.422,30.422 21.508,30.387 21.59,30.344 C21.676,30.383 21.762,30.418 21.855,30.449 C21.93,30.477 22.004,30.496 22.082,30.516 C22.055,30.559 22.031,30.602 22.012,30.648 C21.969,30.73 21.934,30.82 21.902,30.906 C21.816,30.938 21.727,30.973 21.645,31.008 C21.387,31.129 21.145,31.293 20.93,31.5 C20.668,31.758 20.473,32.051 20.344,32.371 Z" id="Fill-8"></path>
            <path d="M27.59,36.344 C27.496,36.254 27.422,36.145 27.371,36.027 C27.32,35.906 27.289,35.77 27.289,35.629 C27.289,35.52 27.312,35.414 27.348,35.305 C27.387,35.195 27.441,35.098 27.508,35.016 C27.742,34.723 27.738,34.309 27.512,34.023 C27.441,33.938 27.391,33.84 27.352,33.734 L27.352,33.73 C27.316,33.625 27.297,33.512 27.297,33.402 C27.297,33.285 27.324,33.168 27.363,33.055 L27.379,33.008 C27.418,32.918 27.477,32.832 27.547,32.754 C27.84,32.426 27.812,31.922 27.48,31.629 C27.375,31.535 27.254,31.477 27.125,31.449 C27.027,31.418 26.922,31.383 26.812,31.336 C26.699,31.289 26.582,31.234 26.469,31.172 C26.078,30.965 25.598,31.113 25.391,31.5 C25.324,31.621 25.297,31.754 25.297,31.883 C25.289,31.992 25.262,32.102 25.215,32.203 C25.168,32.312 25.094,32.414 25,32.504 C24.918,32.582 24.828,32.645 24.73,32.691 C24.625,32.738 24.516,32.77 24.41,32.781 C24.023,32.82 23.73,33.125 23.695,33.5 C23.68,33.598 23.648,33.695 23.602,33.793 C23.551,33.891 23.488,33.98 23.406,34.059 C23.305,34.156 23.191,34.227 23.07,34.273 C22.941,34.32 22.805,34.344 22.668,34.336 C22.23,34.316 21.855,34.656 21.836,35.094 L21.836,35.172 C21.836,35.297 21.809,35.426 21.762,35.547 C21.711,35.668 21.637,35.781 21.535,35.879 C21.488,35.922 21.441,35.961 21.387,36 L21.359,36.02 C21.316,36.043 21.273,36.066 21.227,36.086 C20.82,36.254 20.625,36.719 20.793,37.125 C20.855,37.273 20.953,37.391 21.078,37.477 C21.863,38.062 22.723,38.555 23.633,38.93 C24.535,39.305 25.492,39.57 26.492,39.719 C26.926,39.781 27.332,39.477 27.395,39.043 C27.418,38.887 27.391,38.734 27.328,38.598 C27.309,38.551 27.297,38.496 27.285,38.441 C27.273,38.371 27.266,38.305 27.266,38.242 C27.266,38.105 27.297,37.973 27.352,37.852 C27.406,37.727 27.488,37.617 27.586,37.523 C27.91,37.227 27.93,36.723 27.633,36.398 C27.625,36.379 27.609,36.359 27.59,36.344 Z M25.902,37.203 C25.801,37.43 25.734,37.676 25.703,37.934 C25.207,37.809 24.719,37.648 24.254,37.453 C23.777,37.254 23.32,37.023 22.887,36.766 C23.035,36.574 23.156,36.367 23.246,36.148 C23.285,36.051 23.32,35.953 23.348,35.855 C23.449,35.832 23.547,35.801 23.645,35.762 C23.965,35.641 24.27,35.453 24.531,35.199 C24.746,34.988 24.918,34.754 25.043,34.5 C25.086,34.414 25.121,34.328 25.152,34.242 C25.238,34.211 25.328,34.176 25.41,34.141 C25.535,34.082 25.652,34.016 25.77,33.938 C25.793,34.043 25.82,34.148 25.855,34.25 C25.887,34.34 25.922,34.426 25.961,34.508 C25.918,34.594 25.883,34.68 25.852,34.77 C25.758,35.031 25.707,35.316 25.707,35.621 C25.703,35.988 25.777,36.336 25.91,36.648 C25.949,36.742 25.996,36.836 26.051,36.926 C25.992,37.016 25.945,37.109 25.902,37.203 Z" id="Fill-9"></path>
            <path d="M35.164,36.121 C35.113,36.098 35.062,36.07 35.016,36.035 C34.961,35.996 34.91,35.957 34.867,35.91 L34.863,35.906 C34.77,35.809 34.695,35.695 34.648,35.57 C34.598,35.438 34.578,35.305 34.582,35.168 C34.602,34.727 34.262,34.355 33.82,34.34 L33.746,34.34 C33.621,34.34 33.492,34.316 33.371,34.266 C33.25,34.215 33.133,34.141 33.039,34.043 C32.957,33.961 32.895,33.871 32.852,33.773 C32.805,33.672 32.773,33.566 32.766,33.457 C32.727,33.078 32.434,32.789 32.07,32.746 L32.07,32.742 C31.961,32.727 31.852,32.695 31.754,32.648 C31.656,32.602 31.566,32.535 31.484,32.453 C31.402,32.367 31.336,32.27 31.289,32.16 C31.242,32.051 31.211,31.934 31.207,31.82 C31.184,31.379 30.812,31.043 30.371,31.066 C30.234,31.074 30.109,31.113 30.004,31.18 C29.914,31.227 29.816,31.273 29.707,31.32 L29.672,31.336 C29.582,31.375 29.48,31.41 29.371,31.445 C28.949,31.578 28.715,32.023 28.848,32.445 C28.887,32.57 28.953,32.68 29.039,32.766 C29.117,32.852 29.18,32.953 29.223,33.062 C29.266,33.176 29.289,33.301 29.289,33.43 C29.289,33.535 29.27,33.645 29.23,33.754 C29.191,33.863 29.137,33.961 29.066,34.043 C28.832,34.336 28.836,34.75 29.059,35.035 C29.129,35.121 29.18,35.219 29.219,35.324 L29.219,35.328 C29.254,35.434 29.273,35.547 29.273,35.656 C29.273,35.793 29.242,35.926 29.188,36.047 C29.133,36.172 29.051,36.281 28.953,36.375 C28.629,36.672 28.609,37.176 28.906,37.5 C28.922,37.52 28.941,37.535 28.957,37.551 C29.051,37.641 29.121,37.75 29.172,37.867 C29.223,37.988 29.254,38.125 29.254,38.266 C29.254,38.32 29.246,38.383 29.23,38.453 C29.219,38.512 29.203,38.574 29.18,38.629 C29.016,39.035 29.211,39.5 29.621,39.668 C29.758,39.723 29.902,39.738 30.039,39.719 C31.008,39.574 31.945,39.309 32.828,38.941 C33.727,38.566 34.574,38.086 35.352,37.512 C35.703,37.25 35.777,36.75 35.516,36.398 C35.422,36.262 35.297,36.172 35.164,36.121 Z M32.215,37.457 C31.766,37.645 31.305,37.797 30.824,37.922 C30.793,37.68 30.73,37.449 30.641,37.234 C30.598,37.137 30.555,37.047 30.5,36.957 C30.551,36.867 30.602,36.777 30.645,36.68 C30.781,36.371 30.859,36.02 30.863,35.652 C30.867,35.352 30.816,35.062 30.727,34.801 C30.695,34.711 30.66,34.625 30.621,34.543 C30.664,34.457 30.699,34.371 30.73,34.281 C30.77,34.176 30.801,34.066 30.824,33.953 C30.898,34 30.969,34.039 31.047,34.078 C31.133,34.121 31.219,34.156 31.305,34.188 C31.336,34.273 31.371,34.363 31.41,34.445 C31.531,34.703 31.695,34.945 31.902,35.156 C32.16,35.418 32.457,35.613 32.773,35.742 C32.871,35.781 32.969,35.812 33.066,35.84 C33.09,35.941 33.121,36.039 33.16,36.137 C33.25,36.371 33.375,36.594 33.535,36.801 C33.109,37.047 32.672,37.27 32.215,37.457 Z" id="Fill-10"></path>
            <path d="M30.539,30.168 C31.129,29.578 31.492,28.766 31.492,27.867 C31.492,26.969 31.129,26.156 30.539,25.566 C29.949,24.977 29.137,24.613 28.238,24.613 C27.34,24.613 26.523,24.977 25.938,25.566 C25.348,26.156 24.984,26.969 24.984,27.867 C24.984,28.766 25.348,29.578 25.938,30.168 C26.527,30.758 27.34,31.121 28.238,31.121 C29.109,31.121 29.902,30.777 30.488,30.215 C30.504,30.199 30.523,30.184 30.539,30.168 Z M29.41,29.035 C29.398,29.047 29.387,29.059 29.375,29.07 C29.082,29.348 28.68,29.52 28.234,29.52 C27.777,29.52 27.363,29.332 27.062,29.035 C26.762,28.734 26.578,28.32 26.578,27.863 C26.578,27.406 26.766,26.992 27.062,26.691 C27.363,26.391 27.777,26.207 28.234,26.207 C28.695,26.207 29.109,26.391 29.406,26.691 C29.707,26.992 29.891,27.406 29.891,27.863 C29.895,28.324 29.707,28.738 29.41,29.035 Z" id="Fill-11"></path>
        </g>
    </g>
</svg>