<?xml version="1.0" encoding="UTF-8"?>
<svg width="75px" height="75px" viewBox="0 0 75 75" version="1.1" xmlns="http://www.w3.org/2000/svg" xmlns:xlink="http://www.w3.org/1999/xlink">
    <!-- Generator: Sketch 43.2 (39069) - http://www.bohemiancoding.com/sketch -->
    <title>Page 1</title>
    <desc>Created with Sketch.</desc>
    <defs></defs>
    <g id="Flow" stroke="none" stroke-width="1" fill="none" fill-rule="evenodd">
        <path d="M37.207,0.586 C16.684,0.586 0,17.27 0,37.793 C0,58.316 16.684,75 37.207,75 C57.73,75 74.414,58.316 74.414,37.793 C74.414,17.27 57.73,0.586 37.207,0.586 Z M37.207,2.988 C56.395,2.988 72.012,18.605 72.012,37.793 C72.012,42.215 71.176,46.465 69.652,50.363 L60,35.582 L46.258,57.07 L28.801,29.047 L28.801,22.191 L46.527,22.191 L42.207,14.984 L46.527,7.777 L26.41,7.777 L26.41,29.035 L8.512,57.465 C4.66,51.871 2.402,45.09 2.402,37.793 C2.402,18.605 18.019,2.988 37.207,2.988 Z M27.598,31.656 L51.254,69.625 C49.113,70.578 46.875,71.309 44.543,71.809 L32.75,66.023 L36.309,57.719 L26.758,51.758 L30.23,44.801 L23.801,37.668 L27.598,31.656 Z M28.801,10.18 L42.277,10.18 L39.402,14.984 L42.289,19.789 L28.812,19.789 L28.812,10.18 L28.801,10.18 Z M10.051,59.531 L22.488,39.77 L27.367,45.191 L23.648,52.633 L33.301,58.668 L29.652,67.18 L40.402,72.453 C39.348,72.555 38.293,72.602 37.207,72.602 C26.234,72.598 16.434,67.484 10.051,59.531 Z M53.437,68.57 L47.668,59.324 L60.016,40.004 L68.496,52.996 C65.258,59.648 59.957,65.113 53.437,68.57 Z" id="Page-1" fill="#000000"></path>
    </g>
</svg>