<?xml version="1.0" encoding="UTF-8"?>
<svg width="198px" height="198px" viewBox="0 0 198 198" version="1.1" xmlns="http://www.w3.org/2000/svg" xmlns:xlink="http://www.w3.org/1999/xlink">
    <!-- Generator: Sketch 43.2 (39069) - http://www.bohemiancoding.com/sketch -->
    <title>happy-buddha-white</title>
    <desc>Created with Sketch.</desc>
    <defs></defs>
    <g id="Page-1" stroke="none" stroke-width="1" fill="none" fill-rule="evenodd">
        <g id="happy-buddha-white" fill-rule="nonzero" fill="#FFFFFF">
            <path d="M30.6463768,156.031884 C27.7594203,152.486957 25.1449275,148.715942 22.8347826,144.753623 L35.0956522,138.130435 C35.0521739,138.266667 35.0173913,138.402899 34.9826087,138.527536 C34.6086957,139.852174 33.4666667,143.849275 33.3536232,144.266667 C32.7855072,146.26087 32.4,147.64058 32.0724638,148.863768 C31.2463768,151.933333 30.826087,153.881159 30.6927536,155.385507 C30.6695652,155.6 30.657971,155.817391 30.6463768,156.031884 Z" id="Fill-1"></path>
            <path d="M18.7681159,136.907246 C14.284058,127.081159 11.5681159,116.289855 10.9913043,104.933333 L43.4289855,103.043478 C43.5884058,105.86087 43.4289855,103.043478 43.8695652,108.330435 C41.7884058,109.043478 40.1913043,110.571014 39.3536232,112.791304 C39.2289855,113.153623 39.115942,113.492754 39.0347826,113.831884 C38.8550725,114.57971 38.7884058,115.281159 38.7884058,116.211594 C38.7884058,116.550725 38.7971014,116.913043 38.8086957,117.466667 C38.8202899,117.513043 38.8550725,118.643478 38.8666667,119.052174 C38.8666667,119.118841 38.9913043,123.524638 38.8550725,124.521739 C38.8318841,124.724638 38.7971014,124.927536 38.7536232,125.133333 C38.7304348,125.246377 38.5710145,125.982609 38.5043478,126.24058 C38.4144928,126.602899 38.1188406,127.646377 37.7333333,128.982609 L18.7681159,136.907246 Z" id="Fill-2"></path>
            <path d="M110.321739,50.5971014 L116.550725,13.9681159 C110.898551,12.826087 105.046377,12.2347826 99.046377,12.2347826 C93.7913043,12.2347826 88.6521739,12.6898551 83.657971,13.5710145 L89.942029,50.515942 C93.1362319,50.0753623 96.4753623,49.8376812 99.93913,49.8376812 C103.53913,49.8492754 107.005797,50.1101449 110.321739,50.5971014 Z" id="Fill-3"></path>
            <path d="M150.562319,74.6898551 L177.272464,59.6782609 C172.426087,50.4028986 165.994203,42.1043478 158.330435,35.1304348 L135.831884,59.8115942 C138.118841,61.2405797 140.269565,62.7565217 142.252174,64.3652174 C145.66087,67.1043478 148.423188,70.6608696 150.562319,74.6898551 Z" id="Fill-4"></path>
            <path d="M115.394203,51.5362319 L125.121739,16.1536232 C134.733333,19.1188406 143.643478,23.6956522 151.547826,29.5594203 L131.043478,57.1304348 C126.333333,54.7391304 121.101449,52.8028986 115.394203,51.5362319 Z" id="Fill-5"></path>
            <path d="M64.1826087,59.5188406 L40.9710145,34.0550725 C33.0347826,41.0057971 26.3565217,49.3623188 21.3275362,58.7246377 L49.1362319,74.3623188 C51.2521739,70.4666667 53.9594203,67.0376812 57.2666667,64.3652174 C59.3942029,62.6550725 61.7043478,61.0231884 64.1826087,59.5188406 Z" id="Fill-6"></path>
            <path d="M69.0289855,56.857971 L47.9710145,28.5304348 C56.0666667,22.7652174 65.1797101,18.3275362 74.9855072,15.5536232 L84.8463768,51.4 C79.0608696,52.6231884 73.7855072,54.5130435 69.0289855,56.857971 Z" id="Fill-7"></path>
            <path d="M187.110145,104.808696 C186.568116,115.915942 183.962319,126.478261 179.672464,136.136232 L161.498551,128.550725 C161.171014,127.42029 160.933333,126.55942 160.855072,126.24058 C160.785507,125.982609 160.730435,125.733333 160.672464,125.46087 C160.64058,125.35942 160.527536,124.724638 160.504348,124.521739 C160.368116,123.524638 160.368116,123.127536 160.481159,119.437681 C160.481159,119.368116 160.536232,117.513043 160.536232,117.466667 C160.55942,116.913043 160.571014,116.550725 160.571014,116.211594 C160.571014,115.281159 160.504348,114.57971 160.321739,113.831884 C160.243478,113.492754 160.130435,113.153623 159.994203,112.791304 C159.223188,110.707246 157.344928,109.17971 155.463768,108.42029 C155.463768,108.42029 155.556522,107.797101 155.817391,102.973913 L187.110145,104.808696 Z" id="Fill-8"></path>
            <path d="M168.576812,154.626087 C171.237681,151.231884 173.637681,147.628986 175.776812,143.86087 L164.092754,137.542029 C164.115942,137.643478 164.150725,137.733333 164.171014,137.814493 C164.24058,138.072464 164.307246,138.310145 164.376812,138.527536 C164.750725,139.852174 165.881159,143.849275 166.005797,144.266667 C166.571014,146.26087 166.956522,147.64058 167.286957,148.863768 C167.976812,151.434783 168.385507,153.223188 168.576812,154.626087 Z" id="Fill-9"></path>
            <path d="M43.3275362,97.3797101 L10.9797101,96.0434783 C11.4898551,85.7304348 13.7652174,75.8782609 17.5130435,66.7884058 L46.7478261,79.5826087 C45.2057971,83.6028986 44.1884058,87.9275362 43.6898551,92.2985507 C43.4985507,93.973913 43.373913,95.6608696 43.3275362,97.3797101 Z" id="Fill-10"></path>
            <path d="M187.110145,96.1362319 C186.634783,86.0927536 184.472464,76.4898551 180.918841,67.6028986 L152.884058,79.8637681 C154.368116,83.8057971 155.342029,88.0289855 155.837681,92.2985507 C155.997101,93.6782609 156.043478,95.4782609 156.02029,97.4144928 L187.110145,96.1362319 Z" id="Fill-11"></path>
            <path d="M99,197.211594 C153.234783,197.211594 197.211594,153.234783 197.211594,99 C197.211594,44.7652174 153.234783,0.7884058 99,0.7884058 C44.7652174,0.7884058 0.7884058,44.7652174 0.7884058,99 C0.7884058,153.234783 44.7652174,197.211594 99,197.211594 Z M99,195.104348 C46.6666667,195.104348 4.25217391,152.681159 4.25217391,100.35942 C4.25217391,48.026087 46.6666667,5.6115942 99,5.6115942 C151.333333,5.6115942 193.747826,48.026087 193.747826,100.35942 C193.747826,152.681159 151.333333,195.104348 99,195.104348 Z" id="Fill-12"></path>
            <path d="M36.5565217,155.124638 C36.7710145,152.689855 37.7014493,148.365217 40.0550725,140.066667 C40.1246377,139.84058 40.1797101,139.602899 40.257971,139.353623 C42.6492754,130.907246 43.1014493,129.275362 43.6782609,126.707246 C43.7246377,126.547826 43.7565217,126.376812 43.7913043,126.22029 C44.2,124.136232 44.0985507,122.402899 44.0057971,119.086957 C43.915942,116.188406 44.2666667,115.17971 44.5855072,114.318841 C44.9130435,113.457971 45.5246377,113.118841 47.0173913,113.255072 C47.3246377,113.278261 47.6521739,113.426087 48.0144928,113.707246 L48.6724638,112.881159 L47.6289855,113.052174 C47.6869565,113.414493 47.7652174,113.652174 47.9246377,114.026087 C48.0492754,114.295652 48.084058,114.388406 48.1043478,114.556522 C48.1275362,114.669565 48.4347826,116.550725 48.5478261,117.173913 C48.5594203,117.182609 48.5797101,117.330435 48.6144928,117.591304 C48.626087,117.66087 48.6724638,117.930435 48.684058,117.988406 C48.7043478,118.168116 48.7275362,118.304348 48.7507246,118.452174 C48.8637681,119.098551 48.9217391,119.504348 48.9536232,119.686957 L49.9971014,119.492754 L49.0115942,119.130435 C49,119.153623 48.9884058,119.188406 48.9652174,119.231884 C48.942029,119.313043 48.9101449,119.402899 48.8753623,119.504348 C48.7623188,119.776812 48.6608696,120.06087 48.5594203,120.318841 C48.5478261,120.353623 48.5362319,120.388406 48.5130435,120.423188 C48.4231884,120.649275 48.342029,120.852174 48.2753623,121.011594 C47.3913043,123.127536 46.542029,125.382609 45.7855072,127.701449 C43.0666667,136.014493 41.7072464,142.182609 41.6869565,147.936232 C41.6637681,153.257971 42.5449275,158.26087 44.3130435,162.382609 L44.5391304,161.217391 C42.8521739,162.857971 41.5043478,163.684058 40.8695652,163.628986 C37.4057971,163.333333 36.0811594,160.571014 36.5565217,155.124638 Z M46.0115942,163.028986 L46.5304348,162.223188 L46.2492754,161.556522 C44.6057971,157.718841 43.7681159,152.985507 43.7913043,147.947826 C43.8144928,142.455072 45.1275362,136.478261 47.7884058,128.35942 C48.5362319,126.095652 49.3507246,123.898551 50.2231884,121.826087 C50.3014493,121.655072 50.3826087,121.44058 50.484058,121.191304 C50.4956522,121.15942 50.5072464,121.113043 50.5275362,121.078261 C50.6289855,120.805797 50.7333333,120.524638 50.8463768,120.24058 C50.8782609,120.13913 50.9130435,120.049275 50.9478261,119.968116 C50.9710145,119.913043 51.084058,119.585507 51.084058,119.585507 L51.0376812,119.301449 C51.0028986,119.142029 50.9362319,118.744928 50.8463768,118.144928 C50.8115942,117.976812 50.7884058,117.828986 50.7652174,117.66087 C50.7536232,117.591304 50.7101449,117.318841 50.6985507,117.263768 C50.6521739,116.944928 50.6289855,116.831884 50.6202899,116.788406 C50.515942,116.2 50.2,114.626087 50.1884058,114.501449 C50.1217391,114.127536 50.0405797,113.889855 49.884058,113.527536 C49.7594203,113.266667 49.7362319,113.176812 49.7014493,113.017391 L49.6463768,112.608696 L49.315942,112.347826 C48.6492754,111.828986 47.9478261,111.521739 47.2115942,111.455072 C44.8231884,111.252174 43.2927536,112.223188 42.6144928,114.026087 C42.1507246,115.257971 42.2521739,115.904348 42.3536232,119.142029 C42.4434783,122.313043 42.5449275,123.921739 42.173913,125.811594 C42.1391304,125.95942 42.115942,126.095652 42.0811594,126.24058 C41.515942,128.756522 40.9043478,130.397101 38.5275362,138.776812 C38.457971,139.034783 38.3913043,139.263768 38.3217391,139.489855 C35.9333333,147.95942 34.3826087,153.052174 34.1565217,155.692754 C33.8956522,158.715942 34.1449275,161.13913 35.0173913,162.947826 C36.0231884,165.043478 37.8347826,166.266667 40.3826087,166.481159 C41.8550725,166.617391 43.8927536,165.089855 46.0115942,163.028986 Z" id="Fill-13"></path>
            <path d="M162.678261,155.124638 C162.472464,152.689855 161.533333,148.365217 159.191304,140.066667 C159.121739,139.84058 159.055072,139.602899 158.985507,139.353623 C156.585507,130.907246 156.133333,129.275362 155.556522,126.707246 C155.521739,126.547826 155.486957,126.376812 155.455072,126.22029 C155.046377,124.136232 155.136232,122.402899 155.237681,119.086957 C155.318841,116.188406 154.976812,115.17971 154.649275,114.318841 C154.333333,113.457971 153.710145,113.118841 152.214493,113.255072 C151.921739,113.278261 151.594203,113.426087 151.22029,113.707246 L150.573913,112.881159 L151.614493,113.052174 C151.55942,113.414493 151.469565,113.652174 151.310145,114.026087 C151.197101,114.295652 151.162319,114.388406 151.127536,114.556522 C151.115942,114.669565 150.8,116.550725 150.686957,117.173913 C150.686957,117.182609 150.663768,117.330435 150.62029,117.591304 C150.608696,117.66087 150.562319,117.930435 150.562319,117.988406 C150.527536,118.168116 150.507246,118.304348 150.484058,118.452174 C150.382609,119.098551 150.313043,119.504348 150.278261,119.686957 L149.249275,119.492754 L150.234783,119.130435 C150.234783,119.153623 150.257971,119.188406 150.269565,119.231884 C150.301449,119.313043 150.336232,119.402899 150.371014,119.504348 C150.472464,119.776812 150.585507,120.06087 150.675362,120.318841 C150.698551,120.353623 150.710145,120.388406 150.721739,120.423188 C150.811594,120.649275 150.889855,120.852174 150.95942,121.011594 C151.852174,123.127536 152.689855,125.382609 153.46087,127.701449 C156.17971,136.014493 157.524638,142.182609 157.547826,147.936232 C157.571014,153.257971 156.686957,158.26087 154.933333,162.382609 L154.695652,161.217391 C156.394203,162.857971 157.730435,163.684058 158.373913,163.628986 C161.84058,163.333333 163.165217,160.571014 162.678261,155.124638 Z M153.234783,163.028986 L152.713043,162.223188 L152.997101,161.556522 C154.637681,157.718841 155.463768,152.985507 155.443478,147.947826 C155.42029,142.455072 154.107246,136.478261 151.457971,128.35942 C150.710145,126.095652 149.884058,123.898551 149.023188,121.826087 C148.942029,121.655072 148.852174,121.44058 148.762319,121.191304 C148.750725,121.15942 148.727536,121.113043 148.715942,121.078261 C148.614493,120.805797 148.501449,120.524638 148.4,120.24058 C148.353623,120.13913 148.321739,120.049275 148.298551,119.968116 C148.275362,119.913043 148.150725,119.585507 148.150725,119.585507 L148.208696,119.301449 C148.24058,119.142029 148.298551,118.744928 148.4,118.144928 C148.423188,117.976812 148.446377,117.828986 148.478261,117.66087 C148.489855,117.591304 148.524638,117.318841 148.536232,117.263768 C148.591304,116.944928 148.602899,116.831884 148.614493,116.788406 C148.727536,116.2 149.034783,114.626087 149.057971,114.501449 C149.124638,114.127536 149.202899,113.889855 149.362319,113.527536 C149.475362,113.266667 149.510145,113.176812 149.533333,113.017391 L149.6,112.608696 L149.927536,112.347826 C150.597101,111.828986 151.298551,111.521739 152.034783,111.455072 C154.411594,111.252174 155.950725,112.223188 156.631884,114.026087 C157.084058,115.257971 156.982609,115.904348 156.892754,119.142029 C156.8,122.313043 156.698551,123.921739 157.072464,125.811594 C157.095652,125.95942 157.130435,126.095652 157.162319,126.24058 C157.730435,128.756522 158.330435,130.397101 160.707246,138.776812 C160.785507,139.034783 160.843478,139.263768 160.910145,139.489855 C163.313043,147.95942 164.852174,153.052174 165.078261,155.692754 C165.350725,158.715942 165.089855,161.13913 164.217391,162.947826 C163.208696,165.043478 161.397101,166.266667 158.86087,166.481159 C157.391304,166.617391 155.350725,165.089855 153.234783,163.028986 Z" id="Fill-14"></path>
            <path d="M59.484058,69.0289855 C52.1710145,74.915942 48.3101449,82.9101449 47.1884058,92.6492754 C46.4057971,99.428986 46.9391304,106.2 48.4463768,114.782609 C48.5710145,115.542029 48.7043478,116.289855 48.8869565,117.24058 C48.9101449,117.353623 49.2028986,119.005797 49.2956522,119.449275 L49.373913,118.849275 C49.226087,119.165217 49.1478261,119.324638 49.057971,119.515942 C48.8086957,120.049275 48.5362319,120.672464 48.2405797,121.373913 C47.4028986,123.376812 46.5652174,125.597101 45.7855072,127.985507 C43.5536232,134.768116 42.2173913,141.550725 42.1826087,147.901449 C42.1623188,154.162319 43.4289855,160.289855 46.2144928,164.852174 C57.1072464,182.617391 77.0695652,193.249275 99.576812,193.350725 C122.437681,193.249275 142.4,182.617391 153.281159,164.852174 C156.075362,160.289855 157.344928,154.162319 157.310145,147.901449 C157.286957,141.550725 155.942029,134.768116 153.721739,127.985507 C152.93913,125.597101 152.101449,123.376812 151.252174,121.373913 C150.95942,120.672464 150.686957,120.049275 150.437681,119.515942 C150.35942,119.324638 150.278261,119.165217 150.211594,119.017391 C150.176812,118.93913 150.211594,119.449275 150.211594,119.449275 C150.289855,119.005797 150.597101,117.353623 150.62029,117.24058 C150.788406,116.289855 150.924638,115.542029 151.06087,114.782609 C152.565217,106.2 153.086957,99.428986 152.307246,92.6492754 C151.197101,82.9101449 147.336232,74.915942 140.02029,69.0289855 C131.394203,62.0666667 118.237681,56.8347826 99.915942,56.7913043 C81.2695652,56.8347826 68.1130435,62.0666667 59.484058,69.0289855 Z M138.797101,70.5478261 C145.672464,76.0956522 149,83.6115942 150.063768,92.8753623 C150.823188,99.428986 150.301449,106.031884 148.828986,114.443478 C148.704348,115.191304 148.571014,115.950725 148.4,116.878261 C148.376812,117.002899 148.072464,118.643478 147.97971,119.098551 L148.072464,119.710145 C148.208696,119.991304 148.275362,120.150725 148.365217,120.330435 C148.602899,120.852174 148.863768,121.452174 149.15942,122.130435 C149.973913,124.089855 150.8,126.263768 151.55942,128.597101 C153.721739,135.197101 155.034783,141.788406 155.057971,147.901449 C155.081159,153.834783 154.197101,159.008696 151.614493,163.22029 C141.086957,180.42029 121.747826,189.489855 99.904348,189.591304 C77.7594203,189.489855 58.4202899,180.42029 47.8898551,163.22029 C45.3101449,159.008696 44.1188406,153.834783 44.142029,147.901449 C44.1652174,141.788406 45.626087,135.197101 47.7884058,128.597101 C48.5594203,126.263768 49.373913,124.089855 50.2,122.130435 C50.484058,121.452174 50.7536232,120.852174 50.9942029,120.330435 C51.0724638,120.150725 51.1391304,119.991304 51.2086957,119.855072 C51.2405797,119.776812 51.4231884,119.414493 51.4231884,119.414493 C51.2869565,118.643478 50.9826087,117.002899 50.9594203,116.878261 C50.7884058,115.950725 50.6521739,115.191304 50.515942,114.443478 C49.0463768,106.031884 48.5362319,99.428986 49.284058,92.8753623 C50.3478261,83.6115942 53.8347826,76.0956522 60.7072464,70.5478261 C68.9507246,63.9014493 81.6753623,58.342029 99.588406,58.2956522 C117.817391,58.342029 130.544928,63.9014493 138.797101,70.5478261 Z" id="Fill-15"></path>
            <path d="M114.295652,105.794203 L114.342029,105.771014 C114.353623,105.771014 114.365217,105.75942 114.397101,105.747826 C114.455072,105.724638 114.521739,105.692754 114.602899,105.669565 C114.828986,105.57971 115.089855,105.475362 115.382609,105.373913 C116.243478,105.057971 117.217391,104.750725 118.292754,104.457971 C121.350725,103.631884 124.553623,103.133333 127.747826,103.133333 C128.426087,103.133333 129.150725,103.176812 129.886957,103.257971 C132.504348,103.527536 135.321739,104.252174 138.188406,105.295652 C139.501449,105.771014 140.724638,106.281159 141.831884,106.791304 C142.217391,106.971014 142.568116,107.130435 142.863768,107.275362 C142.965217,107.333333 143.055072,107.37971 143.136232,107.411594 C143.17971,107.434783 143.202899,107.457971 143.214493,107.457971 L143.249275,107.481159 C143.428986,107.55942 143.576812,107.628986 143.713043,107.672464 C143.814493,107.707246 143.904348,107.730435 144.005797,107.730435 C144.107246,107.742029 144.211594,107.742029 144.324638,107.707246 C144.550725,107.649275 144.753623,107.524638 144.889855,107.298551 C145.026087,107.072464 145.06087,106.834783 145.014493,106.62029 C144.97971,106.495652 144.947826,106.405797 144.889855,106.313043 C144.831884,106.223188 144.776812,106.144928 144.698551,106.075362 C144.605797,105.973913 144.481159,105.872464 144.324638,105.747826 L143.768116,106.46087 L144.347826,105.75942 C144.278261,105.701449 144.142029,105.6 143.962319,105.463768 C143.655072,105.226087 143.304348,104.968116 142.918841,104.684058 C141.8,103.892754 140.553623,103.098551 139.205797,102.362319 C135.333333,100.223188 131.437681,98.9333333 127.747826,98.9333333 C124.078261,98.9333333 120.57971,99.837681 117.353623,101.353623 C116.22029,101.875362 115.214493,102.443478 114.318841,103.02029 C114.014493,103.211594 113.742029,103.405797 113.504348,103.573913 C113.356522,103.675362 113.255072,103.756522 113.197101,103.788406 L113.266667,103.744928 C112.982609,103.924638 112.768116,104.095652 112.608696,104.243478 C112.495652,104.344928 112.405797,104.446377 112.33913,104.55942 C112.168116,104.843478 112.110145,105.171014 112.292754,105.533333 C112.472464,105.884058 112.77971,106.02029 113.095652,106.055072 C113.231884,106.066667 113.368116,106.055072 113.515942,106.02029 C113.730435,105.985507 113.991304,105.907246 114.295652,105.794203 Z" id="Fill-16"></path>
            <path d="M112.168116,167.173913 L112.144928,167.194203 C112.144928,167.205797 112.121739,167.217391 112.101449,167.24058 C112.066667,167.275362 112.008696,167.318841 111.953623,167.376812 C111.794203,167.524638 111.602899,167.681159 111.365217,167.863768 C110.707246,168.373913 109.915942,168.881159 108.997101,169.356522 C106.35942,170.727536 103.211594,171.542029 99.553623,171.542029 C95.9101449,171.542029 92.5130435,170.614493 89.4782609,169.063768 C88.4144928,168.518841 87.4724638,167.942029 86.6695652,167.365217 C86.3855072,167.162319 86.1362319,166.968116 85.9217391,166.8 C85.8550725,166.742029 85.7971014,166.695652 85.742029,166.652174 C85.7072464,166.617391 85.6956522,166.605797 85.684058,166.594203 L85.6608696,166.582609 C85.5275362,166.481159 85.4231884,166.402899 85.3565217,166.356522 C85.3217391,166.324638 85.2898551,166.301449 85.2782609,166.289855 C85.2550725,166.278261 85.2434783,166.266667 85.2318841,166.266667 C85.2086957,166.255072 85.2086957,166.255072 85.173913,166.243478 C85.1188406,166.2 85.1188406,166.2 84.8463768,166.333333 C84.7681159,166.628986 84.7681159,166.628986 84.8115942,166.686957 C84.8347826,166.707246 84.8347826,166.707246 84.8463768,166.730435 C84.857971,166.742029 84.8695652,166.753623 84.8927536,166.765217 C84.9043478,166.788406 84.9275362,166.811594 84.9594203,166.831884 C85.0289855,166.889855 85.1188406,166.968116 85.2550725,167.081159 C85.2550725,167.092754 85.2898551,167.115942 85.3217391,167.150725 C85.3913043,167.205797 85.4695652,167.275362 85.5478261,167.353623 C85.8086957,167.568116 86.0927536,167.817391 86.4202899,168.078261 C87.3594203,168.814493 88.4028986,169.562319 89.5333333,170.252174 C92.9188406,172.336232 96.3391304,173.536232 99.565217,173.423188 C102.669565,173.321739 105.724638,172.246377 108.623188,170.536232 C109.689855,169.913043 110.66087,169.231884 111.510145,168.553623 C111.817391,168.315942 112.078261,168.089855 112.304348,167.898551 C112.382609,167.828986 112.452174,167.762319 112.507246,167.715942 C112.553623,167.681159 112.576812,167.66087 112.588406,167.649275 L112.565217,167.66087 C112.77971,167.489855 112.95942,167.342029 113.072464,167.24058 C113.130435,167.194203 113.176812,167.150725 113.208696,167.127536 C113.22029,167.115942 113.243478,167.104348 113.255072,167.092754 C113.255072,167.081159 113.255072,167.081159 113.278261,167.057971 C113.321739,167.057971 113.321739,167.057971 113.278261,166.675362 C112.904348,166.562319 112.904348,166.562319 112.904348,166.594203 C112.881159,166.617391 112.881159,166.617391 112.869565,166.617391 C112.857971,166.628986 112.834783,166.64058 112.826087,166.652174 C112.791304,166.675362 112.744928,166.707246 112.689855,166.753623 C112.565217,166.855072 112.382609,167.002899 112.168116,167.173913 Z" id="Fill-17"></path>
            <path d="M114.330435,120.672464 L114.365217,120.66087 L114.388406,120.649275 C114.408696,120.637681 114.478261,120.602899 114.568116,120.568116 C114.727536,120.489855 114.918841,120.411594 115.144928,120.318841 C115.768116,120.06087 116.481159,119.8 117.263768,119.562319 C119.504348,118.881159 121.826087,118.463768 124.136232,118.463768 C126.434783,118.463768 128.768116,118.86087 130.985507,119.527536 C131.768116,119.765217 132.481159,120.014493 133.104348,120.263768 C133.330435,120.342029 133.521739,120.423188 133.681159,120.501449 C133.771014,120.536232 133.84058,120.568116 133.86087,120.57971 L133.907246,120.602899 C134.110145,120.681159 134.292754,120.73913 134.449275,120.773913 C134.573913,120.797101 134.686957,120.797101 134.823188,120.785507 C135.095652,120.750725 135.356522,120.626087 135.536232,120.342029 C135.718841,120.06087 135.707246,119.753623 135.617391,119.492754 C135.571014,119.368116 135.504348,119.266667 135.423188,119.165217 C135.333333,119.04058 135.197101,118.904348 135.028986,118.768116 L134.449275,119.449275 L135.072464,118.802899 C135.028986,118.756522 134.947826,118.689855 134.834783,118.588406 C134.666667,118.428986 134.46087,118.26087 134.223188,118.078261 C133.556522,117.556522 132.797101,117.026087 131.947826,116.53913 C129.524638,115.133333 126.886957,114.284058 124.136232,114.284058 C121.385507,114.284058 118.724638,115.113043 116.266667,116.481159 C115.405797,116.956522 114.637681,117.466667 113.956522,117.976812 C113.718841,118.156522 113.515942,118.327536 113.333333,118.486957 C113.22029,118.576812 113.142029,118.643478 113.095652,118.689855 L113.165217,118.631884 C112.892754,118.837681 112.678261,119.017391 112.530435,119.188406 C112.428986,119.301449 112.347826,119.426087 112.281159,119.550725 C112.156522,119.834783 112.121739,120.162319 112.315942,120.478261 C112.507246,120.797101 112.791304,120.930435 113.095652,120.965217 C113.243478,120.976812 113.37971,120.965217 113.53913,120.930435 C113.765217,120.886957 114.026087,120.805797 114.330435,120.672464 Z" id="Fill-18"></path>
            <path d="M86.0144928,105.794203 C86.3304348,105.907246 86.5913043,105.985507 86.7942029,106.02029 C86.942029,106.055072 87.0782609,106.066667 87.2144928,106.055072 C87.5304348,106.02029 87.8347826,105.884058 88.0173913,105.533333 C88.2086957,105.171014 88.142029,104.843478 87.9710145,104.55942 C87.9043478,104.446377 87.8144928,104.344928 87.7014493,104.243478 C87.542029,104.095652 87.3275362,103.924638 87.0550725,103.744928 L87.1101449,103.788406 C87.0550725,103.756522 86.9536232,103.675362 86.8173913,103.573913 C86.5797101,103.405797 86.3072464,103.211594 85.9913043,103.02029 C85.1072464,102.443478 84.0869565,101.875362 82.9681159,101.353623 C79.7391304,99.837681 76.2318841,98.9333333 72.573913,98.9333333 C68.8695652,98.9333333 64.9768116,100.223188 61.1043478,102.362319 C59.7565217,103.098551 58.5101449,103.892754 57.4,104.684058 C57.0057971,104.968116 56.6550725,105.226087 56.3478261,105.463768 C56.1681159,105.6 56.0434783,105.701449 55.973913,105.75942 L56.5507246,106.46087 L55.9971014,105.747826 C55.8376812,105.872464 55.7130435,105.973913 55.6115942,106.075362 C55.5449275,106.144928 55.4753623,106.223188 55.4202899,106.313043 C55.373913,106.405797 55.3304348,106.495652 55.3072464,106.62029 C55.2608696,106.834783 55.284058,107.072464 55.4202899,107.298551 C55.5681159,107.524638 55.7710145,107.649275 55.9855072,107.707246 C56.0985507,107.742029 56.2,107.742029 56.3043478,107.730435 C56.4173913,107.730435 56.5072464,107.707246 56.6086957,107.672464 C56.7333333,107.628986 56.8811594,107.55942 57.0608696,107.481159 L57.0956522,107.457971 C57.1072464,107.457971 57.142029,107.434783 57.1855072,107.411594 C57.2550725,107.37971 57.3449275,107.333333 57.4463768,107.275362 C57.7536232,107.130435 58.0927536,106.971014 58.4782609,106.791304 C59.5855072,106.281159 60.8202899,105.771014 62.1217391,105.295652 C64.9884058,104.252174 67.8057971,103.527536 70.4347826,103.257971 C71.1681159,103.176812 71.884058,103.133333 72.573913,103.133333 C75.7536232,103.133333 78.9594203,103.631884 82.0289855,104.457971 C83.0927536,104.750725 84.0666667,105.057971 84.9275362,105.373913 C85.2318841,105.475362 85.4927536,105.57971 85.7188406,105.669565 C85.7855072,105.692754 85.8550725,105.724638 85.9101449,105.747826 C85.9449275,105.75942 85.9681159,105.771014 85.9797101,105.771014 L85.9913043,105.782609 L86.0144928,105.794203 Z" id="Fill-19"></path>
            <path d="M85.9565217,120.672464 C86.2724638,120.805797 86.5333333,120.886957 86.7594203,120.930435 C86.9072464,120.965217 87.0550725,120.976812 87.2028986,120.965217 C87.5072464,120.930435 87.7913043,120.797101 87.9826087,120.478261 C88.1652174,120.162319 88.142029,119.834783 88.0173913,119.550725 C87.9507246,119.426087 87.8695652,119.301449 87.7681159,119.188406 C87.6086957,119.017391 87.4057971,118.837681 87.1333333,118.631884 L87.2028986,118.689855 C87.1565217,118.643478 87.0782609,118.576812 86.9652174,118.486957 C86.7826087,118.327536 86.5797101,118.156522 86.3304348,117.976812 C85.6608696,117.466667 84.8811594,116.956522 84.0318841,116.481159 C81.5623188,115.113043 78.9130435,114.284058 76.1623188,114.284058 C73.4115942,114.284058 70.773913,115.133333 68.3391304,116.53913 C67.5014493,117.026087 66.742029,117.556522 66.0753623,118.078261 C65.8376812,118.26087 65.6318841,118.428986 65.4521739,118.588406 C65.3507246,118.689855 65.2695652,118.756522 65.226087,118.802899 L65.8463768,119.449275 L65.257971,118.768116 C65.1014493,118.904348 64.9652174,119.04058 64.8637681,119.165217 C64.7826087,119.266667 64.7275362,119.368116 64.6811594,119.492754 C64.5797101,119.753623 64.5797101,120.06087 64.7623188,120.342029 C64.942029,120.626087 65.2028986,120.750725 65.4753623,120.785507 C65.6,120.797101 65.7246377,120.797101 65.8463768,120.773913 C66.0057971,120.73913 66.1884058,120.681159 66.3797101,120.602899 L66.4144928,120.591304 L66.4376812,120.57971 C66.457971,120.568116 66.515942,120.536232 66.6173913,120.501449 C66.7768116,120.423188 66.9681159,120.342029 67.1826087,120.263768 C67.8173913,120.014493 68.5188406,119.765217 69.3014493,119.527536 C71.5304348,118.86087 73.8637681,118.463768 76.1623188,118.463768 C78.4608696,118.463768 80.7942029,118.881159 83.0231884,119.562319 C83.8057971,119.8 84.5188406,120.06087 85.1536232,120.318841 C85.3681159,120.411594 85.5594203,120.489855 85.7304348,120.568116 C85.8202899,120.602899 85.8898551,120.637681 85.9101449,120.649275 L85.9565217,120.672464 Z" id="Fill-20"></path>
            <path d="M100.188406,153.405797 C105.713043,153.405797 106.686957,150.301449 108.373913,150.301449 C110.049275,150.301449 111.455072,151.718841 117.443478,151.524638 C121.101449,151.411594 125.028986,148.150725 126.252174,148.150725 C127.486957,148.150725 128.234783,148.423188 128.234783,149.089855 C128.234783,150.246377 126.626087,150.35942 125.472464,150.901449 C124.315942,151.434783 120.750725,154.026087 119.336232,155.237681 C117.930435,156.449275 109.655072,164.750725 100.188406,164.750725 C90.7246377,164.750725 82.4463768,156.449275 81.0434783,155.237681 C79.626087,154.026087 76.0608696,151.434783 74.9072464,150.901449 C73.7391304,150.35942 72.142029,150.246377 72.142029,149.089855 C72.142029,148.423188 72.8898551,148.150725 74.1130435,148.150725 C75.3478261,148.150725 79.2753623,151.411594 82.9333333,151.524638 C88.9130435,151.718841 90.3275362,150.301449 92.0028986,150.301449 C93.6898551,150.301449 94.6637681,153.405797 100.188406,153.405797 Z" id="Fill-21"></path>
            <path d="M100.585507,141.82029 C94.515942,141.8 93.3507246,137.768116 89.0695652,137.768116 C85.5275362,137.768116 83.6927536,141.414493 79.026087,141.414493 C72.2898551,141.414493 70.0376812,139.942029 70.0376812,139.942029 C70.0376812,139.942029 72.7884058,143.101449 79.8550725,143.101449 C85.4115942,143.101449 84.4724638,140.362319 89.0695652,140.362319 C93.6318841,140.362319 93.1130435,145.727536 100.527536,145.785507 L100.585507,145.785507 L100.64058,145.785507 C108.057971,145.727536 107.536232,140.362319 112.101449,140.362319 C116.695652,140.362319 115.756522,143.101449 121.315942,143.101449 C128.382609,143.101449 131.133333,139.942029 131.133333,139.942029 C131.133333,139.942029 128.881159,141.414493 122.142029,141.414493 C117.478261,141.414493 115.643478,137.768116 112.101449,137.768116 C107.82029,137.768116 106.666667,141.8 100.585507,141.82029 Z" id="Fill-22"></path>
        </g>
    </g>
</svg>