<?xml version="1.0" encoding="UTF-8"?>
<svg width="43px" height="73px" viewBox="0 0 43 73" version="1.1" xmlns="http://www.w3.org/2000/svg" xmlns:xlink="http://www.w3.org/1999/xlink">
    <!-- Generator: Sketch 43.2 (39069) - http://www.bohemiancoding.com/sketch -->
    <title>Page 1</title>
    <desc>Created with Sketch.</desc>
    <defs></defs>
    <g id="Page-1" stroke="none" stroke-width="1" fill="none" fill-rule="evenodd">
        <g fill="#E46300">
            <path d="M42.605,66.145 C42.371,62.305 37.875,61.227 36.094,61.18 C35.809,60.938 41.152,57.199 39.559,52.703 C39.699,51.672 40.309,50.832 38.668,48.254 C37.977,45.977 37.453,41.465 37.402,41.23 C37.355,40.996 37.074,37.016 34.031,35.332 C33.609,35.145 31.41,34.066 29.445,33.414 C29.445,33.414 27.645,31.078 26.688,31.078 C26.672,31.078 26.652,31.078 26.633,31.082 C26.633,31.082 25.086,29.117 26.258,27.523 C26.258,27.523 26.34,28.711 26.926,28.711 C26.969,28.711 27.008,28.703 27.055,28.695 C27.758,28.508 27.758,27.852 27.57,27.148 C27.383,26.445 27.898,25.836 27.992,25.559 C28.086,25.277 29.68,22.469 28.133,21.812 C28.133,21.812 28.977,17.129 24.949,15.727 C24.949,15.727 25.832,13.961 24.5,12.516 C24.137,11.918 23.398,11.457 22.48,11.258 C22.535,11.129 22.566,10.988 22.566,10.836 C22.566,10.246 21.496,9.43 21.496,9.43 C21.496,9.43 20.426,10.246 20.426,10.836 C20.426,10.984 20.457,11.125 20.512,11.258 C19.598,11.453 18.855,11.918 18.492,12.512 C17.16,13.957 18.043,15.723 18.043,15.723 C14.016,17.125 14.859,21.809 14.859,21.809 C13.312,22.465 14.906,25.273 15,25.555 C15.09,25.836 15.609,26.445 15.422,27.145 C15.234,27.848 15.234,28.504 15.938,28.691 C15.984,28.703 16.027,28.707 16.066,28.707 C16.652,28.707 16.734,27.52 16.734,27.52 C17.906,29.113 16.359,31.078 16.359,31.078 C16.344,31.074 16.324,31.074 16.305,31.074 C15.352,31.074 13.551,33.41 13.551,33.41 C11.586,34.066 9.383,35.145 8.961,35.328 C5.918,37.016 5.637,40.992 5.59,41.227 C5.543,41.461 5.016,45.973 4.324,48.25 C2.684,50.824 3.293,51.668 3.434,52.699 C1.84,57.191 7.188,60.934 6.898,61.176 C5.121,61.223 0.625,62.301 0.391,66.141 C0.391,71.57 15.469,72.312 15.469,72.312 C17.516,72.445 19.543,72.508 21.66,72.512 L21.793,72.512 C23.531,72.512 25.309,72.48 27.527,72.312 C27.527,72.316 42.605,71.574 42.605,66.145 Z" id="Fill-1"></path>
            <path d="M7.598,34.664 C7.832,34.492 8.074,34.332 8.328,34.188 L8.379,34.16 L8.434,34.137 C8.5,34.109 8.609,34.055 8.754,33.988 C9.008,33.871 9.379,33.699 9.812,33.504 C6.191,30.281 3.895,25.605 3.895,20.387 C3.895,10.699 11.777,2.816 21.465,2.816 C31.152,2.816 39.035,10.699 39.035,20.387 C39.035,25.59 36.75,30.258 33.141,33.48 C33.602,33.688 33.992,33.867 34.258,33.992 C34.398,34.059 34.504,34.109 34.566,34.137 L34.617,34.16 L34.668,34.188 C34.906,34.32 35.137,34.473 35.355,34.637 C39.062,31.023 41.367,25.977 41.367,20.391 C41.367,9.398 32.453,0.484 21.461,0.484 C10.465,0.484 1.555,9.398 1.555,20.391 C1.559,25.992 3.875,31.047 7.598,34.664 Z" id="Fill-2"></path>
            <path d="M12.957,23.68 C12.852,23.082 12.852,22.48 13.062,21.934 C13.164,21.668 13.305,21.43 13.484,21.227 C13.473,21.035 13.473,20.832 13.477,20.625 L4.859,21.469 C4.98,23.344 5.395,25.141 6.09,26.797 L12.957,23.68 Z" id="Fill-3"></path>
            <path d="M29.348,19.074 L37.969,18.23 C37.73,16.387 37.188,14.645 36.395,13.039 L28.344,16.695 C28.859,17.441 29.172,18.266 29.348,19.074 Z" id="Fill-4"></path>
            <path d="M26.512,15.004 C26.816,15.18 27.094,15.379 27.344,15.594 L34.707,10.324 C33.621,8.902 32.324,7.648 30.848,6.637 L26.305,12.988 C26.562,13.688 26.594,14.391 26.512,15.004 Z" id="Fill-5"></path>
            <path d="M23.801,10.312 C24.379,10.566 24.871,10.922 25.25,11.344 L28.082,5.105 C26.488,4.41 24.766,3.965 22.957,3.805 L22.496,8.551 C22.973,8.945 23.59,9.574 23.801,10.312 Z" id="Fill-6"></path>
            <path d="M14.602,16.77 L6.508,13.098 C5.727,14.691 5.191,16.422 4.957,18.246 L13.648,19.098 C13.816,18.309 14.113,17.504 14.602,16.77 Z" id="Fill-7"></path>
            <path d="M16.488,15.004 C16.414,14.457 16.438,13.832 16.629,13.203 L11.984,6.711 C10.523,7.727 9.238,8.977 8.168,10.398 L15.555,15.684 C15.832,15.434 16.141,15.203 16.488,15.004 Z" id="Fill-8"></path>
            <path d="M19.195,10.312 C19.379,9.676 19.859,9.121 20.301,8.727 L19.82,3.812 C18.02,3.988 16.309,4.461 14.723,5.168 L17.605,11.523 C18,11.023 18.543,10.605 19.195,10.312 Z" id="Fill-9"></path>
            <path d="M14.156,26.836 C14.152,26.758 14.043,26.555 13.98,26.445 C13.906,26.309 13.832,26.168 13.777,26.016 C13.766,25.988 13.746,25.949 13.723,25.902 C13.656,25.766 13.594,25.621 13.527,25.477 L7.672,29.668 C8.535,30.945 9.551,32.113 10.723,33.109 C11.359,32.836 12.062,32.555 12.758,32.309 C13.535,31.348 14.535,30.328 15.516,29.941 C15.043,29.781 13.547,29.113 14.156,26.836 Z" id="Fill-10"></path>
            <path d="M29.281,25.895 C29.258,25.945 29.238,25.984 29.227,26.016 C29.168,26.176 29.094,26.312 29.023,26.445 C28.965,26.555 28.852,26.758 28.844,26.812 C29.012,27.434 29.039,27.957 28.93,28.414 C28.754,29.156 28.23,29.711 27.48,29.934 C28.465,30.324 29.461,31.34 30.238,32.301 C30.91,32.539 31.594,32.812 32.215,33.078 C33.352,32.109 34.344,30.984 35.191,29.75 L29.414,25.594 C29.371,25.695 29.328,25.797 29.281,25.895 Z" id="Fill-11"></path>
            <path d="M36.758,26.828 L36.758,26.828 C36.766,26.832 36.77,26.84 36.777,26.844 C37.484,25.172 37.945,23.375 38.07,21.48 L29.527,20.645 C29.531,20.844 29.527,21.039 29.52,21.223 C29.695,21.426 29.84,21.664 29.941,21.93 C30.164,22.504 30.152,23.137 30.031,23.77 L36.758,26.828 Z" id="Fill-12"></path>
        </g>
    </g>
</svg>