<?xml version="1.0" encoding="UTF-8"?>
<svg width="110px" height="150px" viewBox="0 0 110 150" version="1.1" xmlns="http://www.w3.org/2000/svg" xmlns:xlink="http://www.w3.org/1999/xlink">
    <!-- Generator: Sketch 43.2 (39069) - http://www.bohemiancoding.com/sketch -->
    <title>Shape</title>
    <desc>Created with Sketch.</desc>
    <defs></defs>
    <g id="Page-1" stroke="none" stroke-width="1" fill="none" fill-rule="evenodd">
        <g id="icon-spinner" transform="translate(-4.000000, -1.000000)" fill-rule="nonzero" fill="#000000">
            <path d="M58.5454545,35.0909091 L58.5454545,55.5454545 L85.8181818,28.2727273 L58.5454545,1 L58.5454545,21.4545455 C28.4090909,21.4545455 4,45.8636364 4,76 C4,86.7045455 7.13636364,96.6590909 12.4545455,105.045455 L22.4090909,95.0909091 C19.3409091,89.4318182 17.6363636,82.8863636 17.6363636,76 C17.6363636,53.4318182 35.9772727,35.0909091 58.5454545,35.0909091 Z M104.636364,46.9545455 L94.6818182,56.9090909 C97.6818182,62.6363636 99.4545455,69.1136364 99.4545455,76 C99.4545455,98.5681818 81.1136364,116.909091 58.5454545,116.909091 L58.5454545,96.4545455 L31.2727273,123.727273 L58.5454545,151 L58.5454545,130.545455 C88.6818182,130.545455 113.090909,106.136364 113.090909,76 C113.090909,65.2954545 109.954545,55.3409091 104.636364,46.9545455 L104.636364,46.9545455 Z" id="Shape"></path>
        </g>
    </g>
</svg>