<?xml version="1.0" encoding="UTF-8"?>
<svg width="117px" height="20px" viewBox="0 0 117 20" version="1.1" xmlns="http://www.w3.org/2000/svg" xmlns:xlink="http://www.w3.org/1999/xlink">
    <!-- Generator: Sketch 43.2 (39069) - http://www.bohemiancoding.com/sketch -->
    <title>Minihero</title>
    <desc>Created with Sketch.</desc>
    <defs></defs>
    <g id="Flow" stroke="none" stroke-width="1" fill="none" fill-rule="evenodd">
        <g id="Main-desktop" transform="translate(-27.000000, -24.000000)" fill="#FFFFFF">
            <path d="M32.6699023,32.6008098 C32.8936886,34.0927184 33.1435796,35.5398479 33.4195826,36.942242 C33.6955857,38.344636 33.9827738,39.5829015 34.2811555,40.6570756 C34.3557509,40.9107001 34.4266155,41.1195642 34.4937514,41.2836741 C34.5608873,41.447784 34.6392113,41.5857835 34.7287258,41.6976767 C34.8182403,41.8095698 34.9226724,41.899083 35.0420251,41.9662188 C35.1613777,42.0333547 35.3031069,42.0967599 35.4672169,42.1564362 C35.9147894,42.3056271 36.4369496,42.4398968 37.033713,42.5592495 C37.2276611,42.6040068 37.3843092,42.6226554 37.5036618,42.6151958 C37.6230145,42.6077363 37.7199871,42.5816283 37.7945826,42.536871 C37.869178,42.4921138 37.9325831,42.4212492 37.9847999,42.3242751 C38.0370167,42.227301 38.1004219,42.096761 38.1750173,41.9326511 C38.4137227,41.4104831 38.7307485,40.7577829 39.1261043,39.9745309 C39.52146,39.1912789 39.954107,38.3595524 40.4240582,37.4793263 C40.8940094,36.5991003 41.3788724,35.7039686 41.8786618,34.7939044 C42.3784511,33.8838402 42.852125,33.0409245 43.2996975,32.2651321 C43.0460731,33.1453581 42.811101,34.0554087 42.5947743,34.9953111 C42.3784475,35.9352134 42.1807726,36.8340748 42.0017436,37.6919223 C41.8227146,38.5497697 41.6660665,39.3330099 41.5317948,40.0416665 C41.397523,40.750323 41.3005504,41.3284289 41.240874,41.7760015 C41.1662786,42.1489786 41.1849272,42.4473558 41.2968203,42.6711421 C41.4087135,42.8949284 41.6362261,43.0888736 41.9793651,43.2529835 C42.2479086,43.4021744 42.5612047,43.5289847 42.9192628,43.6334183 C43.2773208,43.7378519 43.6279141,43.8273651 43.971053,43.9019605 C44.3589492,43.991475 44.6200293,43.9765561 44.7543011,43.8572035 C44.8885729,43.7378508 45.0079237,43.5439056 45.1123573,43.275362 C45.23171,42.7531941 45.3958175,42.0967641 45.6046847,41.3060526 C45.8135519,40.5153411 46.048524,39.6500471 46.309608,38.7101447 C46.570692,37.7702424 46.8466909,36.7855975 47.1376131,35.7561806 C47.4285352,34.7267637 47.719453,33.7122811 48.0103752,32.7127024 C48.3012974,31.7131237 48.5884854,30.7583165 48.8719481,29.8482523 C49.1554107,28.9381881 49.4090313,28.1325696 49.6328176,27.4313726 C49.7969275,26.9390428 49.8230356,26.5548821 49.7111424,26.278879 C49.5992493,26.0028759 49.3269801,25.7604444 48.8943266,25.5515772 C48.2378868,25.2531955 47.5702678,24.9921154 46.8914494,24.7683292 C46.212631,24.5445429 45.5673902,24.3505977 44.9557077,24.1864877 C44.4335397,24.0372969 44.0046225,23.9776214 43.668943,24.0074596 C43.3332636,24.0372978 43.0311567,24.1678378 42.7626131,24.3990836 C42.4940696,24.6303295 42.2329895,24.9660039 41.9793651,25.4061169 C41.7257406,25.8462299 41.4273634,26.4094169 41.0842244,27.0956948 C40.7410855,27.6924583 40.3867625,28.3265099 40.0212449,28.9978687 C39.6557273,29.6692276 39.3014044,30.3405763 38.9582654,31.0119352 C38.6151264,31.683294 38.2831818,32.3397239 37.9624214,32.9812446 C37.6416611,33.6227653 37.3619324,34.2120603 37.1232271,34.7491474 C36.8845217,33.2124816 36.6980359,32.0040538 36.5637642,31.1238278 C36.4294924,30.2436017 36.3287901,29.5647935 36.2616542,29.0873828 C36.1945183,28.609972 36.1497617,28.2780274 36.1273831,28.0915388 C36.1050045,27.9050502 36.0938153,27.7446725 36.0938153,27.6104007 C36.034139,27.3269381 35.9781932,27.0733174 35.9259764,26.8495312 C35.8737597,26.6257449 35.7879762,26.4206105 35.6686235,26.234122 C35.5492708,26.0476334 35.3851634,25.8760665 35.1762962,25.7194161 C34.967429,25.5627657 34.6839706,25.4173068 34.3259125,25.283035 C33.7589873,25.0741678 33.1958003,24.8951415 32.6363346,24.7459506 C32.0768689,24.5967598 31.394331,24.46249 30.5887003,24.3431374 C30.0665324,24.2685419 29.6823717,24.2946499 29.4362068,24.4214622 C29.1900418,24.5482744 28.9998264,24.8653002 28.8655546,25.3725491 C28.7312828,26.0737461 28.5932834,26.8830944 28.451552,27.8006181 C28.3098207,28.7181419 28.1680915,29.6915976 28.0263602,30.7210145 C27.8846289,31.7504314 27.7540889,32.7947517 27.6347362,33.8540067 C27.5153835,34.9132618 27.4072218,35.9352038 27.3102477,36.9198634 C27.2132737,37.9045231 27.1386794,38.8183034 27.0864626,39.6612317 C27.0342458,40.50416 27.0081378,41.2165356 27.0081378,41.79838 C26.9782996,42.1862762 27.0305156,42.4846534 27.1647874,42.6935206 C27.2990591,42.9023878 27.5526798,43.096333 27.9256569,43.275362 C28.2240386,43.4245529 28.5485239,43.5550929 28.8991224,43.6669861 C29.2497209,43.7788792 29.5965844,43.8721221 29.9397234,43.9467175 C30.2977814,44.021313 30.5439426,44.0175832 30.6782144,43.9355283 C30.8124862,43.8534733 30.9094588,43.6781767 30.9691351,43.4096331 C31.0288115,42.7681125 31.1145949,42.0370882 31.2264881,41.2165386 C31.3383812,40.3959889 31.4689212,39.515776 31.6181121,38.5758736 C31.7673029,37.6359713 31.9314104,36.6587858 32.1104394,35.644288 C32.2894685,34.6297902 32.4759542,33.6153076 32.6699023,32.6008098 L32.6699023,32.6008098 Z M56.2270204,25.7753624 C55.8242051,25.5068189 55.354261,25.2531982 54.8171739,25.0144928 C54.2800868,24.7757875 53.780305,24.5967611 53.3178133,24.4774084 C52.8553217,24.3431367 52.5084581,24.3244881 52.2772123,24.4214622 C52.0459665,24.5184362 51.8632104,24.783246 51.7289387,25.2158995 C51.5648287,25.9170965 51.3858024,26.7339042 51.1918543,27.666347 C50.9979062,28.5987898 50.8076907,29.5871644 50.6212021,30.6315004 C50.4347135,31.6758364 50.2519575,32.742535 50.0729285,33.8316282 C49.8938994,34.9207214 49.7335217,35.9575823 49.5917904,36.942242 C49.4500591,37.9269016 49.3307082,38.8332224 49.2337341,39.6612317 C49.1367601,40.4892409 49.0733549,41.1643194 49.0435167,41.6864874 C48.9987595,42.0743836 49.0323269,42.3764906 49.14422,42.5928173 C49.2561132,42.809144 49.4836258,42.9993595 49.8267648,43.1634695 C50.1400656,43.3275794 50.4720102,43.4618492 50.8226088,43.5662828 C51.1732073,43.6707163 51.5424491,43.7751484 51.9303453,43.879582 C52.3182415,43.9690965 52.5755919,43.9765559 52.7024041,43.9019605 C52.8292163,43.8273651 52.9299187,43.6632576 53.0045141,43.4096331 C53.1387859,42.7382743 53.2991636,41.9736826 53.4856522,41.1158352 C53.6721407,40.2579878 53.8772751,39.3479373 54.1010614,38.3856563 C54.3248477,37.4233752 54.55609,36.4387304 54.7947954,35.4316921 C55.0335007,34.4246539 55.2759322,33.440009 55.5220972,32.477728 C55.7682621,31.515447 56.0144233,30.6016667 56.2605882,29.7363598 C56.5067531,28.8710528 56.7342657,28.1027314 56.9431329,27.4313726 C57.0475665,27.0285573 57.0587557,26.7227206 56.9767007,26.5138534 C56.8946457,26.3049862 56.6447548,26.058825 56.2270204,25.7753624 L56.2270204,25.7753624 Z M67.0806008,36.2261294 C66.9164909,35.4652561 66.7523834,34.6708267 66.5882734,33.8428175 C66.4241635,33.0148082 66.2675155,32.2091897 66.1183246,31.4259377 C65.9691337,30.6426857 65.834864,29.9153912 65.7155113,29.2440324 C65.5961586,28.5726736 65.499186,28.0206757 65.4245906,27.5880222 C65.3350761,27.021097 65.1933469,26.5921797 64.9993988,26.3012575 C64.8054507,26.0103354 64.4772357,25.7679039 64.0147441,25.5739557 C63.4478188,25.3054122 62.9032804,25.0890887 62.3811124,24.9249788 C61.8589444,24.7608688 61.3218654,24.5967614 60.7698592,24.4326514 C60.3073676,24.3132987 59.9418555,24.309569 59.6733119,24.4214622 C59.4047684,24.5333553 59.2182826,24.813084 59.113849,25.2606565 C58.9497391,26.036449 58.7819019,26.9241212 58.6103324,27.9236999 C58.4387629,28.9232787 58.2709257,29.9601395 58.1068158,31.0343137 C57.9427059,32.1084878 57.7897875,33.1863756 57.6480562,34.2680093 C57.5063249,35.349643 57.3795146,36.3641256 57.2676215,37.3114875 C57.1557283,38.2588494 57.0662151,39.1054948 56.9990793,39.8514491 C56.9319434,40.5974033 56.8834571,41.1717795 56.8536189,41.5745948 C56.8237807,41.962491 56.8648076,42.264598 56.9767007,42.4809247 C57.0885939,42.6972515 57.3086471,42.8874669 57.636867,43.0515769 C57.9800059,43.2604441 58.3343289,43.4133624 58.6998465,43.5103365 C59.0653641,43.6073105 59.4271465,43.7005534 59.7852045,43.7900679 C60.1731007,43.8945015 60.4341808,43.9131501 60.5684526,43.8460142 C60.7027244,43.7788783 60.799697,43.6185006 60.8593733,43.3648761 C60.9339687,42.827789 61.034671,42.1974671 61.1614833,41.4738915 C61.2882955,40.7503158 61.4300247,39.9670756 61.5866751,39.1241473 C61.7433255,38.281219 61.9074329,37.3972764 62.0790024,36.4722931 C62.2505719,35.5473098 62.4184091,34.6223404 62.582519,33.6973571 C62.7764672,34.4731496 62.9853312,35.2452006 63.2091175,36.0135335 C63.4329038,36.7818664 63.6566867,37.5203501 63.880473,38.2290066 C64.1042593,38.9376632 64.3243125,39.5978228 64.5406392,40.2095053 C64.7569659,40.8211878 64.9695597,41.3582668 65.1784269,41.8207585 C65.4469705,42.4622792 65.9094552,42.909845 66.5658949,43.1634695 C67.282011,43.4170939 67.9831975,43.6110391 68.6694754,43.7453109 C69.4751061,43.9243399 69.9226719,43.7303947 70.0121864,43.1634695 C70.2508918,42.1191335 70.5380799,40.906976 70.8737593,39.5269606 C71.2094387,38.1469452 71.560032,36.733383 71.9255496,35.2862318 C72.2910671,33.8390805 72.660309,32.4143292 73.0332861,31.0119352 C73.4062632,29.6095411 73.7643159,28.3563568 74.1074549,27.2523445 C74.2268076,26.8644482 74.260375,26.5325036 74.2081582,26.2565005 C74.1559414,25.9804974 73.9135099,25.7082282 73.4808564,25.4396846 C73.227232,25.2755747 73.003449,25.141305 72.8095009,25.0368714 C72.6155528,24.9324378 72.4327968,24.8429246 72.2612273,24.7683292 C72.0896578,24.6937337 71.9143612,24.6340583 71.7353322,24.589301 C71.5563031,24.5445438 71.3548985,24.4923278 71.1311122,24.4326514 C70.6537015,24.3132987 70.2919191,24.3058393 70.0457542,24.4102729 C69.7995893,24.5147065 69.6168332,24.783246 69.4974805,25.2158995 C69.0648271,26.8122416 68.6284504,28.5577484 68.1883373,30.4524723 C67.7482243,32.3471961 67.3789825,34.2717293 67.0806008,36.2261294 L67.0806008,36.2261294 Z M81.0820925,25.7753624 C80.6792772,25.5068189 80.209333,25.2531982 79.6722459,25.0144928 C79.1351589,24.7757875 78.635377,24.5967611 78.1728854,24.4774084 C77.7103937,24.3431367 77.3635302,24.3244881 77.1322844,24.4214622 C76.9010385,24.5184362 76.7182825,24.783246 76.5840107,25.2158995 C76.4199008,25.9170965 76.2408744,26.7339042 76.0469263,27.666347 C75.8529782,28.5987898 75.6627627,29.5871644 75.4762742,30.6315004 C75.2897856,31.6758364 75.1070295,32.742535 74.9280005,33.8316282 C74.7489715,34.9207214 74.5885937,35.9575823 74.4468624,36.942242 C74.3051311,37.9269016 74.1857802,38.8332224 74.0888061,39.6612317 C73.9918321,40.4892409 73.9284269,41.1643194 73.8985888,41.6864874 C73.8538315,42.0743836 73.8873989,42.3764906 73.9992921,42.5928173 C74.1111852,42.809144 74.3386979,42.9993595 74.6818368,43.1634695 C74.9951376,43.3275794 75.3270823,43.4618492 75.6776808,43.5662828 C76.0282793,43.6707163 76.3975211,43.7751484 76.7854173,43.879582 C77.1733136,43.9690965 77.4306639,43.9765559 77.5574762,43.9019605 C77.6842884,43.8273651 77.7849907,43.6632576 77.8595861,43.4096331 C77.9938579,42.7382743 78.1542357,41.9736826 78.3407242,41.1158352 C78.5272128,40.2579878 78.7323471,39.3479373 78.9561334,38.3856563 C79.1799197,37.4233752 79.4111621,36.4387304 79.6498674,35.4316921 C79.8885728,34.4246539 80.1310043,33.440009 80.3771692,32.477728 C80.6233341,31.515447 80.8694953,30.6016667 81.1156602,29.7363598 C81.3618251,28.8710528 81.5893378,28.1027314 81.798205,27.4313726 C81.9026386,27.0285573 81.9138277,26.7227206 81.8317727,26.5138534 C81.7497178,26.3049862 81.4998268,26.058825 81.0820925,25.7753624 L81.0820925,25.7753624 Z M98.5373351,27.0061808 C98.6566878,26.6182846 98.6753364,26.3199073 98.5932814,26.1110401 C98.5112264,25.9021729 98.2762544,25.6560117 97.8883581,25.3725491 C97.4706238,25.1040056 97.0305173,24.8615741 96.5680257,24.6452473 C96.105534,24.4289206 95.6579682,24.2610834 95.2253147,24.1417307 C94.7628231,24.0074589 94.4085001,23.9738915 94.1623352,24.0410274 C93.9161703,24.1081633 93.7259548,24.3804325 93.591683,24.8578432 C93.2485441,26.1259655 92.9016805,27.5395276 92.551082,29.098572 C92.2004835,30.6576165 91.8387011,32.2278266 91.465724,33.8092497 C90.8987988,33.854007 90.3132334,33.8987635 89.7090105,33.9435208 C89.1047875,33.988278 88.4893845,34.0479535 87.8627829,34.1225489 C88.1611646,32.8096694 88.4408933,31.5788633 88.7019773,30.4300938 C88.9630612,29.2813242 89.2129522,28.2817605 89.4516575,27.4313726 C89.4964148,27.2374245 89.5262525,27.0658576 89.5411716,26.9166667 C89.5560907,26.7674759 89.5374421,26.6332061 89.4852253,26.5138534 C89.4330085,26.3945007 89.3434953,26.2751498 89.2166831,26.1557972 C89.0898709,26.0364445 88.9145743,25.9096342 88.690788,25.7753624 C88.2879727,25.5068189 87.8142988,25.2569279 87.2697522,25.0256821 C86.7252056,24.7944363 86.2142346,24.6116802 85.7368239,24.4774084 C85.3041704,24.3132985 84.9759554,24.2760014 84.7521691,24.3655159 C84.5283829,24.4550304 84.356816,24.7384888 84.2374633,25.2158995 C84.0584342,26.4691027 83.8831376,27.8379082 83.7115681,29.3223572 C83.5399987,30.8068062 83.364702,32.2949626 83.185673,33.7868712 C83.006644,35.2787797 82.8201582,36.7109904 82.6262101,38.0835463 C82.432262,39.4561021 82.2233979,40.6570705 81.9996117,41.6864874 C81.9100971,42.0743836 81.9399349,42.3764906 82.0891257,42.5928173 C82.2383166,42.809144 82.4844778,42.9993595 82.8276168,43.1634695 C83.1110794,43.3275794 83.4504835,43.4618492 83.8458392,43.5662828 C84.241195,43.6707163 84.6253557,43.7751484 84.9983328,43.879582 C85.386229,43.9690965 85.6435794,43.9765559 85.7703916,43.9019605 C85.8972039,43.8273651 85.9904467,43.6632576 86.0501231,43.4096331 C86.1694758,42.693517 86.3037455,41.8841688 86.4529364,40.9815641 C86.6021272,40.0789595 86.7960724,39.1129632 87.0347778,38.0835463 C87.6613794,37.9791127 88.2767824,37.8858698 88.8810054,37.8038148 C89.4852283,37.7217599 90.1006314,37.6359764 90.727233,37.5464619 C90.563123,38.4117689 90.4213938,39.1950091 90.3020412,39.8962061 C90.1826885,40.5974031 90.0931753,41.2165359 90.033499,41.7536229 C89.8992272,42.29071 90.0036592,42.6897896 90.3467982,42.9508736 C90.6899372,43.2119576 91.1673407,43.4320108 91.7790232,43.6110398 C92.0774049,43.6856352 92.3571336,43.7564998 92.6182176,43.8236357 C92.8793016,43.8907716 93.1068142,43.9280687 93.3007623,43.9355283 C93.4947104,43.9429878 93.6476288,43.9131501 93.7595219,43.8460142 C93.871415,43.7788783 93.9273608,43.6408788 93.9273608,43.4320117 C94.2257425,42.1937276 94.5651466,40.85103 94.9455833,39.4038787 C95.3260199,37.9567275 95.7213698,36.5021385 96.1316446,35.0400681 C96.5419195,33.5779977 96.9559179,32.1532464 97.3736523,30.7657715 C97.7913867,29.3782966 98.1792771,28.1251122 98.5373351,27.0061808 L98.5373351,27.0061808 Z M100.521564,25.6858483 L98.3956045,40.5675616 C98.3657664,40.9703769 98.4217121,41.3135107 98.5634434,41.5969733 C98.7051747,41.8804359 98.9028496,42.1265972 99.1564741,42.3354644 C99.4697749,42.6040079 99.7420441,42.8240611 99.9732899,42.9956306 C100.204536,43.1672001 100.446967,43.3350373 100.700592,43.4991472 C100.924378,43.6483381 101.189188,43.7639592 101.495029,43.8460142 C101.80087,43.9280692 102.252166,43.8945017 102.848929,43.7453109 C103.744074,43.5812009 104.683963,43.4021746 105.668622,43.2082265 C106.653282,43.0142784 107.623008,42.8277926 108.577829,42.6487636 C108.980645,42.5741682 109.219346,42.4809253 109.293942,42.3690321 C109.368537,42.257139 109.368537,42.0520046 109.293942,41.7536229 C109.174589,41.4850794 109.066427,41.2202696 108.969453,40.9591856 C108.872479,40.6981016 108.73448,40.418373 108.555451,40.1199913 C108.391341,39.8514477 108.193666,39.6724214 107.96242,39.5829069 C107.731174,39.4933924 107.406689,39.4635546 106.988955,39.4933928 C106.243,39.5381501 105.553003,39.5978255 104.918942,39.6724209 C104.284881,39.7470164 103.617262,39.843989 102.916065,39.9633416 C103.035417,39.5456073 103.147309,39.1241494 103.251743,38.6989555 C103.356176,38.2737615 103.468068,37.822466 103.58742,37.3450553 C104.452727,37.1660262 105.351589,37.0019188 106.284032,36.8527279 C107.216474,36.703537 108.130255,36.546889 109.0254,36.3827791 C109.443134,36.2932645 109.700484,36.1888325 109.797459,36.0694798 C109.894433,35.9501271 109.883243,35.7188848 109.763891,35.3757458 C109.689295,35.0773641 109.603512,34.7827166 109.506538,34.4917944 C109.409564,34.2008723 109.271564,33.9062248 109.092535,33.6078431 C108.928425,33.3094613 108.727021,33.1155161 108.488315,33.0260016 C108.24961,32.9364871 107.921395,32.89919 107.503661,32.914109 C106.996412,32.9290281 106.519008,32.9514064 106.071436,32.9812446 C105.623863,33.0110828 105.176297,33.0558394 104.728725,33.1155157 C104.96743,32.3248042 105.183753,31.5676719 105.377702,30.8440963 C105.57165,30.1205207 105.780514,29.4230639 106.0043,28.751705 C107.063555,28.6025142 108.070578,28.4757039 109.0254,28.3712703 C109.980221,28.2668367 110.905191,28.1624046 111.800336,28.057971 C112.232989,27.9982947 112.508988,27.9013221 112.628341,27.7670503 C112.747694,27.6327786 112.777531,27.3716985 112.717855,26.9838023 C112.643259,26.6406633 112.568665,26.3236375 112.49407,26.0327153 C112.419474,25.7417932 112.285205,25.4173079 112.091256,25.0592499 C111.852551,24.387891 111.308013,24.0596761 110.457625,24.0745952 C109.56248,24.1044333 108.663618,24.1752979 107.761014,24.2871911 C106.858409,24.3990842 105.978196,24.5296242 105.120349,24.6788151 C104.262501,24.8280059 103.441964,24.9921134 102.658712,25.1711425 C101.87546,25.3501715 101.163084,25.5217384 100.521564,25.6858483 L100.521564,25.6858483 Z M116.71615,38.3073314 C117.104046,38.7847422 117.536693,39.258416 118.014104,39.7283672 C118.491514,40.1983184 118.968918,40.649614 119.446329,41.0822675 C119.92374,41.5149209 120.386224,41.9102708 120.833797,42.2683288 C121.281369,42.6263869 121.676719,42.9247641 122.019858,43.1634695 C122.542026,43.4767703 123.000781,43.6520669 123.396137,43.6893646 C123.791493,43.7266623 124.153275,43.7005543 124.481495,43.6110398 C124.750038,43.5662825 124.977551,43.5252557 125.16404,43.4879579 C125.350528,43.4506602 125.578041,43.3275796 125.846584,43.1187124 C126.070371,42.9546025 126.197181,42.7979544 126.227019,42.6487636 C126.256857,42.4995727 126.122588,42.2981681 125.824206,42.0445437 C125.451229,41.7461619 125.052149,41.3955687 124.626955,40.9927534 C124.201761,40.5899381 123.772844,40.17221 123.340191,39.7395565 C122.907537,39.306903 122.486079,38.874256 122.075804,38.4416025 C121.66553,38.0089491 121.288828,37.5986804 120.945689,37.2107842 C122.616627,36.4648299 124.052567,35.6592114 125.253554,34.7939044 C126.45454,33.9285975 127.316104,32.9812497 127.838272,31.9518329 C128.181411,31.3103122 128.256006,30.4897748 128.062058,29.4901961 C127.823352,28.5502937 127.491407,27.7558643 127.066214,27.1068841 C126.64102,26.4579039 126.167346,25.8499603 125.645178,25.283035 C124.988738,24.6415144 124.224146,24.2498942 123.35138,24.1081629 C122.478613,23.9664316 121.553644,23.9813505 120.576444,24.15292 C119.599244,24.3244894 118.607139,24.6116775 117.600101,25.0144928 C116.593063,25.4173081 115.627067,25.8275768 114.702083,26.2453112 C114.508135,26.3497448 114.321649,26.6145546 114.14262,27.0397486 C113.963591,27.4649425 113.799484,28.0020215 113.650293,28.6510017 C113.501102,29.2999819 113.359373,30.0310061 113.225101,30.8440963 C113.09083,31.6571865 112.967749,32.4963724 112.855856,33.3616794 C112.743963,34.2269863 112.639531,35.0922803 112.542557,35.9575872 C112.445583,36.8228942 112.359799,37.6322424 112.285204,38.3856563 C112.210608,39.1390701 112.147203,39.8141486 112.094986,40.410912 C112.042769,41.0076754 112.001743,41.4627007 111.971904,41.7760015 C111.942066,42.1638977 111.979363,42.4734641 112.083797,42.7047099 C112.188231,42.9359557 112.382176,43.1336306 112.665638,43.2977406 C112.949101,43.4469314 113.247478,43.5513634 113.560779,43.6110398 C113.87408,43.6707161 114.232133,43.7527699 114.634948,43.8572035 C114.978087,43.9317989 115.213059,43.9317989 115.339871,43.8572035 C115.466683,43.782608 115.567386,43.62596 115.641981,43.3872546 C115.806091,42.581624 115.973928,41.7610866 116.145498,40.9256178 C116.317067,40.0901491 116.507283,39.2173957 116.71615,38.3073314 L116.71615,38.3073314 Z M119.110651,29.2216539 C119.692495,28.9381913 120.244493,28.7442461 120.766661,28.6398125 C121.288829,28.5353789 121.766233,28.4831628 122.198886,28.4831628 C123.079112,28.4831628 123.608732,28.6920269 123.787761,29.1097613 C123.877275,29.3633857 123.802681,29.7214384 123.563976,30.1839301 C123.32527,30.6464217 122.93738,31.1350144 122.400293,31.6497229 C121.863206,32.1644313 121.195587,32.6716726 120.397416,33.171462 C119.599245,33.6712513 118.685464,34.0927092 117.656048,34.4358481 C117.93951,33.4511885 118.193131,32.5262191 118.416917,31.6609121 C118.640703,30.7956052 118.871946,29.9825272 119.110651,29.2216539 L119.110651,29.2216539 Z M141.563762,25.8648765 C141.056513,25.4620611 140.418732,25.1189273 139.650399,24.8354647 C138.882066,24.5520021 138.072718,24.343138 137.22233,24.2088663 C136.56589,24.1044327 135.875893,24.1566487 135.152317,24.3655159 C134.428742,24.5743831 133.805879,24.8802197 133.283711,25.283035 C132.507919,25.9543939 131.825381,26.7115261 131.236077,27.5544544 C130.646773,28.3973827 130.150721,29.2887847 129.747906,30.2286871 C129.34509,31.1685895 129.039254,32.1345858 128.830387,33.126705 C128.621519,34.1188241 128.509628,35.0922798 128.494709,36.0471013 C128.47979,37.0019228 128.561844,37.9119733 128.740873,38.7772803 C128.919902,39.6425872 129.188441,40.418368 129.546499,41.104646 C129.770285,41.5223804 130.076122,41.8953519 130.464018,42.2235718 C130.851915,42.5517917 131.247264,42.8203312 131.65008,43.0291984 C132.142409,43.2828228 132.686948,43.4730383 133.283711,43.5998505 C133.880475,43.7266628 134.46231,43.8199056 135.029236,43.879582 C135.879623,43.9690965 136.633026,43.9355291 137.289466,43.7788787 C137.945905,43.6222283 138.572498,43.3126619 139.169261,42.8501702 C140.049487,42.0743778 140.791701,41.1270301 141.395923,40.0080987 C142.000146,38.8891673 142.47755,37.6993881 142.828148,36.4387253 C143.178747,35.1780626 143.3988,33.9099594 143.488315,32.6343776 C143.577829,31.3587958 143.540532,30.176476 143.376422,29.0873828 C143.257069,28.430943 143.066854,27.8453777 142.80577,27.3306693 C142.544686,26.8159608 142.130688,26.3273681 141.563762,25.8648765 L141.563762,25.8648765 Z M137.960821,28.1027281 C138.259203,28.1922426 138.479256,28.501809 138.620987,29.0314365 C138.762719,29.561064 138.833583,30.1988454 138.833583,30.9447996 C138.833583,31.6758348 138.773908,32.4628048 138.654555,33.3057331 C138.535203,34.1486614 138.378554,34.9207125 138.184606,35.6219095 C137.96082,36.4722974 137.69601,37.2592673 137.390169,37.982843 C137.084328,38.7064186 136.759843,39.3143622 136.416704,39.806692 C136.073565,40.2990219 135.730431,40.664534 135.387292,40.9032393 C135.044153,41.1419447 134.715938,41.2090796 134.402637,41.104646 C134.059498,41.0002124 133.798418,40.716754 133.619389,40.2542624 C133.44036,39.7917707 133.335928,39.2360431 133.30609,38.5870629 C133.276252,37.9380827 133.306089,37.2368962 133.395604,36.4834824 C133.485118,35.7300686 133.634307,35.0027741 133.843174,34.3015771 C134.052041,33.585461 134.324311,32.8432476 134.65999,32.0749147 C134.99567,31.3065818 135.357452,30.609125 135.745348,29.9825234 C136.133244,29.3559218 136.521135,28.8598697 136.909031,28.4943521 C137.296927,28.1288345 137.64752,27.9982945 137.960821,28.1027281 L137.960821,28.1027281 Z" id="Minihero"></path>
        </g>
    </g>
</svg>