<?xml version="1.0" encoding="UTF-8"?>
<svg width="119px" height="22px" viewBox="0 0 119 22" version="1.1" xmlns="http://www.w3.org/2000/svg" xmlns:xlink="http://www.w3.org/1999/xlink">
    <!-- Generator: Sketch 43.2 (39069) - http://www.bohemiancoding.com/sketch -->
    <title>Minihero</title>
    <desc>Created with Sketch.</desc>
    <defs></defs>
    <g id="Flow" stroke="none" stroke-width="1" fill="none" fill-rule="evenodd">
        <g id="Main-desktop" transform="translate(-26.000000, -23.000000)" fill-rule="nonzero" fill="#FFFFFF">
            <path d="M32.6699023,32.6008098 C32.8936886,34.0927184 33.1435796,35.5398479 33.4195826,36.942242 C33.6955857,38.344636 33.9827738,39.5829015 34.2811555,40.6570756 C34.3557509,40.9107001 34.4266155,41.1195642 34.4937514,41.2836741 C34.5608873,41.447784 34.6392113,41.5857835 34.7287258,41.6976767 C34.8182403,41.8095698 34.9226724,41.899083 35.0420251,41.9662188 C35.1613777,42.0333547 35.3031069,42.0967599 35.4672169,42.1564362 C35.9147894,42.3056271 36.4369496,42.4398968 37.033713,42.5592495 C37.2276611,42.6040068 37.3843092,42.6226554 37.5036618,42.6151958 C37.6230145,42.6077363 37.7199871,42.5816283 37.7945826,42.536871 C37.869178,42.4921138 37.9325831,42.4212492 37.9847999,42.3242751 C38.0370167,42.227301 38.1004219,42.096761 38.1750173,41.9326511 C38.4137227,41.4104831 38.7307485,40.7577829 39.1261043,39.9745309 C39.52146,39.1912789 39.954107,38.3595524 40.4240582,37.4793263 C40.8940094,36.5991003 41.3788724,35.7039686 41.8786618,34.7939044 C42.3784511,33.8838402 42.852125,33.0409245 43.2996975,32.2651321 C43.0460731,33.1453581 42.811101,34.0554087 42.5947743,34.9953111 C42.3784475,35.9352134 42.1807726,36.8340748 42.0017436,37.6919223 C41.8227146,38.5497697 41.6660665,39.3330099 41.5317948,40.0416665 C41.397523,40.750323 41.3005504,41.3284289 41.240874,41.7760015 C41.1662786,42.1489786 41.1849272,42.4473558 41.2968203,42.6711421 C41.4087135,42.8949284 41.6362261,43.0888736 41.9793651,43.2529835 C42.2479086,43.4021744 42.5612047,43.5289847 42.9192628,43.6334183 C43.2773208,43.7378519 43.6279141,43.8273651 43.971053,43.9019605 C44.3589492,43.991475 44.6200293,43.9765561 44.7543011,43.8572035 C44.8885729,43.7378508 45.0079237,43.5439056 45.1123573,43.275362 C45.23171,42.7531941 45.3958175,42.0967641 45.6046847,41.3060526 C45.8135519,40.5153411 46.048524,39.6500471 46.309608,38.7101447 C46.570692,37.7702424 46.8466909,36.7855975 47.1376131,35.7561806 C47.4285352,34.7267637 47.719453,33.7122811 48.0103752,32.7127024 C48.3012974,31.7131237 48.5884854,30.7583165 48.8719481,29.8482523 C49.1554107,28.9381881 49.4090313,28.1325696 49.6328176,27.4313726 C49.7969275,26.9390428 49.8230356,26.5548821 49.7111424,26.278879 C49.5992493,26.0028759 49.3269801,25.7604444 48.8943266,25.5515772 C48.2378868,25.2531955 47.5702678,24.9921154 46.8914494,24.7683292 C46.212631,24.5445429 45.5673902,24.3505977 44.9557077,24.1864877 C44.4335397,24.0372969 44.0046225,23.9776214 43.668943,24.0074596 C43.3332636,24.0372978 43.0311567,24.1678378 42.7626131,24.3990836 C42.4940696,24.6303295 42.2329895,24.9660039 41.9793651,25.4061169 C41.7257406,25.8462299 41.4273634,26.4094169 41.0842244,27.0956948 C40.7410855,27.6924583 40.3867625,28.3265099 40.0212449,28.9978687 C39.6557273,29.6692276 39.3014044,30.3405763 38.9582654,31.0119352 C38.6151264,31.683294 38.2831818,32.3397239 37.9624214,32.9812446 C37.6416611,33.6227653 37.3619324,34.2120603 37.1232271,34.7491474 C36.8845217,33.2124816 36.6980359,32.0040538 36.5637642,31.1238278 C36.4294924,30.2436017 36.3287901,29.5647935 36.2616542,29.0873828 C36.1945183,28.609972 36.1497617,28.2780274 36.1273831,28.0915388 C36.1050045,27.9050502 36.0938153,27.7446725 36.0938153,27.6104007 C36.034139,27.3269381 35.9781932,27.0733174 35.9259764,26.8495312 C35.8737597,26.6257449 35.7879762,26.4206105 35.6686235,26.234122 C35.5492708,26.0476334 35.3851634,25.8760665 35.1762962,25.7194161 C34.967429,25.5627657 34.6839706,25.4173068 34.3259125,25.283035 C33.7589873,25.0741678 33.1958003,24.8951415 32.6363346,24.7459506 C32.0768689,24.5967598 31.394331,24.46249 30.5887003,24.3431374 C30.0665324,24.2685419 29.6823717,24.2946499 29.4362068,24.4214622 C29.1900418,24.5482744 28.9998264,24.8653002 28.8655546,25.3725491 C28.7312828,26.0737461 28.5932834,26.8830944 28.451552,27.8006181 C28.3098207,28.7181419 28.1680915,29.6915976 28.0263602,30.7210145 C27.8846289,31.7504314 27.7540889,32.7947517 27.6347362,33.8540067 C27.5153835,34.9132618 27.4072218,35.9352038 27.3102477,36.9198634 C27.2132737,37.9045231 27.1386794,38.8183034 27.0864626,39.6612317 C27.0342458,40.50416 27.0081378,41.2165356 27.0081378,41.79838 C26.9782996,42.1862762 27.0305156,42.4846534 27.1647874,42.6935206 C27.2990591,42.9023878 27.5526798,43.096333 27.9256569,43.275362 C28.2240386,43.4245529 28.5485239,43.5550929 28.8991224,43.6669861 C29.2497209,43.7788792 29.5965844,43.8721221 29.9397234,43.9467175 C30.2977814,44.021313 30.5439426,44.0175832 30.6782144,43.9355283 C30.8124862,43.8534733 30.9094588,43.6781767 30.9691351,43.4096331 C31.0288115,42.7681125 31.1145949,42.0370882 31.2264881,41.2165386 C31.3383812,40.3959889 31.4689212,39.515776 31.6181121,38.5758736 C31.7673029,37.6359713 31.9314104,36.6587858 32.1104394,35.644288 C32.2894685,34.6297902 32.4759542,33.6153076 32.6699023,32.6008098 Z M37.0679942,32.534031 C36.7407614,33.1884967 36.4546033,33.7913363 36.2094155,34.3430089 L37.1232271,34.7491474 L38.1113759,34.5956485 C37.9119251,33.3116841 37.7489703,32.2571274 37.6225272,31.4320834 C37.4341397,31.8041129 37.2492961,32.1714273 37.0679942,32.534031 Z M32.6057476,38.7326412 C32.4576639,39.6655688 32.3281891,40.5385988 32.2173182,41.3516518 C32.1072483,42.1588309 32.0231004,42.8759172 31.9648363,43.5022565 L31.9453222,43.6265636 C31.8324144,44.1346486 31.6088767,44.5387359 31.1996644,44.7888101 C30.7866406,45.0412136 30.3238981,45.0482248 29.7272937,44.9238939 C29.352876,44.8424987 28.9754672,44.7410447 28.5950822,44.6196453 C28.196477,44.4924309 27.824166,44.3426506 27.4929258,44.1768851 C26.9677619,43.9248064 26.5738974,43.6236159 26.3236089,43.2342782 C26.0548487,42.8162068 25.9659608,42.3082759 26.0081378,41.79838 C26.0081378,41.1937152 26.0349748,40.4614477 26.0883758,39.5994033 C26.1413724,38.7438855 26.2169452,37.8181197 26.3150624,36.8218528 C26.4125038,35.8324477 26.5211572,34.8058598 26.6410243,33.7420392 C26.7612901,32.6746809 26.8928478,31.6222188 27.0357056,30.58462 C27.1781646,29.5499182 27.3206808,28.571057 27.4632734,27.6479572 C27.6067321,26.719251 27.7467104,25.8982972 27.8988494,25.1166565 C28.0984496,24.3626112 28.4257514,23.8171082 28.9782502,23.5324876 C29.4470759,23.2909713 30.0213891,23.2519403 30.735249,23.3539339 C31.5757965,23.4784594 32.2944137,23.6198268 32.8939972,23.7797157 C33.4835479,23.9369292 34.0760914,24.1252874 34.677036,24.3467059 C35.1175704,24.5119063 35.4829382,24.6993976 35.7762962,24.9194161 C36.0772111,25.1451023 36.3241236,25.4032381 36.5108949,25.6950683 C36.692095,25.9781933 36.8220203,26.2888845 36.8998177,26.6223015 C36.9537855,26.8535923 37.011271,27.1141931 37.0723651,27.4043902 L37.0938153,27.6104007 C37.0938153,27.7010584 37.1023092,27.8228043 37.1202599,27.9723936 C37.1416022,28.150246 37.1856715,28.4770929 37.2519108,28.948128 C37.3184061,29.4209836 37.4185931,30.0963184 37.5523288,30.9730298 C37.5743231,31.1172147 37.5977226,31.2702328 37.6225272,31.4320834 C37.7688242,31.1431745 37.9172584,30.8514221 38.0678307,30.5568241 C38.4149385,29.8777002 38.7733178,29.1986658 39.1429767,28.5197005 C39.512111,27.8416986 39.870207,27.2008952 40.1897972,26.6484812 C40.5410851,25.9459056 40.8482961,25.3660448 41.1129351,24.9068182 C41.4187895,24.376071 41.7472598,23.9537519 42.11009,23.6413148 C42.5350012,23.2754191 43.0335518,23.059996 43.5804033,23.011387 C44.0557152,22.969137 44.6001523,23.0448848 45.2148363,23.2206449 C45.8452348,23.3897762 46.5083965,23.5891081 47.2045445,23.8186074 C47.9176932,24.0537113 48.6189268,24.3279368 49.3290756,24.6510256 C49.9650275,24.9580369 50.4183613,25.3616902 50.6378817,25.9031739 C50.855378,26.4396649 50.8138643,27.0505102 50.5854768,27.7354128 C50.3624485,28.4342347 50.1095148,29.2376713 49.8267061,30.145636 C49.5451428,31.0496023 49.2597496,31.9984421 48.9705355,32.9921521 C48.6803445,33.9892189 48.3901427,35.0012043 48.0999225,36.0281376 C47.8093974,37.0561492 47.5338006,38.0393594 47.2731259,38.9777886 C47.0131294,39.9137758 46.7792577,40.7750178 46.5715225,41.5614437 C46.3652914,42.3421757 46.2037726,42.988251 46.0872158,43.4981868 L46.044362,43.6378083 C45.8873342,44.0415941 45.6884189,44.3648315 45.4186649,44.6046128 C44.9730205,45.0007411 44.4217256,45.0322437 43.7586234,44.8791369 C43.3924155,44.7995265 43.0193116,44.7042659 42.6392628,44.5934183 C42.2127904,44.4690305 41.8308603,44.3144398 41.5479096,44.1551177 C41.0207894,43.9030168 40.6267892,43.5671477 40.4023931,43.1183557 C40.1779971,42.6695637 40.145702,42.152842 40.2496461,41.6438377 C40.3120617,41.1757213 40.4118831,40.5806322 40.5492756,39.8555049 C40.5946471,39.6160444 40.6425269,39.3682627 40.692916,39.1121522 C40.457122,39.5643065 40.232424,40.0019733 40.0188246,40.4251421 C39.628831,41.1977709 39.3171808,41.8394035 39.0853838,42.346454 C39.0022675,42.5293099 38.9296624,42.678791 38.865271,42.7983749 C38.7323495,43.0452293 38.5484945,43.2507142 38.3090783,43.3943639 C38.0843555,43.5291976 37.8344843,43.5964706 37.5660401,43.6132484 C37.3356573,43.6276473 37.0889413,43.5982764 36.8375969,43.5398302 C36.2023811,43.412787 35.6406773,43.2683489 35.1254738,43.0962297 C34.9127676,43.018882 34.7218811,42.9334853 34.5517638,42.8377944 C34.3192714,42.7070174 34.1165965,42.5332961 33.947857,42.3223717 C33.7950706,42.1313887 33.6698325,41.9107311 33.5682045,41.6623069 C33.4866738,41.4630099 33.4052895,41.2231403 33.3176376,40.9247195 C33.0973046,40.1315207 32.8836298,39.2540058 32.6763818,38.291779 C32.6524732,38.4396476 32.6289285,38.5866017 32.6057476,38.7326412 Z M56.2270204,25.7753624 C55.8242051,25.5068189 55.354261,25.2531982 54.8171739,25.0144928 C54.2800868,24.7757875 53.780305,24.5967611 53.3178133,24.4774084 C52.8553217,24.3431367 52.5084581,24.3244881 52.2772123,24.4214622 C52.0459665,24.5184362 51.8632104,24.783246 51.7289387,25.2158995 C51.5648287,25.9170965 51.3858024,26.7339042 51.1918543,27.666347 C50.9979062,28.5987898 50.8076907,29.5871644 50.6212021,30.6315004 C50.4347135,31.6758364 50.2519575,32.742535 50.0729285,33.8316282 C49.8938994,34.9207214 49.7335217,35.9575823 49.5917904,36.942242 C49.4500591,37.9269016 49.3307082,38.8332224 49.2337341,39.6612317 C49.1367601,40.4892409 49.0733549,41.1643194 49.0435167,41.6864874 C48.9987595,42.0743836 49.0323269,42.3764906 49.14422,42.5928173 C49.2561132,42.809144 49.4836258,42.9993595 49.8267648,43.1634695 C50.1400656,43.3275794 50.4720102,43.4618492 50.8226088,43.5662828 C51.1732073,43.6707163 51.5424491,43.7751484 51.9303453,43.879582 C52.3182415,43.9690965 52.5755919,43.9765559 52.7024041,43.9019605 C52.8292163,43.8273651 52.9299187,43.6632576 53.0045141,43.4096331 C53.1387859,42.7382743 53.2991636,41.9736826 53.4856522,41.1158352 C53.6721407,40.2579878 53.8772751,39.3479373 54.1010614,38.3856563 C54.3248477,37.4233752 54.55609,36.4387304 54.7947954,35.4316921 C55.0335007,34.4246539 55.2759322,33.440009 55.5220972,32.477728 C55.7682621,31.515447 56.0144233,30.6016667 56.2605882,29.7363598 C56.5067531,28.8710528 56.7342657,28.1027314 56.9431329,27.4313726 C57.0475665,27.0285573 57.0587557,26.7227206 56.9767007,26.5138534 C56.8946457,26.3049862 56.6447548,26.058825 56.2270204,25.7753624 Z M56.7817206,24.9433121 C57.3600921,25.3357379 57.7323201,25.7024102 57.9074522,26.148201 C58.0819875,26.5924727 58.0636353,27.0940995 57.8979897,27.7284391 C57.6917092,28.3914836 57.4664762,29.1521067 57.2224244,30.0099856 C56.9787595,30.8665045 56.7349093,31.7717061 56.4908999,32.7255612 C56.2462126,33.6820658 56.0051912,34.6609836 55.7678331,35.6623381 C55.5294504,36.6680152 55.2985314,37.6512833 55.0750694,38.6121697 C54.852343,39.5698934 54.6482631,40.4752661 54.4628285,41.3282649 C54.2774574,42.1809723 54.1182023,42.9402115 53.9638796,43.6917995 C53.8244516,44.1658547 53.5975834,44.5355658 53.2094242,44.7638947 C52.7877998,45.0119091 52.3327141,44.9987182 51.6703718,44.8451977 C51.2741327,44.738518 50.8964062,44.6316862 50.5371322,44.5246684 C50.1253419,44.4020075 49.7335869,44.2435448 49.3953093,44.0656037 C48.8725441,43.8155856 48.4819054,43.4889859 48.2560024,43.0522402 C48.0393132,42.6333078 47.9845269,42.140231 48.0451454,41.6294376 C48.076269,41.0847738 48.1414269,40.3910339 48.2405226,39.5449096 C48.3385679,38.7077535 48.4590575,37.7927851 48.6019914,36.7997709 C48.7446969,35.8083434 48.9060894,34.764922 49.0861716,33.6694216 C49.2659386,32.575839 49.4494702,31.504614 49.6367745,30.4557098 C49.8248831,29.4023017 50.0168805,28.4046682 50.2128087,27.4627055 C50.4083441,26.5226318 50.5891076,25.6978984 50.7738745,24.9195003 C50.9870963,24.2324522 51.3312448,23.7337881 51.8904856,23.4992678 C52.3776221,23.2949847 52.9348872,23.3249452 53.5676913,23.5091311 C54.0867241,23.6430751 54.6380529,23.840566 55.2233124,24.1006813 C55.8099,24.3613869 56.3292974,24.6416966 56.7817206,24.9433121 Z M67.0806008,36.2261294 C66.9164909,35.4652561 66.7523834,34.6708267 66.5882734,33.8428175 C66.4241635,33.0148082 66.2675155,32.2091897 66.1183246,31.4259377 C65.9691337,30.6426857 65.834864,29.9153912 65.7155113,29.2440324 C65.5961586,28.5726736 65.499186,28.0206757 65.4245906,27.5880222 C65.3350761,27.021097 65.1933469,26.5921797 64.9993988,26.3012575 C64.8054507,26.0103354 64.4772357,25.7679039 64.0147441,25.5739557 C63.4478188,25.3054122 62.9032804,25.0890887 62.3811124,24.9249788 C61.8589444,24.7608688 61.3218654,24.5967614 60.7698592,24.4326514 C60.3073676,24.3132987 59.9418555,24.309569 59.6733119,24.4214622 C59.4047684,24.5333553 59.2182826,24.813084 59.113849,25.2606565 C58.9497391,26.036449 58.7819019,26.9241212 58.6103324,27.9236999 C58.4387629,28.9232787 58.2709257,29.9601395 58.1068158,31.0343137 C57.9427059,32.1084878 57.7897875,33.1863756 57.6480562,34.2680093 C57.5063249,35.349643 57.3795146,36.3641256 57.2676215,37.3114875 C57.1557283,38.2588494 57.0662151,39.1054948 56.9990793,39.8514491 C56.9319434,40.5974033 56.8834571,41.1717795 56.8536189,41.5745948 C56.8237807,41.962491 56.8648076,42.264598 56.9767007,42.4809247 C57.0885939,42.6972515 57.3086471,42.8874669 57.636867,43.0515769 C57.9800059,43.2604441 58.3343289,43.4133624 58.6998465,43.5103365 C59.0653641,43.6073105 59.4271465,43.7005534 59.7852045,43.7900679 C60.1731007,43.8945015 60.4341808,43.9131501 60.5684526,43.8460142 C60.7027244,43.7788783 60.799697,43.6185006 60.8593733,43.3648761 C60.9339687,42.827789 61.034671,42.1974671 61.1614833,41.4738915 C61.2882955,40.7503158 61.4300247,39.9670756 61.5866751,39.1241473 C61.7433255,38.281219 61.9074329,37.3972764 62.0790024,36.4722931 C62.2505719,35.5473098 62.4184091,34.6223404 62.582519,33.6973571 C62.7764672,34.4731496 62.9853312,35.2452006 63.2091175,36.0135335 C63.4329038,36.7818664 63.6566867,37.5203501 63.880473,38.2290066 C64.1042593,38.9376632 64.3243125,39.5978228 64.5406392,40.2095053 C64.7569659,40.8211878 64.9695597,41.3582668 65.1784269,41.8207585 C65.4469705,42.4622792 65.9094552,42.909845 66.5658949,43.1634695 C67.282011,43.4170939 67.9831975,43.6110391 68.6694754,43.7453109 C69.4751061,43.9243399 69.9226719,43.7303947 70.0121864,43.1634695 C70.2508918,42.1191335 70.5380799,40.906976 70.8737593,39.5269606 C71.2094387,38.1469452 71.560032,36.733383 71.9255496,35.2862318 C72.2910671,33.8390805 72.660309,32.4143292 73.0332861,31.0119352 C73.4062632,29.6095411 73.7643159,28.3563568 74.1074549,27.2523445 C74.2268076,26.8644482 74.260375,26.5325036 74.2081582,26.2565005 C74.1559414,25.9804974 73.9135099,25.7082282 73.4808564,25.4396846 C73.227232,25.2755747 73.003449,25.141305 72.8095009,25.0368714 C72.6155528,24.9324378 72.4327968,24.8429246 72.2612273,24.7683292 C72.0896578,24.6937337 71.9143612,24.6340583 71.7353322,24.589301 C71.5563031,24.5445438 71.3548985,24.4923278 71.1311122,24.4326514 C70.6537015,24.3132987 70.2919191,24.3058393 70.0457542,24.4102729 C69.7995893,24.5147065 69.6168332,24.783246 69.4974805,25.2158995 C69.0648271,26.8122416 68.6284504,28.5577484 68.1883373,30.4524723 C67.7482243,32.3471961 67.3789825,34.2717293 67.0806008,36.2261294 Z M67.2142703,30.2262126 C67.6570298,28.3200954 68.0963329,26.562883 68.5334879,24.9499705 C68.7261206,24.2516769 69.0780612,23.7345397 69.6552043,23.4896911 C70.1407147,23.283717 70.7050211,23.2953522 71.3887749,23.4664165 C71.6077774,23.5248171 71.804206,23.5757431 71.9778678,23.6191585 C72.2105183,23.6773212 72.4380436,23.7547766 72.6599534,23.8512591 C72.8582719,23.9374845 73.0659651,24.0392118 73.2836008,24.1564003 C73.5032378,24.2746664 73.749426,24.4223793 74.0082193,24.5900445 C74.6556281,24.9918844 75.0759537,25.4639424 75.1907284,26.0706088 C75.276493,26.5239358 75.2268759,27.0145937 75.062393,27.5491495 C74.723606,28.6391598 74.3692963,29.8792438 73.9996915,31.2689579 C73.6277961,32.6672844 73.2596025,34.087991 72.8951012,35.5311185 C72.5302928,36.9754623 72.1804047,38.3861811 71.8454269,39.7633122 C71.5107782,41.13909 71.2246368,42.3468297 70.9999494,43.319432 C70.8045399,44.5570253 69.756363,45.0112353 68.4774638,44.7267035 C67.7419791,44.5828043 66.9935069,44.3757801 66.2054956,44.0962676 C65.2959503,43.7448523 64.6300068,43.1003909 64.2670563,42.2323452 C64.0458421,41.7425137 63.8230612,41.1796988 63.5978613,40.5429268 C63.3776136,39.9201573 63.1539872,39.2492783 62.9268903,38.530138 C62.8823655,38.3891428 62.8378459,38.2469955 62.7933312,38.1036956 C62.7172207,38.5136271 62.6427243,38.9146809 62.5698415,39.3068596 C62.4137932,40.1465479 62.2726687,40.9264465 62.1464706,41.6465181 C62.021574,42.3591634 61.9226949,42.9780736 61.8327905,43.5939154 C61.7118153,44.1080597 61.4654159,44.5155666 61.0156662,44.7404414 C60.5900739,44.9532376 60.1394491,44.9210501 59.5426689,44.7602104 C59.1799408,44.6695284 58.813526,44.5750916 58.4434118,44.476898 C57.9836553,44.3549218 57.5408307,44.163808 57.1896534,43.9460041 C56.6874901,43.6949225 56.3100035,43.3686205 56.0884831,42.9403476 C55.8788352,42.5350284 55.8136872,42.055302 55.8563511,41.5007231 C55.8866506,41.0916809 55.9355368,40.5125672 56.0031048,39.7618114 C56.071127,39.0060097 56.1616004,38.1502815 56.2745243,37.1941925 C56.3869328,36.2424678 56.5142669,35.2237947 56.6565322,34.1380854 C56.7991857,33.0494143 56.953102,31.9644923 57.1182859,30.8832883 C57.2833058,29.8031584 57.4521208,28.7602567 57.6247452,27.754532 C57.7983703,26.7429772 57.9685545,25.8428918 58.1400078,25.0334269 C58.3106282,24.3021966 58.6764278,23.7534972 59.2886966,23.4983852 C59.7897552,23.2896108 60.3652864,23.2954836 61.0548295,23.4741151 C61.611738,23.6396825 62.1537664,23.8053022 62.680939,23.9709851 C63.2485582,24.1493797 63.8356735,24.3826172 64.4014708,24.6517614 C65.0317998,24.9160929 65.516469,25.2740872 65.8314491,25.7465573 C66.1175096,26.1756481 66.3022481,26.7347252 66.4100507,27.4181153 C66.4843138,27.848841 66.581001,28.3992144 66.7000738,29.0689991 C66.804401,29.6558394 66.9202758,30.2861113 67.0476957,30.9597787 C67.1020593,30.7147732 67.1575842,30.4702511 67.2142703,30.2262126 Z M81.0820925,25.7753624 C80.6792772,25.5068189 80.209333,25.2531982 79.6722459,25.0144928 C79.1351589,24.7757875 78.635377,24.5967611 78.1728854,24.4774084 C77.7103937,24.3431367 77.3635302,24.3244881 77.1322844,24.4214622 C76.9010385,24.5184362 76.7182825,24.783246 76.5840107,25.2158995 C76.4199008,25.9170965 76.2408744,26.7339042 76.0469263,27.666347 C75.8529782,28.5987898 75.6627627,29.5871644 75.4762742,30.6315004 C75.2897856,31.6758364 75.1070295,32.742535 74.9280005,33.8316282 C74.7489715,34.9207214 74.5885937,35.9575823 74.4468624,36.942242 C74.3051311,37.9269016 74.1857802,38.8332224 74.0888061,39.6612317 C73.9918321,40.4892409 73.9284269,41.1643194 73.8985888,41.6864874 C73.8538315,42.0743836 73.8873989,42.3764906 73.9992921,42.5928173 C74.1111852,42.809144 74.3386979,42.9993595 74.6818368,43.1634695 C74.9951376,43.3275794 75.3270823,43.4618492 75.6776808,43.5662828 C76.0282793,43.6707163 76.3975211,43.7751484 76.7854173,43.879582 C77.1733136,43.9690965 77.4306639,43.9765559 77.5574762,43.9019605 C77.6842884,43.8273651 77.7849907,43.6632576 77.8595861,43.4096331 C77.9938579,42.7382743 78.1542357,41.9736826 78.3407242,41.1158352 C78.5272128,40.2579878 78.7323471,39.3479373 78.9561334,38.3856563 C79.1799197,37.4233752 79.4111621,36.4387304 79.6498674,35.4316921 C79.8885728,34.4246539 80.1310043,33.440009 80.3771692,32.477728 C80.6233341,31.515447 80.8694953,30.6016667 81.1156602,29.7363598 C81.3618251,28.8710528 81.5893378,28.1027314 81.798205,27.4313726 C81.9026386,27.0285573 81.9138277,26.7227206 81.8317727,26.5138534 C81.7497178,26.3049862 81.4998268,26.058825 81.0820925,25.7753624 Z M81.6367927,24.9433121 C82.2151642,25.3357379 82.5873921,25.7024102 82.7625242,26.148201 C82.9370595,26.5924727 82.9187073,27.0940995 82.7530618,27.7284391 C82.5467812,28.3914836 82.3215482,29.1521067 82.0774964,30.0099856 C81.8338316,30.8665045 81.5899814,31.7717061 81.3459719,32.7255612 C81.1012847,33.6820658 80.8602633,34.6609836 80.6229052,35.6623381 C80.3845224,36.6680152 80.1536034,37.6512833 79.9301414,38.6121697 C79.707415,39.5698934 79.5033351,40.4752661 79.3179006,41.3282649 C79.1325294,42.1809723 78.9732744,42.9402115 78.8189516,43.6917995 C78.6795236,44.1658547 78.4526554,44.5355658 78.0644963,44.7638947 C77.6428719,45.0119091 77.1877861,44.9987182 76.5254439,44.8451977 C76.1292048,44.738518 75.7514783,44.6316862 75.3922042,44.5246684 C74.9804139,44.4020075 74.5886589,44.2435448 74.2503813,44.0656037 C73.7276162,43.8155856 73.3369774,43.4889859 73.1110744,43.0522402 C72.8943852,42.6333078 72.8395989,42.140231 72.9002174,41.6294376 C72.9313411,41.0847738 72.996499,40.3910339 73.0955946,39.5449096 C73.1936399,38.7077535 73.3141296,37.7927851 73.4570634,36.7997709 C73.5997689,35.8083434 73.7611614,34.764922 73.9412437,33.6694216 C74.1210107,32.575839 74.3045423,31.504614 74.4918466,30.4557098 C74.6799552,29.4023017 74.8719525,28.4046682 75.0678808,27.4627055 C75.2634161,26.5226318 75.4441796,25.6978984 75.6289466,24.9195003 C75.8421684,24.2324522 76.1863168,23.7337881 76.7455577,23.4992678 C77.2326942,23.2949847 77.7899592,23.3249452 78.4227634,23.5091311 C78.9417962,23.6430751 79.493125,23.840566 80.0783844,24.1006813 C80.664972,24.3613869 81.1843694,24.6416966 81.6367927,24.9433121 Z M98.5373351,27.0061808 C98.6566878,26.6182846 98.6753364,26.3199073 98.5932814,26.1110401 C98.5112264,25.9021729 98.2762544,25.6560117 97.8883581,25.3725491 C97.4706238,25.1040056 97.0305173,24.8615741 96.5680257,24.6452473 C96.105534,24.4289206 95.6579682,24.2610834 95.2253147,24.1417307 C94.7628231,24.0074589 94.4085001,23.9738915 94.1623352,24.0410274 C93.9161703,24.1081633 93.7259548,24.3804325 93.591683,24.8578432 C93.2485441,26.1259655 92.9016805,27.5395276 92.551082,29.098572 C92.2004835,30.6576165 91.8387011,32.2278266 91.465724,33.8092497 C90.8987988,33.854007 90.3132334,33.8987635 89.7090105,33.9435208 C89.1047875,33.988278 88.4893845,34.0479535 87.8627829,34.1225489 L88.7019773,30.4300938 C88.9630612,29.2813242 89.2129522,28.2817605 89.4516575,27.4313726 C89.4964148,27.2374245 89.5262525,27.0658576 89.5411716,26.9166667 C89.5560907,26.7674759 89.5374421,26.6332061 89.4852253,26.5138534 C89.4330085,26.3945007 89.3434953,26.2751498 89.2166831,26.1557972 C89.0898709,26.0364445 88.9145743,25.9096342 88.690788,25.7753624 C88.2879727,25.5068189 87.8142988,25.2569279 87.2697522,25.0256821 C86.7252056,24.7944363 86.2142346,24.6116802 85.7368239,24.4774084 C85.3041704,24.3132985 84.9759554,24.2760014 84.7521691,24.3655159 C84.5283829,24.4550304 84.356816,24.7384888 84.2374633,25.2158995 C84.0584342,26.4691027 83.8831376,27.8379082 83.7115681,29.3223572 C83.5399987,30.8068062 83.364702,32.2949626 83.185673,33.7868712 C83.006644,35.2787797 82.8201582,36.7109904 82.6262101,38.0835463 C82.432262,39.4561021 82.2233979,40.6570705 81.9996117,41.6864874 C81.9100971,42.0743836 81.9399349,42.3764906 82.0891257,42.5928173 C82.2383166,42.809144 82.4844778,42.9993595 82.8276168,43.1634695 C83.1110794,43.3275794 83.4504835,43.4618492 83.8458392,43.5662828 C84.241195,43.6707163 84.6253557,43.7751484 84.9983328,43.879582 C85.386229,43.9690965 85.6435794,43.9765559 85.7703916,43.9019605 C85.8972039,43.8273651 85.9904467,43.6632576 86.0501231,43.4096331 C86.1694758,42.693517 86.3037455,41.8841688 86.4529364,40.9815641 C86.6021272,40.0789595 86.7960724,39.1129632 87.0347778,38.0835463 C87.6613794,37.9791127 88.2767824,37.8858698 88.8810054,37.8038148 C89.4852283,37.7217599 90.1006314,37.6359764 90.727233,37.5464619 C90.563123,38.4117689 90.4213938,39.1950091 90.3020412,39.8962061 C90.1826885,40.5974031 90.0931753,41.2165359 90.033499,41.7536229 C89.8992272,42.29071 90.0036592,42.6897896 90.3467982,42.9508736 C90.6899372,43.2119576 91.1673407,43.4320108 91.7790232,43.6110398 C92.0774049,43.6856352 92.3571336,43.7564998 92.6182176,43.8236357 C92.8793016,43.8907716 93.1068142,43.9280687 93.3007623,43.9355283 C93.4947104,43.9429878 93.6476288,43.9131501 93.7595219,43.8460142 C93.871415,43.7788783 93.9273608,43.6408788 93.9273608,43.4320117 C94.2257425,42.1937276 94.5651466,40.85103 94.9455833,39.4038787 C95.3260199,37.9567275 95.7213698,36.5021385 96.1316446,35.0400681 C96.5419195,33.5779977 96.9559179,32.1532464 97.3736523,30.7657715 C97.7913867,29.3782966 98.1792771,28.1251122 98.5373351,27.0061808 Z M90.8686543,38.5364114 L90.727233,37.5464619 L89.7447464,37.3601282 C89.653428,37.8416255 89.5689492,38.2981237 89.491306,38.7296629 C89.9443104,38.6672898 90.4034237,38.6028729 90.8686543,38.5364114 Z M87.74457,33.1295606 L87.8627829,34.1225489 L88.8379158,34.34417 C88.9753062,33.7396522 89.0696246,33.3246512 89.146728,32.9853961 C88.6853418,33.0251475 88.2179595,33.0732048 87.74457,33.1295606 Z M94.2740177,44.7035071 C93.9752661,44.8827581 93.6351221,44.9491276 93.2623292,44.9347894 C92.9906297,44.9243395 92.6946114,44.8758119 92.3691765,44.7921286 C92.1103349,44.7255693 91.8327654,44.6552517 91.4981245,44.5707772 C90.777958,44.3599968 90.1928755,44.0903103 89.7412764,43.7467023 C89.0695801,43.235629 88.8503339,42.4520114 89.046502,41.581974 C89.1083408,41.038899 89.1982678,40.421376 89.31622,39.7284067 C89.370106,39.4118262 89.4284673,39.0789187 89.491306,38.7296629 C89.3319726,38.7516012 89.1733949,38.7732866 89.0155727,38.7947193 C88.6355362,38.8463292 88.2508726,38.9024596 87.8615799,38.9631134 C87.6939164,39.7295065 87.5532542,40.456729 87.4395498,41.1446407 C87.2902897,42.0476642 87.1559478,42.8574473 87.0235403,43.6386725 C86.907374,44.132379 86.684676,44.5243275 86.2774118,44.7638947 C85.8557874,45.0119091 85.4007016,44.9987182 84.7287029,44.842546 C84.3605284,44.7394571 83.9811108,44.6363145 83.5904481,44.5331206 C83.1132819,44.4070767 82.6917888,44.2403322 82.3961613,44.0656037 C81.9072423,43.8317729 81.5252618,43.5366061 81.2659129,43.1605503 C80.9354749,42.6814151 80.878007,42.0995527 81.0224353,41.4740577 C81.2406043,40.4704801 81.4453378,39.2932628 81.6360465,37.9436319 C81.8289973,36.5781341 82.014583,35.152836 82.1927962,33.667726 C82.3716522,32.1772589 82.5467788,30.6905464 82.7181811,29.2075436 C82.8907387,27.7145449 83.0671636,26.3369291 83.2475138,25.0744781 L83.2673208,24.9733639 C83.4569629,24.2147955 83.7829799,23.6761586 84.3807785,23.4370392 C84.887604,23.2343089 85.44671,23.2978437 86.0075694,23.5147575 C86.5278293,23.6610806 87.0785328,23.8580475 87.6606258,24.1052377 C88.2598521,24.3597037 88.7880929,24.6383819 89.2052837,24.9178695 C89.4858516,25.0862102 89.7169513,25.2533887 89.9020478,25.4275972 C90.1210146,25.6336836 90.2905793,25.8597699 90.4013827,26.1130346 C90.5250943,26.395804 90.567624,26.7020182 90.5362088,27.0161704 C90.5167372,27.2108861 90.4797755,27.4234163 90.4144459,27.701629 C90.1806255,28.5346144 89.9347077,29.5182855 89.6771101,30.6517149 C89.4018593,31.8628183 89.315568,32.2424999 89.146728,32.9853961 C89.3102849,32.9713046 89.4730884,32.9582568 89.6351388,32.946253 C89.9827976,32.9205005 90.3242393,32.8947501 90.6594666,32.8690016 C90.9728626,31.5309638 91.2781872,30.2010297 91.5754473,28.8791709 C91.9290579,27.3067324 92.2793096,25.8793626 92.6290321,24.5870976 C92.8485701,23.8065181 93.2315296,23.2583603 93.8992178,23.0762636 C94.358647,22.9509647 94.8808646,23.0004379 95.4912437,23.1777381 C95.9798804,23.3125344 96.4798931,23.5000392 96.9917108,23.7394378 C97.4943475,23.9745421 97.9735781,24.238525 98.4783747,24.565158 C99.0066965,24.9512392 99.3556719,25.3168326 99.5240329,25.7453878 C99.7047518,26.2053995 99.6728267,26.7162006 99.4931141,27.3002666 C99.133555,28.4240949 98.747347,29.6718437 98.3311947,31.0540638 C97.9152951,32.4354447 97.5030506,33.85416 97.0944554,35.3102446 C96.6856617,36.7670368 96.2917549,38.2163165 95.9127223,39.6581266 C95.5438692,41.061215 95.2139221,42.3650334 94.9228865,43.5694962 C94.8918174,44.0385063 94.6968852,44.4497866 94.2740177,44.7035071 Z M100.521564,25.6858483 L98.3956045,40.5675616 C98.3657664,40.9703769 98.4217121,41.3135107 98.5634434,41.5969733 C98.7051747,41.8804359 98.9028496,42.1265972 99.1564741,42.3354644 C99.4697749,42.6040079 99.7420441,42.8240611 99.9732899,42.9956306 C100.204536,43.1672001 100.446967,43.3350373 100.700592,43.4991472 C100.924378,43.6483381 101.189188,43.7639592 101.495029,43.8460142 C101.80087,43.9280692 102.252166,43.8945017 102.848929,43.7453109 C103.744074,43.5812009 104.683963,43.4021746 105.668622,43.2082265 C106.653282,43.0142784 107.623008,42.8277926 108.577829,42.6487636 C108.980645,42.5741682 109.219346,42.4809253 109.293942,42.3690321 C109.368537,42.257139 109.368537,42.0520046 109.293942,41.7536229 C109.174589,41.4850794 109.066427,41.2202696 108.969453,40.9591856 C108.872479,40.6981016 108.73448,40.418373 108.555451,40.1199913 C108.391341,39.8514477 108.193666,39.6724214 107.96242,39.5829069 C107.731174,39.4933924 107.406689,39.4635546 106.988955,39.4933928 C106.243,39.5381501 105.553003,39.5978255 104.918942,39.6724209 C104.284881,39.7470164 103.617262,39.843989 102.916065,39.9633416 C103.035417,39.5456073 103.147309,39.1241494 103.251743,38.6989555 C103.356176,38.2737615 103.468068,37.822466 103.58742,37.3450553 C104.452727,37.1660262 105.351589,37.0019188 106.284032,36.8527279 C107.216474,36.703537 108.130255,36.546889 109.0254,36.3827791 C109.443134,36.2932645 109.700484,36.1888325 109.797459,36.0694798 C109.894433,35.9501271 109.883243,35.7188848 109.763891,35.3757458 C109.689295,35.0773641 109.603512,34.7827166 109.506538,34.4917944 C109.409564,34.2008723 109.271564,33.9062248 109.092535,33.6078431 C108.928425,33.3094613 108.727021,33.1155161 108.488315,33.0260016 C108.24961,32.9364871 107.921395,32.89919 107.503661,32.914109 C106.996412,32.9290281 106.519008,32.9514064 106.071436,32.9812446 C105.623863,33.0110828 105.176297,33.0558394 104.728725,33.1155157 C104.96743,32.3248042 105.183753,31.5676719 105.377702,30.8440963 C105.57165,30.1205207 105.780514,29.4230639 106.0043,28.751705 C107.063555,28.6025142 108.070578,28.4757039 109.0254,28.3712703 C109.980221,28.2668367 110.905191,28.1624046 111.800336,28.057971 C112.232989,27.9982947 112.508988,27.9013221 112.628341,27.7670503 C112.747694,27.6327786 112.777531,27.3716985 112.717855,26.9838023 C112.643259,26.6406633 112.568665,26.3236375 112.49407,26.0327153 C112.419474,25.7417932 112.285205,25.4173079 112.091256,25.0592499 C111.852551,24.387891 111.308013,24.0596761 110.457625,24.0745952 C109.56248,24.1044333 108.663618,24.1752979 107.761014,24.2871911 C106.858409,24.3990842 105.978196,24.5296242 105.120349,24.6788151 C104.262501,24.8280059 103.441964,24.9921134 102.658712,25.1711425 C101.87546,25.3501715 101.163084,25.5217384 100.521564,25.6858483 Z M106.004917,31.9834594 C105.53536,32.0147632 105.065901,32.0617091 104.596561,32.1242878 L104.728725,33.1155157 L105.686052,33.4045203 C105.833437,32.9163093 105.972464,32.4404956 106.103133,31.9770573 C106.070249,31.9791526 106.037509,31.9812866 106.004917,31.9834594 Z M113.462734,25.78434 C113.540516,26.0876896 113.617913,26.4166301 113.706227,26.8317451 C113.807194,27.4880308 113.747127,28.0136154 113.37575,28.4314142 C113.051303,28.7964173 112.589893,28.9585342 111.916216,29.0512342 C111.018648,29.1559504 110.091297,29.2606514 109.134126,29.365342 C108.377443,29.4481042 107.587021,29.5451509 106.76289,29.6564918 C106.616083,30.1257184 106.476316,30.6078855 106.343605,31.1029983 C106.266867,31.3892926 106.186709,31.6806437 106.103133,31.9770573 C106.534717,31.9495592 106.991306,31.9287473 107.467969,31.9147462 C108.006346,31.8955184 108.458803,31.9469339 108.839439,32.0896725 C109.32174,32.2705355 109.697077,32.6319704 109.950028,33.0933473 C110.165481,33.452436 110.334396,33.8130918 110.455221,34.1755667 C110.560295,34.4907872 110.653235,34.8100172 110.708388,35.0472252 C110.932479,35.6914871 110.958365,36.2264812 110.573573,36.7000725 C110.284268,37.0561397 109.868714,37.2247705 109.205728,37.3663856 C108.303082,37.5318707 107.381857,37.6897949 106.442022,37.8401685 C105.743389,37.9519497 105.064315,38.072165 104.404801,38.2007985 C104.358603,38.3869313 104.313666,38.5686515 104.269989,38.7459592 C104.449739,38.7220875 104.627109,38.6998576 104.802101,38.6792703 C105.455891,38.6023538 106.164765,38.5410458 106.917708,38.4959341 C107.469725,38.4565043 107.932639,38.4990711 108.323414,38.6503388 C108.774006,38.8247613 109.136484,39.1530436 109.412944,39.6054955 C109.622137,39.9541506 109.787126,40.2885883 109.906879,40.6109991 C109.996488,40.8522547 110.096764,41.0977582 110.207753,41.3474845 L110.264084,41.5110873 C110.401505,42.0607705 110.401505,42.5104628 110.125992,42.9237323 C109.844637,43.3457646 109.428909,43.5081585 108.762118,43.6316358 C107.810313,43.8100992 106.843576,43.9960102 105.861879,44.1893748 C104.873015,44.384151 103.928827,44.5639962 103.091465,44.7154534 C102.344515,44.9021908 101.74015,44.9471435 101.2359,44.811857 C100.82889,44.7026592 100.464309,44.5434757 100.15734,44.3387174 C99.8860091,44.16315 99.6260375,43.9831697 99.377443,43.7987286 C99.1254442,43.6117617 98.8355369,43.3774532 98.5207668,43.1073946 C98.1601229,42.8103937 97.8739142,42.4539829 97.6690162,42.0441869 C97.4409695,41.5880934 97.3559129,41.0664129 97.4056551,40.4261402 L99.6261455,24.8827068 L100.27373,24.7170456 C100.923997,24.5506984 101.644633,24.3771419 102.435887,24.1962839 C103.236563,24.0132723 104.074243,23.8457362 104.949007,23.6936033 C105.823078,23.5415911 106.719394,23.4086628 107.637988,23.2947875 C108.570262,23.1792164 109.499055,23.1059921 110.440084,23.074749 C111.667089,23.0532226 112.596437,23.5952649 113.004555,24.6464524 C113.217348,25.0482477 113.37086,25.4260314 113.462734,25.78434 Z M116.71615,38.3073314 C117.104046,38.7847422 117.536693,39.258416 118.014104,39.7283672 C118.491514,40.1983184 118.968918,40.649614 119.446329,41.0822675 C119.92374,41.5149209 120.386224,41.9102708 120.833797,42.2683288 C121.281369,42.6263869 121.676719,42.9247641 122.019858,43.1634695 C122.542026,43.4767703 123.000781,43.6520669 123.396137,43.6893646 C123.791493,43.7266623 124.153275,43.7005543 124.481495,43.6110398 C124.750038,43.5662825 124.977551,43.5252557 125.16404,43.4879579 C125.350528,43.4506602 125.578041,43.3275796 125.846584,43.1187124 C126.070371,42.9546025 126.197181,42.7979544 126.227019,42.6487636 C126.256857,42.4995727 126.122588,42.2981681 125.824206,42.0445437 C125.451229,41.7461619 125.052149,41.3955687 124.626955,40.9927534 C124.201761,40.5899381 123.772844,40.17221 123.340191,39.7395565 C122.907537,39.306903 122.486079,38.874256 122.075804,38.4416025 C121.66553,38.0089491 121.288828,37.5986804 120.945689,37.2107842 C122.616627,36.4648299 124.052567,35.6592114 125.253554,34.7939044 C126.45454,33.9285975 127.316104,32.9812497 127.838272,31.9518329 C128.181411,31.3103122 128.256006,30.4897748 128.062058,29.4901961 C127.823352,28.5502937 127.491407,27.7558643 127.066214,27.1068841 C126.64102,26.4579039 126.167346,25.8499603 125.645178,25.283035 C124.988738,24.6415144 124.224146,24.2498942 123.35138,24.1081629 C122.478613,23.9664316 121.553644,23.9813505 120.576444,24.15292 C119.599244,24.3244894 118.607139,24.6116775 117.600101,25.0144928 C116.593063,25.4173081 115.627067,25.8275768 114.702083,26.2453112 C114.508135,26.3497448 114.321649,26.6145546 114.14262,27.0397486 C113.963591,27.4649425 113.799484,28.0020215 113.650293,28.6510017 C113.501102,29.2999819 113.359373,30.0310061 113.225101,30.8440963 C113.09083,31.6571865 112.967749,32.4963724 112.855856,33.3616794 C112.743963,34.2269863 112.639531,35.0922803 112.542557,35.9575872 C112.445583,36.8228942 112.359799,37.6322424 112.285204,38.3856563 C112.210608,39.1390701 112.147203,39.8141486 112.094986,40.410912 C112.042769,41.0076754 112.001743,41.4627007 111.971904,41.7760015 C111.942066,42.1638977 111.979363,42.4734641 112.083797,42.7047099 C112.188231,42.9359557 112.382176,43.1336306 112.665638,43.2977406 C112.949101,43.4469314 113.247478,43.5513634 113.560779,43.6110398 C113.87408,43.6707161 114.232133,43.7527699 114.634948,43.8572035 C114.978087,43.9317989 115.213059,43.9317989 115.339871,43.8572035 C115.466683,43.782608 115.567386,43.62596 115.641981,43.3872546 C115.806091,42.581624 115.973928,41.7610866 116.145498,40.9256178 C116.317067,40.0901491 116.507283,39.2173957 116.71615,38.3073314 Z M121.694686,36.5482103 L120.945689,37.2107842 L121.35334,38.123922 C121.782427,37.9323655 122.197039,37.7367347 122.597175,37.536991 C122.273225,37.1917472 121.972382,36.8621273 121.694686,36.5482103 Z M117.69081,38.5310239 L116.71615,38.3073314 L115.940036,38.9379241 C116.341776,39.4323738 116.787144,39.9213012 117.27599,40.4049051 C117.404807,39.7993365 117.543079,39.1747069 117.69081,38.5310239 Z M122.801428,37.753511 C123.205575,38.1797024 123.62086,38.6060125 124.047297,39.0324497 C124.47365,39.4588023 124.896118,39.870249 125.3147,40.2668007 C125.720566,40.6513049 126.098907,40.9836795 126.471854,41.2826043 C127.030125,41.7571343 127.33399,42.2129313 127.2076,42.8448797 C127.119071,43.2875263 126.843947,43.627385 126.460525,43.9080646 C126.080377,44.2037352 125.726228,44.3953242 125.360156,44.4685386 C125.17306,44.5059578 124.950605,44.5462772 124.691934,44.5897303 C124.257661,44.7009339 123.793214,44.7312649 123.302214,44.6849441 C122.739029,44.6318134 122.145376,44.4049705 121.448794,43.9843747 C121.085707,43.7317925 120.672988,43.4203064 120.209102,43.0491976 C119.745022,42.6779338 119.266999,42.2693013 118.774809,41.8232544 C118.287104,41.3812717 117.799707,40.9205288 117.312587,40.4410197 C117.224147,40.6486166 117.173836,40.8892407 117.125056,41.1267772 C116.953592,41.9617324 116.785861,42.7817517 116.621858,43.5868591 L116.596461,43.6855296 C116.454743,44.1390272 116.224674,44.4969126 115.846891,44.7191377 C115.439782,44.9586138 114.993994,44.9586138 114.383986,44.8252004 C114.001107,44.7259355 113.66395,44.6486703 113.373667,44.5933783 C112.963072,44.5151699 112.570806,44.3778765 112.164602,44.1631668 C111.710854,43.9004705 111.369398,43.5524482 111.172426,43.1162966 C110.989952,42.7122466 110.933179,42.2410283 110.976409,41.6811924 C111.005958,41.3709283 111.04678,40.9181775 111.098793,40.323745 C111.151362,39.7229487 111.215118,39.0441355 111.290069,38.2871281 C111.365105,37.5292709 111.45134,36.7156626 111.548778,35.8462155 C111.646383,34.9752764 111.751494,34.1043586 111.864113,33.2334368 C111.977484,32.3566986 112.10226,31.5059567 112.238464,30.6811653 C112.375961,29.848544 112.521599,29.097359 112.675713,28.4269604 C112.836884,27.7258701 113.01727,27.1355152 113.220985,26.6516916 C113.480831,26.0345572 113.784169,25.603817 114.290497,25.3339406 C115.22898,24.9101095 116.208367,24.4941534 117.228711,24.0860161 C118.29841,23.6581366 119.356803,23.3517595 120.403516,23.1679854 C121.48785,22.9776062 122.525075,22.9608768 123.511673,23.1210935 C124.589771,23.2961693 125.541848,23.7838182 126.380723,24.6055593 C126.940082,25.2128632 127.447496,25.8641112 127.902675,26.5588578 C128.392309,27.3061941 128.766689,28.202183 129.043749,29.2997186 C129.278293,30.5085232 129.182865,31.5582356 128.7301,32.404209 C128.130478,33.586321 127.161547,34.6517257 125.838124,35.6052475 C124.890913,36.2877098 123.810601,36.9312626 122.597175,37.536991 C122.68804,37.6336815 122.744396,37.693368 122.801428,37.753511 Z M119.110651,29.2216539 C118.871946,29.9825272 118.640703,30.7956052 118.416917,31.6609121 C118.193131,32.5262191 117.93951,33.4511885 117.656048,34.4358481 C118.685464,34.0927092 119.599245,33.6712513 120.397416,33.171462 C121.195587,32.6716726 121.863206,32.1644313 122.400293,31.6497229 C122.93738,31.1350144 123.32527,30.6464217 123.563976,30.1839301 C123.802681,29.7214384 123.877275,29.3633857 123.787761,29.1097613 C123.608732,28.6920269 123.079112,28.4831628 122.198886,28.4831628 C121.766233,28.4831628 121.288829,28.5353789 120.766661,28.6398125 C120.244493,28.7442461 119.692495,28.9381913 119.110651,29.2216539 Z M118.672682,28.322664 C119.327955,28.0034285 119.960117,27.7813175 120.570545,27.6592318 C121.15431,27.5424789 121.696628,27.4831628 122.198886,27.4831628 C123.435476,27.4831628 124.329762,27.8358387 124.730751,28.7769412 C124.932618,29.3488966 124.805584,29.9586599 124.452596,30.642573 C124.158046,31.2132649 123.703292,31.7860792 123.092198,32.3717111 C122.502586,32.9367566 121.781207,33.4848428 120.928126,34.019015 C120.060163,34.562506 119.074459,35.0171367 117.972275,35.3845314 L116.169318,35.9855171 L116.695075,34.1592045 C116.976106,33.1829898 117.227339,32.2667317 117.44877,31.4105293 C117.676693,30.5292271 117.912565,29.6998712 118.156505,28.9223138 L118.285444,28.511318 L118.672682,28.322664 Z M141.563762,25.8648765 C141.056513,25.4620611 140.418732,25.1189273 139.650399,24.8354647 C138.882066,24.5520021 138.072718,24.343138 137.22233,24.2088663 C136.56589,24.1044327 135.875893,24.1566487 135.152317,24.3655159 C134.428742,24.5743831 133.805879,24.8802197 133.283711,25.283035 C132.507919,25.9543939 131.825381,26.7115261 131.236077,27.5544544 C130.646773,28.3973827 130.150721,29.2887847 129.747906,30.2286871 C129.34509,31.1685895 129.039254,32.1345858 128.830387,33.126705 C128.621519,34.1188241 128.509628,35.0922798 128.494709,36.0471013 C128.47979,37.0019228 128.561844,37.9119733 128.740873,38.7772803 C128.919902,39.6425872 129.188441,40.418368 129.546499,41.104646 C129.770285,41.5223804 130.076122,41.8953519 130.464018,42.2235718 C130.851915,42.5517917 131.247264,42.8203312 131.65008,43.0291984 C132.142409,43.2828228 132.686948,43.4730383 133.283711,43.5998505 C133.880475,43.7266628 134.46231,43.8199056 135.029236,43.879582 C135.879623,43.9690965 136.633026,43.9355291 137.289466,43.7788787 C137.945905,43.6222283 138.572498,43.3126619 139.169261,42.8501702 C140.049487,42.0743778 140.791701,41.1270301 141.395923,40.0080987 C142.000146,38.8891673 142.47755,37.6993881 142.828148,36.4387253 C143.178747,35.1780626 143.3988,33.9099594 143.488315,32.6343776 C143.577829,31.3587958 143.540532,30.176476 143.376422,29.0873828 C143.257069,28.430943 143.066854,27.8453777 142.80577,27.3306693 C142.544686,26.8159608 142.130688,26.3273681 141.563762,25.8648765 Z M142.185644,25.0817656 C142.865221,25.6360451 143.369137,26.2307571 143.697597,26.8782931 C144.00414,27.4826199 144.224229,28.160148 144.365259,28.93838 C144.540727,30.1028484 144.580329,31.3582252 144.485861,32.7043809 C144.391621,34.0473112 144.160064,35.381705 143.791585,36.7066632 C143.421112,38.0387881 142.915807,39.2981022 142.275829,40.4832476 C141.616619,41.7040075 140.801148,42.7448592 139.781833,43.6405853 C139.075721,44.1878219 138.320583,44.560896 137.521584,44.7515661 C136.747592,44.9362689 135.881755,44.9748458 134.924551,44.8740874 C134.322365,44.8106994 133.70614,44.7119455 133.075853,44.5780094 C132.394152,44.4331479 131.765509,44.2135537 131.189762,43.9169529 C130.718627,43.6726602 130.261477,43.3621436 129.818076,42.9869581 C129.33569,42.5787855 128.949382,42.1076774 128.659914,41.567212 C128.257575,40.7960625 127.958786,39.9328932 127.761612,38.9798859 C127.567433,38.0413546 127.478788,37.0582023 127.494831,36.0314782 C127.510766,35.0116655 127.629976,33.9745326 127.851837,32.9206945 C128.0743,31.8639963 128.400061,30.8350678 128.828761,29.8347678 C129.258588,28.8318367 129.788024,27.8804449 130.416505,26.9814789 C131.053073,26.0709449 131.791088,25.2522718 132.672908,24.4912528 C133.298219,24.00887 134.034434,23.6473751 134.874981,23.404743 C135.73539,23.1563774 136.573012,23.0929898 137.378293,23.2211033 C138.292748,23.3654909 139.165793,23.5907929 139.996527,23.8972772 C140.859284,24.2155761 141.589828,24.6086172 142.185644,25.0817656 Z M137.960821,28.1027281 C137.64752,27.9982945 137.296927,28.1288345 136.909031,28.4943521 C136.521135,28.8598697 136.133244,29.3559218 135.745348,29.9825234 C135.357452,30.609125 134.99567,31.3065818 134.65999,32.0749147 C134.324311,32.8432476 134.052041,33.585461 133.843174,34.3015771 C133.634307,35.0027741 133.485118,35.7300686 133.395604,36.4834824 C133.306089,37.2368962 133.276252,37.9380827 133.30609,38.5870629 C133.335928,39.2360431 133.44036,39.7917707 133.619389,40.2542624 C133.798418,40.716754 134.059498,41.0002124 134.402637,41.104646 C134.715938,41.2090796 135.044153,41.1419447 135.387292,40.9032393 C135.730431,40.664534 136.073565,40.2990219 136.416704,39.806692 C136.759843,39.3143622 137.084328,38.7064186 137.390169,37.982843 C137.69601,37.2592673 137.96082,36.4722974 138.184606,35.6219095 C138.378554,34.9207125 138.535203,34.1486614 138.654555,33.3057331 C138.773908,32.4628048 138.833583,31.6758348 138.833583,30.9447996 C138.833583,30.1988454 138.762719,29.561064 138.620987,29.0314365 C138.479256,28.501809 138.259203,28.1922426 137.960821,28.1027281 Z M139.586996,28.7729271 C139.753268,29.3942588 139.833583,30.1170965 139.833583,30.9447996 C139.833583,31.7246562 139.770378,32.5581834 139.644679,33.4459276 C139.519504,34.3299744 139.354334,35.144027 139.151681,35.8764028 C138.916116,36.7715498 138.636171,37.6034978 138.311267,38.3721732 C137.979853,39.156251 137.623075,39.8246968 137.237102,40.3784847 C136.831106,40.9610009 136.408951,41.4106874 135.958356,41.7241445 C135.371671,42.1322734 134.72194,42.2651729 134.111476,42.0613199 C133.442945,41.8578542 132.968376,41.3426078 132.686821,40.6152565 C132.465809,40.0443084 132.341658,39.3836494 132.307145,38.6329914 C132.274687,37.9270225 132.306843,37.171358 132.402588,36.3655003 C132.498781,35.5558768 132.659464,34.7725463 132.883174,34.0215771 C133.104372,33.2631857 133.391317,32.4809645 133.743629,31.6745626 C134.097748,30.8640232 134.481333,30.1245334 134.895083,29.4561688 C135.325785,28.7604188 135.766112,28.1973087 136.22323,27.7665631 C136.847841,27.1779872 137.544331,26.9163188 138.262803,27.14936 C138.95236,27.3626611 139.366456,27.9488014 139.586996,28.7729271 Z" id="Minihero"></path>
        </g>
    </g>
</svg>