<?xml version="1.0" encoding="UTF-8"?>
<svg width="118px" height="22px" viewBox="0 0 118 22" version="1.1" xmlns="http://www.w3.org/2000/svg" xmlns:xlink="http://www.w3.org/1999/xlink">
    <!-- Generator: Sketch 43.2 (39069) - http://www.bohemiancoding.com/sketch -->
    <title>Minihero</title>
    <desc>Created with Sketch.</desc>
    <defs></defs>
    <g id="Page-1" stroke="none" stroke-width="1" fill="none" fill-rule="evenodd">
        <path d="M6.66990234,9.60080982 C6.89368863,11.0927184 7.14357956,12.5398479 7.41958264,13.942242 C7.69558572,15.344636 7.9827738,16.5829015 8.28115551,17.6570756 C8.35575094,17.9107001 8.42661553,18.1195642 8.49375141,18.2836741 C8.5608873,18.447784 8.63921132,18.5857835 8.72872583,18.6976767 C8.81824035,18.8095698 8.92267238,18.899083 9.04202506,18.9662188 C9.16137774,19.0333547 9.30310693,19.0967599 9.46721687,19.1564362 C9.91478943,19.3056271 10.4369496,19.4398968 11.033713,19.5592495 C11.2276611,19.6040068 11.3843092,19.6226554 11.5036618,19.6151958 C11.6230145,19.6077363 11.7199871,19.5816283 11.7945826,19.536871 C11.869178,19.4921138 11.9325831,19.4212492 11.9847999,19.3242751 C12.0370167,19.227301 12.1004219,19.096761 12.1750173,18.9326511 C12.4137227,18.4104831 12.7307485,17.7577829 13.1261043,16.9745309 C13.52146,16.1912789 13.954107,15.3595524 14.4240582,14.4793263 C14.8940094,13.5991003 15.3788724,12.7039686 15.8786618,11.7939044 C16.3784511,10.8838402 16.852125,10.0409245 17.2996975,9.26513208 C17.0460731,10.1453581 16.811101,11.0554087 16.5947743,11.9953111 C16.3784475,12.9352134 16.1807726,13.8340748 16.0017436,14.6919223 C15.8227146,15.5497697 15.6660665,16.3330099 15.5317948,17.0416665 C15.397523,17.750323 15.3005504,18.3284289 15.240874,18.7760015 C15.1662786,19.1489786 15.1849272,19.4473558 15.2968203,19.6711421 C15.4087135,19.8949284 15.6362261,20.0888736 15.9793651,20.2529835 C16.2479086,20.4021744 16.5612047,20.5289847 16.9192628,20.6334183 C17.2773208,20.7378519 17.6279141,20.8273651 17.971053,20.9019605 C18.3589492,20.991475 18.6200293,20.9765561 18.7543011,20.8572035 C18.8885729,20.7378508 19.0079237,20.5439056 19.1123573,20.275362 C19.23171,19.7531941 19.3958175,19.0967641 19.6046847,18.3060526 C19.8135519,17.5153411 20.048524,16.6500471 20.309608,15.7101447 C20.570692,14.7702424 20.8466909,13.7855975 21.1376131,12.7561806 C21.4285352,11.7267637 21.719453,10.7122811 22.0103752,9.7127024 C22.3012974,8.71312368 22.5884854,7.75831654 22.8719481,6.84825233 C23.1554107,5.93818812 23.4090313,5.1325696 23.6328176,4.43137258 C23.7969275,3.93904277 23.8230356,3.55488208 23.7111424,3.278879 C23.5992493,3.00287592 23.3269801,2.76044442 22.8943266,2.55157723 C22.2378868,2.25319552 21.5702678,1.99211544 20.8914494,1.76832916 C20.212631,1.54454288 19.5673902,1.35059768 18.9557077,1.18648774 C18.4335397,1.03729688 18.0046225,0.977621438 17.668943,1.00745961 C17.3332636,1.03729778 17.0311567,1.16783782 16.7626131,1.39908364 C16.4940696,1.63032947 16.2329895,1.96600385 15.9793651,2.40611687 C15.7257406,2.84622989 15.4273634,3.40941691 15.0842244,4.09569484 C14.7410855,4.69245826 14.3867625,5.32650988 14.0212449,5.99786872 C13.6557273,6.66922756 13.3014044,7.34057633 12.9582654,8.01193517 C12.6151264,8.68329402 12.2831818,9.33972393 11.9624214,9.9812446 C11.6416611,10.6227653 11.3619324,11.2120603 11.1232271,11.7491474 C10.8845217,10.2124816 10.6980359,9.00405379 10.5637642,8.12382775 C10.4294924,7.24360172 10.3287901,6.56479351 10.2616542,6.08738278 C10.1945183,5.60997205 10.1497617,5.27802738 10.1273831,5.09153881 C10.1050045,4.90505024 10.0938153,4.74467248 10.0938153,4.61040071 C10.034139,4.32693809 9.97819325,4.07331744 9.92597645,3.84953116 C9.87375965,3.62574488 9.7879762,3.42061054 9.66862351,3.23412197 C9.54927083,3.0476334 9.38516335,2.87606649 9.17629616,2.7194161 C8.96742896,2.5627657 8.68397059,2.4173068 8.32591254,2.28303503 C7.7589873,2.07416784 7.19580027,1.8951415 6.63633457,1.74595064 C6.07686887,1.59675979 5.39433095,1.46249003 4.58870034,1.34313735 C4.06653235,1.26854192 3.68237167,1.29464993 3.43620676,1.42146216 C3.19004185,1.54827438 2.99982636,1.86530019 2.86555459,2.3725491 C2.73128283,3.07374611 2.59328336,3.88309435 2.45155204,4.8006181 C2.30982073,5.71814185 2.16809155,6.69159757 2.02636024,7.72101446 C1.88462893,8.75043135 1.75408889,9.79475167 1.6347362,10.8540067 C1.51538352,11.9132618 1.40722177,12.9352038 1.31024772,13.9198634 C1.21327366,14.9045231 1.13867936,15.8183034 1.08646256,16.6612317 C1.03424576,17.50416 1.00813775,18.2165356 1.00813775,18.79838 C0.97829958,19.1862762 1.0305156,19.4846534 1.16478736,19.6935206 C1.29905913,19.9023878 1.55267978,20.096333 1.92565691,20.275362 C2.22403862,20.4245529 2.54852386,20.5550929 2.89912237,20.6669861 C3.24972087,20.7788792 3.59658441,20.8721221 3.93972337,20.9467175 C4.29778142,21.021313 4.54394264,21.0175832 4.6782144,20.9355283 C4.81248617,20.8534733 4.90945877,20.6781767 4.96913512,20.4096331 C5.02881146,19.7681125 5.11459491,19.0370882 5.22648805,18.2165386 C5.33838119,17.3959889 5.46892123,16.515776 5.61811208,15.5758736 C5.76730294,14.6359713 5.93141042,13.6587858 6.11043944,12.644288 C6.28946847,11.6297902 6.47595424,10.6153076 6.66990234,9.60080982 L6.66990234,9.60080982 Z M30.2270204,2.77536239 C29.8242051,2.50681885 29.354261,2.2531982 28.8171739,2.01449284 C28.2800868,1.77578747 27.780305,1.59676113 27.3178133,1.47740845 C26.8553217,1.34313668 26.5084581,1.3244881 26.2772123,1.42146216 C26.0459665,1.51843621 25.8632104,1.78324601 25.7289387,2.21589948 C25.5648287,2.9170965 25.3858024,3.73390417 25.1918543,4.666347 C24.9979062,5.59878984 24.8076907,6.58716442 24.6212021,7.6315004 C24.4347135,8.67583638 24.2519575,9.74253498 24.0729285,10.8316282 C23.8938994,11.9207214 23.7335217,12.9575823 23.5917904,13.942242 C23.4500591,14.9269016 23.3307082,15.8332224 23.2337341,16.6612317 C23.1367601,17.4892409 23.0733549,18.1643194 23.0435167,18.6864874 C22.9987595,19.0743836 23.0323269,19.3764906 23.14422,19.5928173 C23.2561132,19.809144 23.4836258,19.9993595 23.8267648,20.1634695 C24.1400656,20.3275794 24.4720102,20.4618492 24.8226088,20.5662828 C25.1732073,20.6707163 25.5424491,20.7751484 25.9303453,20.879582 C26.3182415,20.9690965 26.5755919,20.9765559 26.7024041,20.9019605 C26.8292163,20.8273651 26.9299187,20.6632576 27.0045141,20.4096331 C27.1387859,19.7382743 27.2991636,18.9736826 27.4856522,18.1158352 C27.6721407,17.2579878 27.8772751,16.3479373 28.1010614,15.3856563 C28.3248477,14.4233752 28.55609,13.4387304 28.7947954,12.4316921 C29.0335007,11.4246539 29.2759322,10.440009 29.5220972,9.47772798 C29.7682621,8.51544698 30.0144233,7.6016667 30.2605882,6.73635975 C30.5067531,5.8710528 30.7342657,5.10273143 30.9431329,4.43137258 C31.0475665,4.02855728 31.0587557,3.72272062 30.9767007,3.51385342 C30.8946457,3.30498623 30.6447548,3.05882501 30.2270204,2.77536239 L30.2270204,2.77536239 Z M41.0806008,13.2261294 C40.9164909,12.4652561 40.7523834,11.6708267 40.5882734,10.8428175 C40.4241635,10.0148082 40.2675155,9.20918971 40.1183246,8.42593772 C39.9691337,7.64268574 39.834864,6.91539124 39.7155113,6.2440324 C39.5961586,5.57267355 39.499186,5.02067567 39.4245906,4.5880222 C39.3350761,4.02109695 39.1933469,3.59217968 38.9993988,3.30125752 C38.8054507,3.01033535 38.4772357,2.76790385 38.0147441,2.57395574 C37.4478188,2.3054122 36.9032804,2.08908871 36.3811124,1.92497877 C35.8589444,1.76086883 35.3218654,1.59676136 34.7698592,1.43265142 C34.3073676,1.31329873 33.9418555,1.30956902 33.6733119,1.42146216 C33.4047684,1.5333553 33.2182826,1.81308395 33.113849,2.26065652 C32.9497391,3.03644896 32.7819019,3.92412122 32.6103324,4.92369994 C32.4387629,5.92327866 32.2709257,6.96013954 32.1068158,8.03431369 C31.9427059,9.10848784 31.7897875,10.1863756 31.6480562,11.2680093 C31.5063249,12.349643 31.3795146,13.3641256 31.2676215,14.3114875 C31.1557283,15.2588494 31.0662151,16.1054948 30.9990793,16.8514491 C30.9319434,17.5974033 30.8834571,18.1717795 30.8536189,18.5745948 C30.8237807,18.962491 30.8648076,19.264598 30.9767007,19.4809247 C31.0885939,19.6972515 31.3086471,19.8874669 31.636867,20.0515769 C31.9800059,20.2604441 32.3343289,20.4133624 32.6998465,20.5103365 C33.0653641,20.6073105 33.4271465,20.7005534 33.7852045,20.7900679 C34.1731007,20.8945015 34.4341808,20.9131501 34.5684526,20.8460142 C34.7027244,20.7788783 34.799697,20.6185006 34.8593733,20.3648761 C34.9339687,19.827789 35.034671,19.1974671 35.1614833,18.4738915 C35.2882955,17.7503158 35.4300247,16.9670756 35.5866751,16.1241473 C35.7433255,15.281219 35.9074329,14.3972764 36.0790024,13.4722931 C36.2505719,12.5473098 36.4184091,11.6223404 36.582519,10.6973571 C36.7764672,11.4731496 36.9853312,12.2452006 37.2091175,13.0135335 C37.4329038,13.7818664 37.6566867,14.5203501 37.880473,15.2290066 C38.1042593,15.9376632 38.3243125,16.5978228 38.5406392,17.2095053 C38.7569659,17.8211878 38.9695597,18.3582668 39.1784269,18.8207585 C39.4469705,19.4622792 39.9094552,19.909845 40.5658949,20.1634695 C41.282011,20.4170939 41.9831975,20.6110391 42.6694754,20.7453109 C43.4751061,20.9243399 43.9226719,20.7303947 44.0121864,20.1634695 C44.2508918,19.1191335 44.5380799,17.906976 44.8737593,16.5269606 C45.2094387,15.1469452 45.560032,13.733383 45.9255496,12.2862318 C46.2910671,10.8390805 46.660309,9.4143292 47.0332861,8.01193517 C47.4062632,6.60954115 47.7643159,5.35635677 48.1074549,4.25234446 C48.2268076,3.86444824 48.260375,3.53250356 48.2081582,3.25650049 C48.1559414,2.98049741 47.9135099,2.70822818 47.4808564,2.43968464 C47.227232,2.27557471 47.003449,2.14130495 46.8095009,2.03687135 C46.6155528,1.93243776 46.4327968,1.84292459 46.2612273,1.76832916 C46.0896578,1.69373373 45.9143612,1.63405829 45.7353322,1.58930103 C45.5563031,1.54454377 45.3548985,1.49232776 45.1311122,1.43265142 C44.6537015,1.31329873 44.2919191,1.3058393 44.0457542,1.4102729 C43.7995893,1.5147065 43.6168332,1.78324601 43.4974805,2.21589948 C43.0648271,3.81224162 42.6284504,5.55774843 42.1883373,7.45247227 C41.7482243,9.34719611 41.3789825,11.2717293 41.0806008,13.2261294 L41.0806008,13.2261294 Z M55.0820925,2.77536239 C54.6792772,2.50681885 54.209333,2.2531982 53.6722459,2.01449284 C53.1351589,1.77578747 52.635377,1.59676113 52.1728854,1.47740845 C51.7103937,1.34313668 51.3635302,1.3244881 51.1322844,1.42146216 C50.9010385,1.51843621 50.7182825,1.78324601 50.5840107,2.21589948 C50.4199008,2.9170965 50.2408744,3.73390417 50.0469263,4.666347 C49.8529782,5.59878984 49.6627627,6.58716442 49.4762742,7.6315004 C49.2897856,8.67583638 49.1070295,9.74253498 48.9280005,10.8316282 C48.7489715,11.9207214 48.5885937,12.9575823 48.4468624,13.942242 C48.3051311,14.9269016 48.1857802,15.8332224 48.0888061,16.6612317 C47.9918321,17.4892409 47.9284269,18.1643194 47.8985888,18.6864874 C47.8538315,19.0743836 47.8873989,19.3764906 47.9992921,19.5928173 C48.1111852,19.809144 48.3386979,19.9993595 48.6818368,20.1634695 C48.9951376,20.3275794 49.3270823,20.4618492 49.6776808,20.5662828 C50.0282793,20.6707163 50.3975211,20.7751484 50.7854173,20.879582 C51.1733136,20.9690965 51.4306639,20.9765559 51.5574762,20.9019605 C51.6842884,20.8273651 51.7849907,20.6632576 51.8595861,20.4096331 C51.9938579,19.7382743 52.1542357,18.9736826 52.3407242,18.1158352 C52.5272128,17.2579878 52.7323471,16.3479373 52.9561334,15.3856563 C53.1799197,14.4233752 53.4111621,13.4387304 53.6498674,12.4316921 C53.8885728,11.4246539 54.1310043,10.440009 54.3771692,9.47772798 C54.6233341,8.51544698 54.8694953,7.6016667 55.1156602,6.73635975 C55.3618251,5.8710528 55.5893378,5.10273143 55.798205,4.43137258 C55.9026386,4.02855728 55.9138277,3.72272062 55.8317727,3.51385342 C55.7497178,3.30498623 55.4998268,3.05882501 55.0820925,2.77536239 L55.0820925,2.77536239 Z M72.5373351,4.00618078 C72.6566878,3.61828456 72.6753364,3.31990733 72.5932814,3.11104013 C72.5112264,2.90217293 72.2762544,2.65601172 71.8883581,2.3725491 C71.4706238,2.10400556 71.0305173,1.86157406 70.5680257,1.64524732 C70.105534,1.42892058 69.6579682,1.26108339 69.2253147,1.14173071 C68.7628231,1.00745894 68.4085001,0.973891499 68.1623352,1.04102738 C67.9161703,1.10816327 67.7259548,1.38043249 67.591683,1.85784322 C67.2485441,3.12596548 66.9016805,4.53952762 66.551082,6.09857204 C66.2004835,7.65761646 65.8387011,9.22782665 65.465724,10.8092497 C64.8987988,10.854007 64.3132334,10.8987635 63.7090105,10.9435208 C63.1047875,10.988278 62.4893845,11.0479535 61.8627829,11.1225489 C62.1611646,9.80966941 62.4408933,8.57886333 62.7019773,7.43009375 C62.9630612,6.28132418 63.2129522,5.28176045 63.4516575,4.43137258 C63.4964148,4.23742447 63.5262525,4.06585757 63.5411716,3.91666671 C63.5560907,3.76747586 63.5374421,3.6332061 63.4852253,3.51385342 C63.4330085,3.39450074 63.3434953,3.27514985 63.2166831,3.15579716 C63.0898709,3.03644448 62.9145743,2.90963416 62.690788,2.77536239 C62.2879727,2.50681885 61.8142988,2.25692792 61.2697522,2.0256821 C60.7252056,1.79443627 60.2142346,1.61168022 59.7368239,1.47740845 C59.3041704,1.31329851 58.9759554,1.27600136 58.7521691,1.36551587 C58.5283829,1.45503038 58.356816,1.73848875 58.2374633,2.21589948 C58.0584342,3.46910265 57.8831376,4.83790821 57.7115681,6.3223572 C57.5399987,7.8068062 57.364702,9.29496264 57.185673,10.7868712 C57.006644,12.2787797 56.8201582,13.7109904 56.6262101,15.0835463 C56.432262,16.4561021 56.2233979,17.6570705 55.9996117,18.6864874 C55.9100971,19.0743836 55.9399349,19.3764906 56.0891257,19.5928173 C56.2383166,19.809144 56.4844778,19.9993595 56.8276168,20.1634695 C57.1110794,20.3275794 57.4504835,20.4618492 57.8458392,20.5662828 C58.241195,20.6707163 58.6253557,20.7751484 58.9983328,20.879582 C59.386229,20.9690965 59.6435794,20.9765559 59.7703916,20.9019605 C59.8972039,20.8273651 59.9904467,20.6632576 60.0501231,20.4096331 C60.1694758,19.693517 60.3037455,18.8841688 60.4529364,17.9815641 C60.6021272,17.0789595 60.7960724,16.1129632 61.0347778,15.0835463 C61.6613794,14.9791127 62.2767824,14.8858698 62.8810054,14.8038148 C63.4852283,14.7217599 64.1006314,14.6359764 64.727233,14.5464619 C64.563123,15.4117689 64.4213938,16.1950091 64.3020412,16.8962061 C64.1826885,17.5974031 64.0931753,18.2165359 64.033499,18.7536229 C63.8992272,19.29071 64.0036592,19.6897896 64.3467982,19.9508736 C64.6899372,20.2119576 65.1673407,20.4320108 65.7790232,20.6110398 C66.0774049,20.6856352 66.3571336,20.7564998 66.6182176,20.8236357 C66.8793016,20.8907716 67.1068142,20.9280687 67.3007623,20.9355283 C67.4947104,20.9429878 67.6476288,20.9131501 67.7595219,20.8460142 C67.871415,20.7788783 67.9273608,20.6408788 67.9273608,20.4320117 C68.2257425,19.1937276 68.5651466,17.85103 68.9455833,16.4038787 C69.3260199,14.9567275 69.7213698,13.5021385 70.1316446,12.0400681 C70.5419195,10.5779977 70.9559179,9.15324644 71.3736523,7.7657715 C71.7913867,6.37829656 72.1792771,5.12511218 72.5373351,4.00618078 L72.5373351,4.00618078 Z M74.5215636,2.68584832 L72.3956045,17.5675616 C72.3657664,17.9703769 72.4217121,18.3135107 72.5634434,18.5969733 C72.7051747,18.8804359 72.9028496,19.1265972 73.1564741,19.3354644 C73.4697749,19.6040079 73.7420441,19.8240611 73.9732899,19.9956306 C74.2045358,20.1672001 74.4469673,20.3350373 74.7005917,20.4991472 C74.924378,20.6483381 75.1891878,20.7639592 75.495029,20.8460142 C75.8008703,20.9280692 76.2521659,20.8945017 76.8489293,20.7453109 C77.7440744,20.5812009 78.6839627,20.4021746 79.6686223,20.2082265 C80.6532819,20.0142784 81.6230079,19.8277926 82.5778294,19.6487636 C82.9806447,19.5741682 83.2193465,19.4809253 83.2939419,19.3690321 C83.3685374,19.257139 83.3685374,19.0520046 83.2939419,18.7536229 C83.1745892,18.4850794 83.0664275,18.2202696 82.9694534,17.9591856 C82.8724794,17.6981016 82.7344799,17.418373 82.5554509,17.1199913 C82.391341,16.8514477 82.193666,16.6724214 81.9624202,16.5829069 C81.7311744,16.4933924 81.4066892,16.4635546 80.9889548,16.4933928 C80.2430005,16.5381501 79.5530031,16.5978255 78.918942,16.6724209 C78.2848809,16.7470164 77.6172618,16.843989 76.9160648,16.9633416 C77.0354175,16.5456073 77.147309,16.1241494 77.2517426,15.6989555 C77.3561762,15.2737615 77.4680676,14.822466 77.5874203,14.3450553 C78.4527273,14.1660262 79.3515887,14.0019188 80.2840315,13.8527279 C81.2164743,13.703537 82.1302546,13.546889 83.0253997,13.3827791 C83.4431341,13.2932645 83.7004845,13.1888325 83.7974585,13.0694798 C83.8944326,12.9501271 83.8832434,12.7188848 83.7638908,12.3757458 C83.6892953,12.0773641 83.6035119,11.7827166 83.5065378,11.4917944 C83.4095638,11.2008723 83.2715643,10.9062248 83.0925353,10.6078431 C82.9284253,10.3094613 82.7270207,10.1155161 82.4883153,10.0260016 C82.24961,9.93648712 81.921395,9.89918996 81.5036606,9.91410905 C80.9964117,9.92902813 80.5190082,9.95140643 80.0714356,9.9812446 C79.623863,10.0110828 79.1762972,10.0558394 78.7287246,10.1155157 C78.96743,9.32480417 79.1837535,8.56767194 79.3777016,7.8440963 C79.5716497,7.12052066 79.7805138,6.42306388 80.0043,5.75170504 C81.0635551,5.60251419 82.0705783,5.47570386 83.0253997,5.37127026 C83.9802212,5.26683667 84.9051906,5.16240464 85.8003357,5.05797104 C86.2329892,4.9982947 86.5089882,4.9013221 86.6283408,4.76705033 C86.7476935,4.63277856 86.7775312,4.37169848 86.7178549,3.98380226 C86.6432595,3.6406633 86.5686652,3.32363749 86.4940697,3.03271532 C86.4194743,2.74179316 86.2852046,2.41730792 86.0912564,2.05924987 C85.8525511,1.38789103 85.3080126,1.05967607 84.4576248,1.07459516 C83.5624796,1.10443333 82.6636182,1.17529792 81.7610136,1.28719106 C80.8584089,1.3990842 79.9781961,1.52962424 79.1203487,1.67881509 C78.2625012,1.82800595 77.4419639,1.99211343 76.6587119,2.17114245 C75.8754599,2.35017147 75.1630843,2.52173838 74.5215636,2.68584832 L74.5215636,2.68584832 Z M90.7161498,15.3073314 C91.104046,15.7847422 91.536693,16.258416 92.0141038,16.7283672 C92.4915145,17.1983184 92.9689181,17.649614 93.4463288,18.0822675 C93.9237395,18.5149209 94.3862242,18.9102708 94.8337968,19.2683288 C95.2813694,19.6263869 95.6767192,19.9247641 96.0198582,20.1634695 C96.5420262,20.4767703 97.0007811,20.6520669 97.3961369,20.6893646 C97.7914927,20.7266623 98.1532751,20.7005543 98.4814949,20.6110398 C98.7500385,20.5662825 98.9775511,20.5252557 99.1640397,20.4879579 C99.3505283,20.4506602 99.5780409,20.3275796 99.8465844,20.1187124 C100.070371,19.9546025 100.197181,19.7979544 100.227019,19.6487636 C100.256857,19.4995727 100.122588,19.2981681 99.8242059,19.0445437 C99.4512288,18.7461619 99.0521492,18.3955687 98.6269553,17.9927534 C98.2017614,17.5899381 97.7728441,17.17221 97.3401906,16.7395565 C96.9075371,16.306903 96.4860793,15.874256 96.0758045,15.4416025 C95.6655296,15.0089491 95.2888284,14.5986804 94.9456894,14.2107842 C96.6166269,13.4648299 98.0525674,12.6592114 99.2535538,11.7939044 C100.45454,10.9285975 101.316104,9.98124974 101.838272,8.95183285 C102.181411,8.31031218 102.256006,7.48977479 102.062058,6.49019607 C101.823352,5.55029369 101.491407,4.75586431 101.066214,4.1068841 C100.64102,3.45790389 100.167346,2.84996028 99.6451778,2.28303503 C98.988738,1.64151436 98.2241464,1.24989424 97.3513799,1.10816293 C96.4786134,0.966431621 95.553644,0.981350482 94.5764439,1.15291996 C93.5992438,1.32448945 92.6071395,1.61167753 91.6001012,2.01449284 C90.593063,2.41730814 89.6270667,2.82757684 88.7020834,3.24531123 C88.5081353,3.34974482 88.3216495,3.61455462 88.1426205,4.03974855 C87.9635914,4.46494248 87.799484,5.0020215 87.6502931,5.65100172 C87.5011023,6.29998193 87.3593731,7.03100615 87.2251013,7.8440963 C87.0908295,8.65718646 86.9677489,9.49637242 86.8558558,10.3616794 C86.7439626,11.2269863 86.6395306,12.0922803 86.5425566,12.9575872 C86.4455825,13.8228942 86.3597991,14.6322424 86.2852036,15.3856563 C86.2106082,16.1390701 86.147203,16.8141486 86.0949862,17.410912 C86.0427694,18.0076754 86.0017426,18.4627007 85.9719044,18.7760015 C85.9420662,19.1638977 85.9793634,19.4734641 86.083797,19.7047099 C86.1882306,19.9359557 86.3821758,20.1336306 86.6656384,20.2977406 C86.949101,20.4469314 87.2474783,20.5513634 87.560779,20.6110398 C87.8740798,20.6707161 88.2321325,20.7527699 88.6349478,20.8572035 C88.9780868,20.9317989 89.2130589,20.9317989 89.3398711,20.8572035 C89.4666833,20.782608 89.5673856,20.62596 89.6419811,20.3872546 C89.806091,19.581624 89.9739282,18.7610866 90.1454977,17.9256178 C90.3170671,17.0901491 90.5072826,16.2173957 90.7161498,15.3073314 L90.7161498,15.3073314 Z M93.1106511,6.22165388 C93.6924954,5.93819126 94.2444933,5.74424606 94.7666613,5.63981246 C95.2888292,5.53537886 95.7662328,5.48316285 96.1988863,5.48316285 C97.0791123,5.48316285 97.6087319,5.69202691 97.7877609,6.1097613 C97.8772755,6.36338575 97.8026811,6.72143843 97.5639758,7.18393007 C97.3252704,7.64642172 96.93738,8.13501444 96.4002929,8.64972288 C95.8632059,9.16443133 95.1955868,9.67167262 94.3974157,10.171462 C93.5992447,10.6712513 92.6854644,11.0927092 91.6560475,11.4358481 C91.9395101,10.4511885 92.1931308,9.5262191 92.4169171,8.66091214 C92.6407033,7.79560519 92.8719457,6.98252723 93.1106511,6.22165388 L93.1106511,6.22165388 Z M115.563762,2.86487645 C115.056513,2.46206115 114.418732,2.11892733 113.650399,1.83546471 C112.882066,1.55200209 112.072718,1.34313802 111.22233,1.20886625 C110.56589,1.10443266 109.875893,1.15664867 109.152317,1.36551587 C108.428742,1.57438306 107.805879,1.88021973 107.283711,2.28303503 C106.507919,2.95439387 105.825381,3.7115261 105.236077,4.55445442 C104.646773,5.39738275 104.150721,6.28878473 103.747906,7.22868711 C103.34509,8.16858949 103.039254,9.13458577 102.830387,10.126705 C102.621519,11.1188241 102.509628,12.0922798 102.494709,13.0471013 C102.47979,14.0019228 102.561844,14.9119733 102.740873,15.7772803 C102.919902,16.6425872 103.188441,17.418368 103.546499,18.104646 C103.770285,18.5223804 104.076122,18.8953519 104.464018,19.2235718 C104.851915,19.5517917 105.247264,19.8203312 105.65008,20.0291984 C106.142409,20.2828228 106.686948,20.4730383 107.283711,20.5998505 C107.880475,20.7266628 108.46231,20.8199056 109.029236,20.879582 C109.879623,20.9690965 110.633026,20.9355291 111.289466,20.7788787 C111.945905,20.6222283 112.572498,20.3126619 113.169261,19.8501702 C114.049487,19.0743778 114.791701,18.1270301 115.395923,17.0080987 C116.000146,15.8891673 116.47755,14.6993881 116.828148,13.4387253 C117.178747,12.1780626 117.3988,10.9099594 117.488315,9.6343776 C117.577829,8.3587958 117.540532,7.17647601 117.376422,6.08738278 C117.257069,5.43094303 117.066854,4.84537771 116.80577,4.33066926 C116.544686,3.81596082 116.130688,3.3273681 115.563762,2.86487645 L115.563762,2.86487645 Z M111.960821,5.10272807 C112.259203,5.19224258 112.479256,5.50180896 112.620987,6.03143649 C112.762719,6.56106402 112.833583,7.19884536 112.833583,7.94479963 C112.833583,8.67583481 112.773908,9.46280476 112.654555,10.3057331 C112.535203,11.1486614 112.378554,11.9207125 112.184606,12.6219095 C111.96082,13.4722974 111.69601,14.2592673 111.390169,14.982843 C111.084328,15.7064186 110.759843,16.3143622 110.416704,16.806692 C110.073565,17.2990219 109.730431,17.664534 109.387292,17.9032393 C109.044153,18.1419447 108.715938,18.2090796 108.402637,18.104646 C108.059498,18.0002124 107.798418,17.716754 107.619389,17.2542624 C107.44036,16.7917707 107.335928,16.2360431 107.30609,15.5870629 C107.276252,14.9380827 107.306089,14.2368962 107.395604,13.4834824 C107.485118,12.7300686 107.634307,12.0027741 107.843174,11.3015771 C108.052041,10.585461 108.324311,9.84324759 108.65999,9.07491469 C108.99567,8.3065818 109.357452,7.60912502 109.745348,6.98252343 C110.133244,6.35592184 110.521135,5.8598697 110.909031,5.4943521 C111.296927,5.12883451 111.64752,4.99829447 111.960821,5.10272807 L111.960821,5.10272807 Z" id="Minihero" stroke="#000000" fill="#FFFFFF"></path>
    </g>
</svg>