<?xml version="1.0" encoding="UTF-8"?>
<svg width="96px" height="153px" viewBox="0 0 96 153" version="1.1" xmlns="http://www.w3.org/2000/svg" xmlns:xlink="http://www.w3.org/1999/xlink">
    <!-- Generator: Sketch 43.2 (39069) - http://www.bohemiancoding.com/sketch -->
    <title>Group 7</title>
    <desc>Created with Sketch.</desc>
    <defs></defs>
    <g id="Flow" stroke="none" stroke-width="1" fill="none" fill-rule="evenodd">
        <g id="Onboarding-1-desktop" transform="translate(-1144.000000, -242.000000)" fill="#000000">
            <g id="Group-7" transform="translate(1144.000000, 242.000000)">
                <g id="Page-1">
                    <path d="M63.4563786,17.7910777 C63.4563786,16.6992816 62.8518058,15.7649417 61.965,15.265835 C62.0051068,15.0697573 62.0348155,14.8603107 62.0348155,14.6508641 C62.0348155,13.1713689 60.9326214,11.9711359 59.5051165,11.7854563 C59.3357767,10.485699 58.3152816,9.46371845 57.0155243,9.28992233 C56.8417282,7.99016505 55.8197476,6.96372816 54.5140485,6.79438835 C54.5378155,6.64435922 54.5600971,6.49878641 54.5600971,6.34281553 C54.5600971,4.86183495 53.4579029,3.66160194 52.0303981,3.47592233 C51.8447184,2.04841748 50.6385437,0.946223301 49.1649903,0.946223301 C47.6854951,0.946223301 46.477835,2.05435922 46.2921553,3.48186408 C46.1406408,3.45809709 45.9965534,3.4343301 45.8390971,3.4343301 C44.2377961,3.4343301 42.9320971,4.73557282 42.9320971,6.34281553 C42.9320971,6.49878641 42.9558641,6.64435922 42.9796311,6.79438835 C41.673932,6.96372816 40.6460097,7.99016505 40.4781553,9.29586408 C40.3266408,9.27209709 40.1825534,9.24981553 40.0250971,9.24981553 C38.5456019,9.24981553 37.3453689,10.3520097 37.1537476,11.7795146 C35.7262427,11.9651942 34.6240485,13.1713689 34.6240485,14.6449223 C34.6240485,14.7667282 34.6463301,14.8781359 34.6582136,14.994 C33.4342136,15.3356505 32.5280971,16.4497282 32.5280971,17.7791942 C32.5280971,18.3585146 32.7033786,18.8932718 32.9930388,19.3507864 C32.7033786,19.8038447 32.5280971,20.3430583 32.5280971,20.9238641 C32.5280971,22.2518447 33.4282718,23.361466 34.6463301,23.7090583 C34.6344466,23.4075146 34.6240485,23.1059709 34.6240485,22.8044272 C34.6240485,20.726301 34.5943398,17.1582816 35.9178641,15.3653592 C36.1258252,15.0742136 36.3412136,14.8603107 36.5551165,14.6983981 C37.379534,14.0715437 38.2797087,14.2275146 39.6314563,14.181466 C42.8518835,14.0774854 46.0024951,14.3790291 49.2169806,14.3790291 C52.1299223,14.3790291 58.2974563,13.2129612 60.4736214,15.5510388 C62.1150291,17.3083107 61.7793204,20.6564854 61.7793204,22.8088835 C61.7793204,23.0643786 61.7555534,23.313932 61.7496117,23.5694272 C62.753767,23.1119126 63.4504369,22.1077573 63.4504369,20.9298058 C63.4504369,20.349 63.2766408,19.8157282 62.9854951,19.3567282 C63.2825825,18.9051553 63.4563786,18.3644563 63.4563786,17.7910777 Z M48.7059903,6.76616505 C48.7059903,6.74833981 48.7059903,6.73051456 48.711932,6.71863107 C48.735699,6.72457282 48.7639223,6.72457282 48.7876893,6.72457282 C48.7936311,6.7721068 48.7936311,6.82409709 48.8040291,6.87608738 C48.7698641,6.83598058 48.7401553,6.8003301 48.7059903,6.76616505 Z" id="Fill-1"></path>
                    <path d="M39.2363301,38.4237961 C39.3640777,38.8946796 38.8827961,39.4338932 38.1519612,39.6373981 C37.4255825,39.8334757 36.7303981,39.6136311 36.6026505,39.144233 C36.4451942,38.5753107 36.920534,37.4953981 36.9740097,36.8923107 C37.1017573,35.424699 36.509068,34.4443107 35.9639126,33.1386117 C35.1914854,31.2981553 34.4324272,29.4532427 33.6421748,27.6202136 C33.4683786,27.2132039 33.224767,26.7957961 33.1089029,26.3724466 C32.9811553,25.9030485 33.4624369,25.3623495 34.1947573,25.1603301 C34.9196505,24.962767 35.6163204,25.1826117 35.7425825,25.6534951 L39.2363301,38.4237961 Z" id="Fill-2"></path>
                    <path d="M57.3571748,38.4237961 C57.2294272,38.8946796 57.7121942,39.4338932 58.4430291,39.6373981 C59.1679223,39.8334757 59.8645922,39.6136311 59.9923398,39.144233 C60.1483107,38.5753107 59.6729709,37.4953981 59.6209806,36.8923107 C59.493233,35.424699 60.0784951,34.4443107 60.6295922,33.1386117 C61.4020194,31.2981553 62.1625631,29.4532427 62.9513301,27.6202136 C63.1251262,27.2132039 63.3687379,26.7957961 63.4846019,26.3724466 C63.6123495,25.9030485 63.131068,25.3623495 62.400233,25.1603301 C61.6753398,24.962767 60.9786699,25.1826117 60.8509223,25.6534951 L57.3571748,38.4237961 Z" id="Fill-3"></path>
                    <path d="M59.5734466,16.5893592 C57.5606796,14.2572233 51.8625437,15.4173495 49.1649903,15.4173495 C46.1941165,15.4173495 43.2811748,15.1158058 40.3043592,15.2197864 C39.0565922,15.265835 38.2202913,15.1098641 37.461233,15.7367184 C37.2636699,15.8986311 37.0661068,16.1199612 36.8685437,16.4096214 C35.6445437,18.2025437 35.6742524,21.7705631 35.6742524,23.8486893 C35.6742524,27.468699 36.4273689,31.1362427 38.1222524,34.3566699 C39.6656214,37.2918932 41.5744078,40.368233 45.1543107,40.5539126 C49.7561942,40.7856408 53.7252816,41.1748252 56.7080388,37.002233 C59.469466,33.1386117 60.7811068,28.5708932 60.7811068,23.8546311 C60.7811068,21.6948058 61.0885922,18.3525728 59.5734466,16.5893592 Z M48.4683204,22.3914757 C47.2725437,22.3914757 46.3099806,21.4229709 46.3099806,20.2331359 C46.3099806,19.0373592 47.2784854,18.0747961 48.4683204,18.0747961 C49.6581553,18.0747961 50.6266602,19.043301 50.6266602,20.2331359 C50.6266602,21.4229709 49.6581553,22.3914757 48.4683204,22.3914757 Z" id="Fill-4"></path>
                    <path d="M90.6116505,93.7682039 C90.6116505,100.226883 84.6238544,105.466019 77.2427184,105.466019 L18.1966019,105.466019 C10.815466,105.466019 4.8276699,100.226883 4.8276699,93.7682039 C4.8276699,87.3095243 10.815466,82.0703883 18.1966019,82.0703883 L77.2427184,82.0703883 C84.6238544,82.0703883 90.6116505,87.3095243 90.6116505,93.7682039 Z" id="Fill-5"></path>
                    <path d="M71.3009709,55.1290194 C71.3009709,48.677767 66.3633786,43.0836117 59.1337573,40.2746505 C58.7208058,40.8153495 58.2855728,41.3426796 57.7924078,41.8536699 C54.4501748,45.2998835 50.0116893,44.9805146 44.8587087,44.7888932 C41.2788058,44.6552039 39.1962233,42.6142136 37.5592718,40.4543883 C30.5732621,43.3153398 25.8391748,48.8159126 25.8391748,55.1349612 L15.1960194,86.1954466 C15.1960194,95.4630874 36.0159029,101.903942 48.572301,101.903942 C61.128699,101.903942 80.0100874,94.7485922 80.0100874,85.4824369 L71.3009709,55.1290194 Z" id="Fill-6"></path>
                    <path d="M92.7061165,90.7795049 C92.4803301,97.0762718 86.3068544,102.123786 78.6984466,102.123786 L16.7408738,102.123786 C9.13246602,102.123786 2.95899029,97.0762718 2.73320388,90.7795049 C1.24776699,92.6080777 0.371359223,94.778301 0.371359223,97.1104369 C0.371359223,103.569117 6.98006796,108.808252 15.1276893,108.808252 L80.3056893,108.808252 C88.4592524,108.808252 95.0679612,103.569117 95.0679612,97.1104369 C95.0679612,94.778301 94.1974951,92.6080777 92.7061165,90.7795049 Z" id="Fill-7"></path>
                </g>
                <g id="Page-1" transform="translate(68.330097, 117.349515)">
                    <path d="M12.3647767,0 L7.35142718,0 C5.01334951,0 2.8951165,1.56119417 2.33807767,3.89927184 L1.6711165,6.68446602 C0.10992233,12.9218155 1.00415534,19.4963592 4.23646602,25.0667476 L9.9167767,34.7562524 L15.5970874,25.0667476 C18.8293981,19.4963592 19.7162039,12.9218155 18.1624369,6.68446602 L17.4939903,3.89927184 C16.8210874,1.56119417 14.7028544,0 12.3647767,0 Z M12.0350097,11.4779709 L9.9167767,15.0400485 L7.79854369,11.4779709 C6.57454369,9.46966019 6.23734951,7.02166019 6.90431068,4.68209709 L7.12564078,3.67942718 C7.34548544,2.78519417 8.12979612,2.22815534 9.01660194,2.22815534 L10.7991262,2.22815534 C11.6918738,2.22815534 12.4702427,2.78519417 12.6900874,3.67942718 L12.909932,4.68209709 C13.4788544,6.90431068 13.1490874,9.35973786 12.0350097,11.4779709 Z" id="Fill-1"></path>
                </g>
                <g id="Page-1-Copy" transform="translate(38.621359, 117.349515)">
                    <path d="M12.3647767,0 L7.35142718,0 C5.01334951,0 2.8951165,1.56119417 2.33807767,3.89927184 L1.6711165,6.68446602 C0.10992233,12.9218155 1.00415534,19.4963592 4.23646602,25.0667476 L9.9167767,34.7562524 L15.5970874,25.0667476 C18.8293981,19.4963592 19.7162039,12.9218155 18.1624369,6.68446602 L17.4939903,3.89927184 C16.8210874,1.56119417 14.7028544,0 12.3647767,0 Z M12.0350097,11.4779709 L9.9167767,15.0400485 L7.79854369,11.4779709 C6.57454369,9.46966019 6.23734951,7.02166019 6.90431068,4.68209709 L7.12564078,3.67942718 C7.34548544,2.78519417 8.12979612,2.22815534 9.01660194,2.22815534 L10.7991262,2.22815534 C11.6918738,2.22815534 12.4702427,2.78519417 12.6900874,3.67942718 L12.909932,4.68209709 C13.4788544,6.90431068 13.1490874,9.35973786 12.0350097,11.4779709 Z" id="Fill-1"></path>
                </g>
                <g id="Page-1-Copy-2" transform="translate(8.912621, 117.349515)">
                    <path d="M12.3647767,0 L7.35142718,0 C5.01334951,0 2.8951165,1.56119417 2.33807767,3.89927184 L1.6711165,6.68446602 C0.10992233,12.9218155 1.00415534,19.4963592 4.23646602,25.0667476 L9.9167767,34.7562524 L15.5970874,25.0667476 C18.8293981,19.4963592 19.7162039,12.9218155 18.1624369,6.68446602 L17.4939903,3.89927184 C16.8210874,1.56119417 14.7028544,0 12.3647767,0 Z M12.0350097,11.4779709 L9.9167767,15.0400485 L7.79854369,11.4779709 C6.57454369,9.46966019 6.23734951,7.02166019 6.90431068,4.68209709 L7.12564078,3.67942718 C7.34548544,2.78519417 8.12979612,2.22815534 9.01660194,2.22815534 L10.7991262,2.22815534 C11.6918738,2.22815534 12.4702427,2.78519417 12.6900874,3.67942718 L12.909932,4.68209709 C13.4788544,6.90431068 13.1490874,9.35973786 12.0350097,11.4779709 Z" id="Fill-1"></path>
                </g>
            </g>
        </g>
    </g>
</svg>